G04 #@! TF.GenerationSoftware,KiCad,Pcbnew,8.0.6*
G04 #@! TF.CreationDate,2024-12-06T12:29:16-08:00*
G04 #@! TF.ProjectId,bloo,626c6f6f-2e6b-4696-9361-645f70636258,rev?*
G04 #@! TF.SameCoordinates,Original*
G04 #@! TF.FileFunction,Paste,Bot*
G04 #@! TF.FilePolarity,Positive*
%FSLAX46Y46*%
G04 Gerber Fmt 4.6, Leading zero omitted, Abs format (unit mm)*
G04 Created by KiCad (PCBNEW 8.0.6) date 2024-12-06 12:29:16*
%MOMM*%
%LPD*%
G01*
G04 APERTURE LIST*
G04 Aperture macros list*
%AMRoundRect*
0 Rectangle with rounded corners*
0 $1 Rounding radius*
0 $2 $3 $4 $5 $6 $7 $8 $9 X,Y pos of 4 corners*
0 Add a 4 corners polygon primitive as box body*
4,1,4,$2,$3,$4,$5,$6,$7,$8,$9,$2,$3,0*
0 Add four circle primitives for the rounded corners*
1,1,$1+$1,$2,$3*
1,1,$1+$1,$4,$5*
1,1,$1+$1,$6,$7*
1,1,$1+$1,$8,$9*
0 Add four rect primitives between the rounded corners*
20,1,$1+$1,$2,$3,$4,$5,0*
20,1,$1+$1,$4,$5,$6,$7,0*
20,1,$1+$1,$6,$7,$8,$9,0*
20,1,$1+$1,$8,$9,$2,$3,0*%
G04 Aperture macros list end*
%ADD10RoundRect,0.250000X0.650000X-0.412500X0.650000X0.412500X-0.650000X0.412500X-0.650000X-0.412500X0*%
%ADD11RoundRect,0.250000X-0.412500X-0.650000X0.412500X-0.650000X0.412500X0.650000X-0.412500X0.650000X0*%
%ADD12RoundRect,0.250001X0.462499X0.624999X-0.462499X0.624999X-0.462499X-0.624999X0.462499X-0.624999X0*%
%ADD13RoundRect,0.250000X-0.625000X0.400000X-0.625000X-0.400000X0.625000X-0.400000X0.625000X0.400000X0*%
%ADD14RoundRect,0.250000X-0.400000X-0.625000X0.400000X-0.625000X0.400000X0.625000X-0.400000X0.625000X0*%
%ADD15RoundRect,0.250000X0.412500X0.650000X-0.412500X0.650000X-0.412500X-0.650000X0.412500X-0.650000X0*%
%ADD16RoundRect,0.250000X0.625000X-0.400000X0.625000X0.400000X-0.625000X0.400000X-0.625000X-0.400000X0*%
%ADD17RoundRect,0.150000X0.150000X-0.587500X0.150000X0.587500X-0.150000X0.587500X-0.150000X-0.587500X0*%
%ADD18R,0.850900X0.355600*%
%ADD19R,0.508000X0.508000*%
%ADD20RoundRect,0.150000X0.512500X0.150000X-0.512500X0.150000X-0.512500X-0.150000X0.512500X-0.150000X0*%
%ADD21RoundRect,0.250000X0.400000X0.625000X-0.400000X0.625000X-0.400000X-0.625000X0.400000X-0.625000X0*%
G04 APERTURE END LIST*
D10*
X210850000Y-183762500D03*
X210850000Y-180637500D03*
D11*
X233037500Y-176000000D03*
X236162500Y-176000000D03*
D12*
X228587500Y-179500000D03*
X225612500Y-179500000D03*
D13*
X197050000Y-193975000D03*
X197050000Y-197075000D03*
D14*
X185800000Y-150000000D03*
X188900000Y-150000000D03*
D15*
X190762500Y-125400000D03*
X187637500Y-125400000D03*
D16*
X177600000Y-197050000D03*
X177600000Y-193950000D03*
D17*
X196350000Y-190477500D03*
X194450000Y-190477500D03*
X195400000Y-188602500D03*
D16*
X181600000Y-197025000D03*
X181600000Y-193925000D03*
X189600000Y-197050000D03*
X189600000Y-193950000D03*
D18*
X192436650Y-156450001D03*
X192436650Y-157100000D03*
X192436650Y-157749999D03*
X190163350Y-157749999D03*
X190163350Y-157100000D03*
X190163350Y-156450001D03*
D15*
X199062500Y-125600000D03*
X195937500Y-125600000D03*
D10*
X210700000Y-200887500D03*
X210700000Y-197762500D03*
D15*
X219250000Y-180700000D03*
X216125000Y-180700000D03*
D19*
X190378499Y-146206200D03*
X192278501Y-146206200D03*
X191328500Y-148593800D03*
D10*
X202200000Y-183762500D03*
X202200000Y-180637500D03*
D18*
X192436650Y-151950001D03*
X192436650Y-152600000D03*
X192436650Y-153249999D03*
X190163350Y-153249999D03*
X190163350Y-152600000D03*
X190163350Y-151950001D03*
D20*
X228237500Y-175150000D03*
X228237500Y-176100000D03*
X228237500Y-177050000D03*
X225962500Y-177050000D03*
X225962500Y-175150000D03*
D15*
X190762500Y-128200000D03*
X187637500Y-128200000D03*
D11*
X240137500Y-175900000D03*
X243262500Y-175900000D03*
D16*
X185600000Y-197050000D03*
X185600000Y-193950000D03*
D10*
X207900000Y-183762500D03*
X207900000Y-180637500D03*
D21*
X219137500Y-172800000D03*
X216037500Y-172800000D03*
D16*
X186900000Y-155250000D03*
X186900000Y-152150000D03*
X193550000Y-197075000D03*
X193550000Y-193975000D03*
D11*
X233037500Y-178750000D03*
X236162500Y-178750000D03*
D21*
X219137500Y-176200000D03*
X216037500Y-176200000D03*
D15*
X199062500Y-128200000D03*
X195937500Y-128200000D03*
D11*
X240137500Y-178700000D03*
X243262500Y-178700000D03*
D14*
X187550000Y-159750000D03*
X190650000Y-159750000D03*
D10*
X205000000Y-183762500D03*
X205000000Y-180637500D03*
M02*
