G04 #@! TF.GenerationSoftware,KiCad,Pcbnew,8.0.6*
G04 #@! TF.CreationDate,2024-12-06T12:29:16-08:00*
G04 #@! TF.ProjectId,bloo,626c6f6f-2e6b-4696-9361-645f70636258,rev?*
G04 #@! TF.SameCoordinates,Original*
G04 #@! TF.FileFunction,Profile,NP*
%FSLAX46Y46*%
G04 Gerber Fmt 4.6, Leading zero omitted, Abs format (unit mm)*
G04 Created by KiCad (PCBNEW 8.0.6) date 2024-12-06 12:29:16*
%MOMM*%
%LPD*%
G01*
G04 APERTURE LIST*
G04 #@! TA.AperFunction,Profile*
%ADD10C,0.150000*%
G04 #@! TD*
G04 APERTURE END LIST*
D10*
X259782296Y-195000001D02*
X259782296Y-200257768D01*
X257300000Y-192500000D02*
G75*
G02*
X259782363Y-195000001I-17800J-2500100D01*
G01*
X180573923Y-160000000D02*
G75*
G02*
X183073900Y-162500000I-23J-2500000D01*
G01*
X171385534Y-194974466D02*
X171385534Y-199974466D01*
X168572389Y-127005495D02*
G75*
G02*
X262573919Y-127003683I47001531J-39748195D01*
G01*
X262573923Y-157003680D02*
X262573923Y-127003680D01*
X262573923Y-157003680D02*
G75*
G02*
X259573923Y-160003623I-2999923J-20D01*
G01*
X250600000Y-192500000D02*
X257300000Y-192500000D01*
X248100000Y-162500000D02*
G75*
G02*
X250600000Y-160000000I2500000J0D01*
G01*
X171385534Y-194974466D02*
G75*
G02*
X174003923Y-192494024I2578366J-99534D01*
G01*
X259782296Y-200257768D02*
G75*
G02*
X254848590Y-204999988I-4993796J257868D01*
G01*
X176385534Y-204974466D02*
G75*
G02*
X171385534Y-199974466I66J5000066D01*
G01*
X248100000Y-162500000D02*
X248100000Y-190000000D01*
X250600000Y-192500000D02*
G75*
G02*
X248100000Y-190000000I0J2500000D01*
G01*
X250600000Y-160000000D02*
X259573923Y-160000000D01*
X168570243Y-157003680D02*
X168572389Y-127005495D01*
X183073923Y-189974018D02*
X183073923Y-162500000D01*
X183073923Y-189974018D02*
G75*
G02*
X180573923Y-192474023I-2500023J18D01*
G01*
X174003923Y-192494018D02*
X180573923Y-192474018D01*
X171570243Y-160003680D02*
G75*
G02*
X168570220Y-157003680I-43J2999980D01*
G01*
X180573923Y-160000000D02*
X171570243Y-160003680D01*
X176384123Y-204974390D02*
X254848589Y-204999924D01*
M02*
