M48
; DRILL file {KiCad 8.0.6} date 2024-12-06T12:29:20-0800
; FORMAT={-:-/ absolute / inch / decimal}
; #@! TF.CreationDate,2024-12-06T12:29:20-08:00
; #@! TF.GenerationSoftware,Kicad,Pcbnew,8.0.6
; #@! TF.FileFunction,Plated,1,2,PTH
FMAT,2
INCH
; #@! TA.AperFunction,Plated,PTH,ViaDrill
T1C0.0150
; #@! TA.AperFunction,Plated,PTH,ViaDrill
T2C0.0157
; #@! TA.AperFunction,Plated,PTH,ComponentDrill
T3C0.0256
; #@! TA.AperFunction,Plated,PTH,ComponentDrill
T4C0.0300
; #@! TA.AperFunction,Plated,PTH,ComponentDrill
T5C0.0315
; #@! TA.AperFunction,Plated,PTH,ComponentDrill
T6C0.0354
; #@! TA.AperFunction,Plated,PTH,ComponentDrill
T7C0.0394
; #@! TA.AperFunction,Plated,PTH,ComponentDrill
T8C0.0728
%
G90
G05
T1
X7.565Y-6.2894
T2
X6.8307Y-5.0886
X6.8593Y-7.8691
X6.8622Y-6.1614
X7.0374Y-4.7736
X7.0906Y-5.128
X7.0906Y-7.874
X7.103Y-5.7215
X7.1102Y-5.0295
X7.1201Y-5.4626
X7.1299Y-5.6535
X7.1752Y-4.7736
X7.1772Y-6.0669
X7.1791Y-5.4626
X7.1949Y-4.5669
X7.1969Y-6.1339
X7.2087Y-5.8937
X7.2874Y-7.874
X7.3366Y-5.187
X7.3504Y-4.8465
X7.4339Y-6.9882
X7.4774Y-7.874
X7.4777Y-6.4528
X7.4843Y-5.6654
X7.4851Y-6.1032
X7.5039Y-6.6634
X7.5531Y-6.0925
X7.6142Y-5.5315
X7.628Y-6.2106
X7.6378Y-6.315
X7.6496Y-5.1457
X7.7242Y-5.3386
X7.75Y-6.9291
X7.7677Y-5.8583
X7.7697Y-4.9449
X7.7697Y-5.0472
X7.8091Y-6.6634
X7.8878Y-4.9508
X7.8898Y-5.0472
X7.9213Y-5.1083
X7.9291Y-5.8508
X7.9469Y-5.3642
X7.9843Y-5.6575
X7.9976Y-5.8292
X8.0157Y-5.2461
X8.0256Y-4.6752
X8.0261Y-4.72
X8.0551Y-5.3642
X8.0827Y-4.4988
X8.0945Y-4.7902
X8.1004Y-6.5748
X8.1013Y-5.6643
X8.1053Y-6.6192
X8.1142Y-6.6634
X8.2126Y-7.9921
X8.2978Y-5.1679
X8.2992Y-4.7717
X8.3307Y-6.0728
X8.3346Y-5.2283
X8.3504Y-5.4232
X8.3539Y-5.1118
X8.3996Y-5.187
X8.4094Y-5.0295
X8.4488Y-7.2362
X8.4587Y-5.4232
X8.4587Y-6.0728
X8.5512Y-6.2244
X8.5866Y-5.0295
X8.5866Y-5.1083
X8.6457Y-4.6949
X8.6646Y-5.5197
X8.6646Y-5.5709
X8.6654Y-5.4724
X8.6654Y-5.8701
X8.6811Y-5.9409
X8.7323Y-5.5236
X8.7913Y-6.9016
X8.8917Y-6.7717
X9.0Y-6.2894
X9.0098Y-4.6004
X9.0886Y-7.0079
X9.1024Y-5.2559
X9.128Y-5.8071
X9.1339Y-5.6142
X9.1713Y-5.557
X9.2165Y-4.874
X9.5394Y-6.7953
X9.5906Y-4.7441
X9.7244Y-5.6201
X9.7933Y-5.0157
X9.8307Y-5.9528
X9.8622Y-5.9213
X9.8681Y-4.7441
T3
X7.4902Y-5.4274
X7.4902Y-5.4774
X7.5402Y-5.4274
X7.5402Y-5.4774
X7.5902Y-5.4274
X7.5902Y-5.4774
X7.6402Y-5.4274
X7.6402Y-5.4774
X7.6902Y-5.4274
X7.6902Y-5.4774
T4
X8.6654Y-7.7264
X8.6654Y-7.8064
X8.6654Y-7.8864
X8.6654Y-7.9664
X8.7454Y-7.7264
X8.7454Y-7.8064
X8.7454Y-7.8864
X8.7454Y-7.9664
X8.8254Y-7.7264
X8.8254Y-7.8064
X8.8254Y-7.8864
X8.8254Y-7.9664
X8.9054Y-7.7264
X8.9054Y-7.8064
X8.9054Y-7.8864
X8.9054Y-7.9664
X8.9854Y-7.7264
X8.9854Y-7.8064
X8.9854Y-7.8864
X8.9854Y-7.9664
T5
X8.2618Y-7.3622
X8.2618Y-7.4606
X9.0394Y-5.0089
X9.0394Y-5.1089
X9.0394Y-5.2089
X9.0394Y-5.3089
X9.0394Y-5.4089
X9.0394Y-5.5089
X9.0394Y-5.6089
X9.0394Y-5.7089
X9.2205Y-7.3622
X9.2205Y-7.4606
X9.3394Y-5.0089
X9.3394Y-5.1089
X9.3394Y-5.2089
X9.3394Y-5.3089
X9.3394Y-5.4089
X9.3394Y-5.5089
X9.3394Y-5.6089
X9.3394Y-5.7089
T6
X7.0211Y-5.1441
X7.0211Y-5.2441
X7.0211Y-5.3606
X7.0211Y-5.4606
X7.4039Y-4.7691
X7.5039Y-4.7691
X7.6024Y-4.7691
X7.7024Y-4.7691
X7.9567Y-7.8346
X8.1142Y-7.8346
X9.215Y-4.748
X9.315Y-4.748
X9.4157Y-4.748
X9.5157Y-4.748
X9.9302Y-5.119
X9.9302Y-5.219
X9.9357Y-5.3828
X9.9357Y-5.4828
T7
X6.76Y-5.6437
X6.76Y-5.7437
X6.76Y-5.8437
X6.76Y-5.9437
X6.76Y-6.0437
X6.76Y-6.1437
X7.7008Y-6.0049
X7.7008Y-6.1049
X7.7008Y-6.2049
X7.7008Y-6.3049
X7.7008Y-6.4049
X7.8819Y-6.0055
X7.8819Y-6.1055
X7.8819Y-6.2055
X7.8819Y-6.3055
X7.8819Y-6.4055
X8.1882Y-4.6209
X8.1882Y-4.7209
X8.1882Y-4.8209
X8.1882Y-4.9209
X8.1882Y-5.0209
X8.1882Y-5.1209
X8.1882Y-5.2209
X8.1882Y-5.3209
X8.1882Y-5.4209
X8.1882Y-5.5209
X8.1882Y-5.6209
X8.1882Y-5.7209
X8.1882Y-5.8209
X8.1882Y-5.9209
X8.1882Y-6.0209
X8.1882Y-6.1209
X8.1882Y-6.2209
X8.1882Y-6.3209
X8.1882Y-6.4209
X8.1882Y-6.5209
X8.7882Y-4.6209
X8.7882Y-4.7209
X8.7882Y-4.8209
X8.7882Y-4.9209
X8.7882Y-5.0209
X8.7882Y-5.1209
X8.7882Y-5.2209
X8.7882Y-5.3209
X8.7882Y-5.4209
X8.7882Y-5.5209
X8.7882Y-5.6209
X8.7882Y-5.7209
X8.7882Y-5.8209
X8.7882Y-5.9209
X8.7882Y-6.0209
X8.7882Y-6.1209
X8.7882Y-6.2209
X8.7882Y-6.3209
X8.7882Y-6.4209
X8.7882Y-6.5209
X9.1142Y-7.9134
X9.2008Y-5.9744
X9.2008Y-6.0744
X9.2008Y-6.1744
X9.2008Y-6.2744
X9.2008Y-6.3744
X9.2008Y-6.4744
X9.315Y-7.7264
X9.315Y-7.9094
X9.3553Y-5.9754
X9.3553Y-6.0754
X9.3553Y-6.1754
X9.3553Y-6.2754
X9.3553Y-6.3754
X9.3553Y-6.4754
X9.5236Y-7.9055
X9.8606Y-7.9902
X9.9606Y-7.9902
X10.2203Y-5.6475
X10.2203Y-5.7475
X10.2203Y-5.8475
X10.2203Y-5.9475
X10.2203Y-6.0475
X10.2203Y-6.1475
T8
X9.7067Y-7.7717
X9.8967Y-7.7717
X10.0867Y-7.7717
M30
