G04 #@! TF.GenerationSoftware,KiCad,Pcbnew,8.0.6*
G04 #@! TF.CreationDate,2024-12-06T12:29:16-08:00*
G04 #@! TF.ProjectId,bloo,626c6f6f-2e6b-4696-9361-645f70636258,rev?*
G04 #@! TF.SameCoordinates,Original*
G04 #@! TF.FileFunction,Legend,Bot*
G04 #@! TF.FilePolarity,Positive*
%FSLAX46Y46*%
G04 Gerber Fmt 4.6, Leading zero omitted, Abs format (unit mm)*
G04 Created by KiCad (PCBNEW 8.0.6) date 2024-12-06 12:29:16*
%MOMM*%
%LPD*%
G01*
G04 APERTURE LIST*
G04 Aperture macros list*
%AMRoundRect*
0 Rectangle with rounded corners*
0 $1 Rounding radius*
0 $2 $3 $4 $5 $6 $7 $8 $9 X,Y pos of 4 corners*
0 Add a 4 corners polygon primitive as box body*
4,1,4,$2,$3,$4,$5,$6,$7,$8,$9,$2,$3,0*
0 Add four circle primitives for the rounded corners*
1,1,$1+$1,$2,$3*
1,1,$1+$1,$4,$5*
1,1,$1+$1,$6,$7*
1,1,$1+$1,$8,$9*
0 Add four rect primitives between the rounded corners*
20,1,$1+$1,$2,$3,$4,$5,0*
20,1,$1+$1,$4,$5,$6,$7,0*
20,1,$1+$1,$6,$7,$8,$9,0*
20,1,$1+$1,$8,$9,$2,$3,0*%
G04 Aperture macros list end*
%ADD10C,0.300000*%
%ADD11C,0.150000*%
%ADD12C,0.120000*%
%ADD13C,0.152400*%
%ADD14C,0.000000*%
%ADD15RoundRect,0.200000X0.800000X-0.800000X0.800000X0.800000X-0.800000X0.800000X-0.800000X-0.800000X0*%
%ADD16C,2.000000*%
%ADD17RoundRect,0.200000X0.850000X0.850000X-0.850000X0.850000X-0.850000X-0.850000X0.850000X-0.850000X0*%
%ADD18C,2.100000*%
%ADD19C,2.400000*%
%ADD20RoundRect,0.200000X0.900000X0.900000X-0.900000X0.900000X-0.900000X-0.900000X0.900000X-0.900000X0*%
%ADD21C,2.200000*%
%ADD22C,3.400000*%
%ADD23C,2.600000*%
%ADD24C,1.924000*%
%ADD25O,2.100000X2.100000*%
%ADD26RoundRect,0.200000X-0.900000X0.900000X-0.900000X-0.900000X0.900000X-0.900000X0.900000X0.900000X0*%
%ADD27C,2.584400*%
%ADD28RoundRect,0.200000X-0.850000X-0.850000X0.850000X-0.850000X0.850000X0.850000X-0.850000X0.850000X0*%
%ADD29RoundRect,0.200000X0.800000X0.800000X-0.800000X0.800000X-0.800000X-0.800000X0.800000X-0.800000X0*%
%ADD30RoundRect,0.200000X-0.800000X-0.800000X0.800000X-0.800000X0.800000X0.800000X-0.800000X0.800000X0*%
%ADD31O,2.000000X2.000000*%
%ADD32RoundRect,0.200000X0.500000X-0.500000X0.500000X0.500000X-0.500000X0.500000X-0.500000X-0.500000X0*%
%ADD33O,1.400000X1.400000*%
%ADD34RoundRect,0.200000X-0.850000X0.850000X-0.850000X-0.850000X0.850000X-0.850000X0.850000X0.850000X0*%
%ADD35RoundRect,0.200000X0.900000X-0.900000X0.900000X0.900000X-0.900000X0.900000X-0.900000X-0.900000X0*%
%ADD36RoundRect,0.325471X0.774529X-0.537029X0.774529X0.537029X-0.774529X0.537029X-0.774529X-0.537029X0*%
%ADD37RoundRect,0.325471X-0.537029X-0.774529X0.537029X-0.774529X0.537029X0.774529X-0.537029X0.774529X0*%
%ADD38RoundRect,0.320176X0.592324X0.754824X-0.592324X0.754824X-0.592324X-0.754824X0.592324X-0.754824X0*%
%ADD39RoundRect,0.326924X-0.748076X0.523076X-0.748076X-0.523076X0.748076X-0.523076X0.748076X0.523076X0*%
%ADD40RoundRect,0.326924X-0.523076X-0.748076X0.523076X-0.748076X0.523076X0.748076X-0.523076X0.748076X0*%
%ADD41RoundRect,0.325471X0.537029X0.774529X-0.537029X0.774529X-0.537029X-0.774529X0.537029X-0.774529X0*%
%ADD42RoundRect,0.326924X0.748076X-0.523076X0.748076X0.523076X-0.748076X0.523076X-0.748076X-0.523076X0*%
%ADD43RoundRect,0.250000X0.250000X-0.687500X0.250000X0.687500X-0.250000X0.687500X-0.250000X-0.687500X0*%
%ADD44RoundRect,0.200000X0.425450X0.177800X-0.425450X0.177800X-0.425450X-0.177800X0.425450X-0.177800X0*%
%ADD45RoundRect,0.200000X-0.254000X-0.254000X0.254000X-0.254000X0.254000X0.254000X-0.254000X0.254000X0*%
%ADD46RoundRect,0.250000X0.612500X0.250000X-0.612500X0.250000X-0.612500X-0.250000X0.612500X-0.250000X0*%
%ADD47RoundRect,0.326924X0.523076X0.748076X-0.523076X0.748076X-0.523076X-0.748076X0.523076X-0.748076X0*%
G04 APERTURE END LIST*
D10*
X249200828Y-132854510D02*
X247700828Y-132854510D01*
X247700828Y-132854510D02*
X248772257Y-133354510D01*
X248772257Y-133354510D02*
X247700828Y-133854510D01*
X247700828Y-133854510D02*
X249200828Y-133854510D01*
X248200828Y-135211654D02*
X249200828Y-135211654D01*
X248200828Y-134568796D02*
X248986542Y-134568796D01*
X248986542Y-134568796D02*
X249129400Y-134640225D01*
X249129400Y-134640225D02*
X249200828Y-134783082D01*
X249200828Y-134783082D02*
X249200828Y-134997368D01*
X249200828Y-134997368D02*
X249129400Y-135140225D01*
X249129400Y-135140225D02*
X249057971Y-135211654D01*
X249200828Y-136568797D02*
X248415114Y-136568797D01*
X248415114Y-136568797D02*
X248272257Y-136497368D01*
X248272257Y-136497368D02*
X248200828Y-136354511D01*
X248200828Y-136354511D02*
X248200828Y-136068797D01*
X248200828Y-136068797D02*
X248272257Y-135925939D01*
X249129400Y-136568797D02*
X249200828Y-136425939D01*
X249200828Y-136425939D02*
X249200828Y-136068797D01*
X249200828Y-136068797D02*
X249129400Y-135925939D01*
X249129400Y-135925939D02*
X248986542Y-135854511D01*
X248986542Y-135854511D02*
X248843685Y-135854511D01*
X248843685Y-135854511D02*
X248700828Y-135925939D01*
X248700828Y-135925939D02*
X248629400Y-136068797D01*
X248629400Y-136068797D02*
X248629400Y-136425939D01*
X248629400Y-136425939D02*
X248557971Y-136568797D01*
X249200828Y-137925940D02*
X247700828Y-137925940D01*
X249129400Y-137925940D02*
X249200828Y-137783082D01*
X249200828Y-137783082D02*
X249200828Y-137497368D01*
X249200828Y-137497368D02*
X249129400Y-137354511D01*
X249129400Y-137354511D02*
X249057971Y-137283082D01*
X249057971Y-137283082D02*
X248915114Y-137211654D01*
X248915114Y-137211654D02*
X248486542Y-137211654D01*
X248486542Y-137211654D02*
X248343685Y-137283082D01*
X248343685Y-137283082D02*
X248272257Y-137354511D01*
X248272257Y-137354511D02*
X248200828Y-137497368D01*
X248200828Y-137497368D02*
X248200828Y-137783082D01*
X248200828Y-137783082D02*
X248272257Y-137925940D01*
X247700828Y-138711654D02*
X247986542Y-138568797D01*
X249200828Y-140497368D02*
X247700828Y-140497368D01*
X247700828Y-140497368D02*
X247700828Y-140854511D01*
X247700828Y-140854511D02*
X247772257Y-141068797D01*
X247772257Y-141068797D02*
X247915114Y-141211654D01*
X247915114Y-141211654D02*
X248057971Y-141283083D01*
X248057971Y-141283083D02*
X248343685Y-141354511D01*
X248343685Y-141354511D02*
X248557971Y-141354511D01*
X248557971Y-141354511D02*
X248843685Y-141283083D01*
X248843685Y-141283083D02*
X248986542Y-141211654D01*
X248986542Y-141211654D02*
X249129400Y-141068797D01*
X249129400Y-141068797D02*
X249200828Y-140854511D01*
X249200828Y-140854511D02*
X249200828Y-140497368D01*
X249200828Y-141997368D02*
X248200828Y-141997368D01*
X247700828Y-141997368D02*
X247772257Y-141925940D01*
X247772257Y-141925940D02*
X247843685Y-141997368D01*
X247843685Y-141997368D02*
X247772257Y-142068797D01*
X247772257Y-142068797D02*
X247700828Y-141997368D01*
X247700828Y-141997368D02*
X247843685Y-141997368D01*
X249200828Y-142711654D02*
X247700828Y-142711654D01*
X248272257Y-142711654D02*
X248200828Y-142854512D01*
X248200828Y-142854512D02*
X248200828Y-143140226D01*
X248200828Y-143140226D02*
X248272257Y-143283083D01*
X248272257Y-143283083D02*
X248343685Y-143354512D01*
X248343685Y-143354512D02*
X248486542Y-143425940D01*
X248486542Y-143425940D02*
X248915114Y-143425940D01*
X248915114Y-143425940D02*
X249057971Y-143354512D01*
X249057971Y-143354512D02*
X249129400Y-143283083D01*
X249129400Y-143283083D02*
X249200828Y-143140226D01*
X249200828Y-143140226D02*
X249200828Y-142854512D01*
X249200828Y-142854512D02*
X249129400Y-142711654D01*
X249200828Y-145211654D02*
X247700828Y-145211654D01*
X247700828Y-145211654D02*
X247700828Y-145568797D01*
X247700828Y-145568797D02*
X247772257Y-145783083D01*
X247772257Y-145783083D02*
X247915114Y-145925940D01*
X247915114Y-145925940D02*
X248057971Y-145997369D01*
X248057971Y-145997369D02*
X248343685Y-146068797D01*
X248343685Y-146068797D02*
X248557971Y-146068797D01*
X248557971Y-146068797D02*
X248843685Y-145997369D01*
X248843685Y-145997369D02*
X248986542Y-145925940D01*
X248986542Y-145925940D02*
X249129400Y-145783083D01*
X249129400Y-145783083D02*
X249200828Y-145568797D01*
X249200828Y-145568797D02*
X249200828Y-145211654D01*
X249129400Y-147283083D02*
X249200828Y-147140226D01*
X249200828Y-147140226D02*
X249200828Y-146854512D01*
X249200828Y-146854512D02*
X249129400Y-146711654D01*
X249129400Y-146711654D02*
X248986542Y-146640226D01*
X248986542Y-146640226D02*
X248415114Y-146640226D01*
X248415114Y-146640226D02*
X248272257Y-146711654D01*
X248272257Y-146711654D02*
X248200828Y-146854512D01*
X248200828Y-146854512D02*
X248200828Y-147140226D01*
X248200828Y-147140226D02*
X248272257Y-147283083D01*
X248272257Y-147283083D02*
X248415114Y-147354512D01*
X248415114Y-147354512D02*
X248557971Y-147354512D01*
X248557971Y-147354512D02*
X248700828Y-146640226D01*
X249129400Y-147925940D02*
X249200828Y-148068797D01*
X249200828Y-148068797D02*
X249200828Y-148354511D01*
X249200828Y-148354511D02*
X249129400Y-148497368D01*
X249129400Y-148497368D02*
X248986542Y-148568797D01*
X248986542Y-148568797D02*
X248915114Y-148568797D01*
X248915114Y-148568797D02*
X248772257Y-148497368D01*
X248772257Y-148497368D02*
X248700828Y-148354511D01*
X248700828Y-148354511D02*
X248700828Y-148140226D01*
X248700828Y-148140226D02*
X248629400Y-147997368D01*
X248629400Y-147997368D02*
X248486542Y-147925940D01*
X248486542Y-147925940D02*
X248415114Y-147925940D01*
X248415114Y-147925940D02*
X248272257Y-147997368D01*
X248272257Y-147997368D02*
X248200828Y-148140226D01*
X248200828Y-148140226D02*
X248200828Y-148354511D01*
X248200828Y-148354511D02*
X248272257Y-148497368D01*
X249129400Y-149783083D02*
X249200828Y-149640226D01*
X249200828Y-149640226D02*
X249200828Y-149354512D01*
X249200828Y-149354512D02*
X249129400Y-149211654D01*
X249129400Y-149211654D02*
X248986542Y-149140226D01*
X248986542Y-149140226D02*
X248415114Y-149140226D01*
X248415114Y-149140226D02*
X248272257Y-149211654D01*
X248272257Y-149211654D02*
X248200828Y-149354512D01*
X248200828Y-149354512D02*
X248200828Y-149640226D01*
X248200828Y-149640226D02*
X248272257Y-149783083D01*
X248272257Y-149783083D02*
X248415114Y-149854512D01*
X248415114Y-149854512D02*
X248557971Y-149854512D01*
X248557971Y-149854512D02*
X248700828Y-149140226D01*
X249200828Y-150497368D02*
X248200828Y-150497368D01*
X248486542Y-150497368D02*
X248343685Y-150568797D01*
X248343685Y-150568797D02*
X248272257Y-150640226D01*
X248272257Y-150640226D02*
X248200828Y-150783083D01*
X248200828Y-150783083D02*
X248200828Y-150925940D01*
X248200828Y-151211654D02*
X248200828Y-151783082D01*
X247700828Y-151425939D02*
X248986542Y-151425939D01*
X248986542Y-151425939D02*
X249129400Y-151497368D01*
X249129400Y-151497368D02*
X249200828Y-151640225D01*
X249200828Y-151640225D02*
X249200828Y-151783082D01*
X249200828Y-153425939D02*
X247700828Y-153425939D01*
X247700828Y-153425939D02*
X248772257Y-153925939D01*
X248772257Y-153925939D02*
X247700828Y-154425939D01*
X247700828Y-154425939D02*
X249200828Y-154425939D01*
X249200828Y-155140225D02*
X248200828Y-155140225D01*
X247700828Y-155140225D02*
X247772257Y-155068797D01*
X247772257Y-155068797D02*
X247843685Y-155140225D01*
X247843685Y-155140225D02*
X247772257Y-155211654D01*
X247772257Y-155211654D02*
X247700828Y-155140225D01*
X247700828Y-155140225D02*
X247843685Y-155140225D01*
X249129400Y-156497369D02*
X249200828Y-156354511D01*
X249200828Y-156354511D02*
X249200828Y-156068797D01*
X249200828Y-156068797D02*
X249129400Y-155925940D01*
X249129400Y-155925940D02*
X249057971Y-155854511D01*
X249057971Y-155854511D02*
X248915114Y-155783083D01*
X248915114Y-155783083D02*
X248486542Y-155783083D01*
X248486542Y-155783083D02*
X248343685Y-155854511D01*
X248343685Y-155854511D02*
X248272257Y-155925940D01*
X248272257Y-155925940D02*
X248200828Y-156068797D01*
X248200828Y-156068797D02*
X248200828Y-156354511D01*
X248200828Y-156354511D02*
X248272257Y-156497369D01*
X249129400Y-157711654D02*
X249200828Y-157568797D01*
X249200828Y-157568797D02*
X249200828Y-157283083D01*
X249200828Y-157283083D02*
X249129400Y-157140225D01*
X249129400Y-157140225D02*
X248986542Y-157068797D01*
X248986542Y-157068797D02*
X248415114Y-157068797D01*
X248415114Y-157068797D02*
X248272257Y-157140225D01*
X248272257Y-157140225D02*
X248200828Y-157283083D01*
X248200828Y-157283083D02*
X248200828Y-157568797D01*
X248200828Y-157568797D02*
X248272257Y-157711654D01*
X248272257Y-157711654D02*
X248415114Y-157783083D01*
X248415114Y-157783083D02*
X248557971Y-157783083D01*
X248557971Y-157783083D02*
X248700828Y-157068797D01*
D11*
X211959580Y-177619642D02*
X212007200Y-177572023D01*
X212007200Y-177572023D02*
X212054819Y-177429166D01*
X212054819Y-177429166D02*
X212054819Y-177333928D01*
X212054819Y-177333928D02*
X212007200Y-177191071D01*
X212007200Y-177191071D02*
X211911961Y-177095833D01*
X211911961Y-177095833D02*
X211816723Y-177048214D01*
X211816723Y-177048214D02*
X211626247Y-177000595D01*
X211626247Y-177000595D02*
X211483390Y-177000595D01*
X211483390Y-177000595D02*
X211292914Y-177048214D01*
X211292914Y-177048214D02*
X211197676Y-177095833D01*
X211197676Y-177095833D02*
X211102438Y-177191071D01*
X211102438Y-177191071D02*
X211054819Y-177333928D01*
X211054819Y-177333928D02*
X211054819Y-177429166D01*
X211054819Y-177429166D02*
X211102438Y-177572023D01*
X211102438Y-177572023D02*
X211150057Y-177619642D01*
X212054819Y-178572023D02*
X212054819Y-178000595D01*
X212054819Y-178286309D02*
X211054819Y-178286309D01*
X211054819Y-178286309D02*
X211197676Y-178191071D01*
X211197676Y-178191071D02*
X211292914Y-178095833D01*
X211292914Y-178095833D02*
X211340533Y-178000595D01*
X211054819Y-178905357D02*
X211054819Y-179524404D01*
X211054819Y-179524404D02*
X211435771Y-179191071D01*
X211435771Y-179191071D02*
X211435771Y-179333928D01*
X211435771Y-179333928D02*
X211483390Y-179429166D01*
X211483390Y-179429166D02*
X211531009Y-179476785D01*
X211531009Y-179476785D02*
X211626247Y-179524404D01*
X211626247Y-179524404D02*
X211864342Y-179524404D01*
X211864342Y-179524404D02*
X211959580Y-179476785D01*
X211959580Y-179476785D02*
X212007200Y-179429166D01*
X212007200Y-179429166D02*
X212054819Y-179333928D01*
X212054819Y-179333928D02*
X212054819Y-179048214D01*
X212054819Y-179048214D02*
X212007200Y-178952976D01*
X212007200Y-178952976D02*
X211959580Y-178905357D01*
X239305357Y-176859580D02*
X239352976Y-176907200D01*
X239352976Y-176907200D02*
X239495833Y-176954819D01*
X239495833Y-176954819D02*
X239591071Y-176954819D01*
X239591071Y-176954819D02*
X239733928Y-176907200D01*
X239733928Y-176907200D02*
X239829166Y-176811961D01*
X239829166Y-176811961D02*
X239876785Y-176716723D01*
X239876785Y-176716723D02*
X239924404Y-176526247D01*
X239924404Y-176526247D02*
X239924404Y-176383390D01*
X239924404Y-176383390D02*
X239876785Y-176192914D01*
X239876785Y-176192914D02*
X239829166Y-176097676D01*
X239829166Y-176097676D02*
X239733928Y-176002438D01*
X239733928Y-176002438D02*
X239591071Y-175954819D01*
X239591071Y-175954819D02*
X239495833Y-175954819D01*
X239495833Y-175954819D02*
X239352976Y-176002438D01*
X239352976Y-176002438D02*
X239305357Y-176050057D01*
X238352976Y-176954819D02*
X238924404Y-176954819D01*
X238638690Y-176954819D02*
X238638690Y-175954819D01*
X238638690Y-175954819D02*
X238733928Y-176097676D01*
X238733928Y-176097676D02*
X238829166Y-176192914D01*
X238829166Y-176192914D02*
X238924404Y-176240533D01*
X238019642Y-175954819D02*
X237352976Y-175954819D01*
X237352976Y-175954819D02*
X237781547Y-176954819D01*
X223779166Y-179454819D02*
X224255356Y-179454819D01*
X224255356Y-179454819D02*
X224255356Y-178454819D01*
X222922023Y-179454819D02*
X223493451Y-179454819D01*
X223207737Y-179454819D02*
X223207737Y-178454819D01*
X223207737Y-178454819D02*
X223302975Y-178597676D01*
X223302975Y-178597676D02*
X223398213Y-178692914D01*
X223398213Y-178692914D02*
X223493451Y-178740533D01*
X197692857Y-192879819D02*
X198026190Y-192403628D01*
X198264285Y-192879819D02*
X198264285Y-191879819D01*
X198264285Y-191879819D02*
X197883333Y-191879819D01*
X197883333Y-191879819D02*
X197788095Y-191927438D01*
X197788095Y-191927438D02*
X197740476Y-191975057D01*
X197740476Y-191975057D02*
X197692857Y-192070295D01*
X197692857Y-192070295D02*
X197692857Y-192213152D01*
X197692857Y-192213152D02*
X197740476Y-192308390D01*
X197740476Y-192308390D02*
X197788095Y-192356009D01*
X197788095Y-192356009D02*
X197883333Y-192403628D01*
X197883333Y-192403628D02*
X198264285Y-192403628D01*
X196740476Y-192879819D02*
X197311904Y-192879819D01*
X197026190Y-192879819D02*
X197026190Y-191879819D01*
X197026190Y-191879819D02*
X197121428Y-192022676D01*
X197121428Y-192022676D02*
X197216666Y-192117914D01*
X197216666Y-192117914D02*
X197311904Y-192165533D01*
X196169047Y-192308390D02*
X196264285Y-192260771D01*
X196264285Y-192260771D02*
X196311904Y-192213152D01*
X196311904Y-192213152D02*
X196359523Y-192117914D01*
X196359523Y-192117914D02*
X196359523Y-192070295D01*
X196359523Y-192070295D02*
X196311904Y-191975057D01*
X196311904Y-191975057D02*
X196264285Y-191927438D01*
X196264285Y-191927438D02*
X196169047Y-191879819D01*
X196169047Y-191879819D02*
X195978571Y-191879819D01*
X195978571Y-191879819D02*
X195883333Y-191927438D01*
X195883333Y-191927438D02*
X195835714Y-191975057D01*
X195835714Y-191975057D02*
X195788095Y-192070295D01*
X195788095Y-192070295D02*
X195788095Y-192117914D01*
X195788095Y-192117914D02*
X195835714Y-192213152D01*
X195835714Y-192213152D02*
X195883333Y-192260771D01*
X195883333Y-192260771D02*
X195978571Y-192308390D01*
X195978571Y-192308390D02*
X196169047Y-192308390D01*
X196169047Y-192308390D02*
X196264285Y-192356009D01*
X196264285Y-192356009D02*
X196311904Y-192403628D01*
X196311904Y-192403628D02*
X196359523Y-192498866D01*
X196359523Y-192498866D02*
X196359523Y-192689342D01*
X196359523Y-192689342D02*
X196311904Y-192784580D01*
X196311904Y-192784580D02*
X196264285Y-192832200D01*
X196264285Y-192832200D02*
X196169047Y-192879819D01*
X196169047Y-192879819D02*
X195978571Y-192879819D01*
X195978571Y-192879819D02*
X195883333Y-192832200D01*
X195883333Y-192832200D02*
X195835714Y-192784580D01*
X195835714Y-192784580D02*
X195788095Y-192689342D01*
X195788095Y-192689342D02*
X195788095Y-192498866D01*
X195788095Y-192498866D02*
X195835714Y-192403628D01*
X195835714Y-192403628D02*
X195883333Y-192356009D01*
X195883333Y-192356009D02*
X195978571Y-192308390D01*
X184754819Y-149367142D02*
X184278628Y-149033809D01*
X184754819Y-148795714D02*
X183754819Y-148795714D01*
X183754819Y-148795714D02*
X183754819Y-149176666D01*
X183754819Y-149176666D02*
X183802438Y-149271904D01*
X183802438Y-149271904D02*
X183850057Y-149319523D01*
X183850057Y-149319523D02*
X183945295Y-149367142D01*
X183945295Y-149367142D02*
X184088152Y-149367142D01*
X184088152Y-149367142D02*
X184183390Y-149319523D01*
X184183390Y-149319523D02*
X184231009Y-149271904D01*
X184231009Y-149271904D02*
X184278628Y-149176666D01*
X184278628Y-149176666D02*
X184278628Y-148795714D01*
X183850057Y-149748095D02*
X183802438Y-149795714D01*
X183802438Y-149795714D02*
X183754819Y-149890952D01*
X183754819Y-149890952D02*
X183754819Y-150129047D01*
X183754819Y-150129047D02*
X183802438Y-150224285D01*
X183802438Y-150224285D02*
X183850057Y-150271904D01*
X183850057Y-150271904D02*
X183945295Y-150319523D01*
X183945295Y-150319523D02*
X184040533Y-150319523D01*
X184040533Y-150319523D02*
X184183390Y-150271904D01*
X184183390Y-150271904D02*
X184754819Y-149700476D01*
X184754819Y-149700476D02*
X184754819Y-150319523D01*
X184754819Y-151271904D02*
X184754819Y-150700476D01*
X184754819Y-150986190D02*
X183754819Y-150986190D01*
X183754819Y-150986190D02*
X183897676Y-150890952D01*
X183897676Y-150890952D02*
X183992914Y-150795714D01*
X183992914Y-150795714D02*
X184040533Y-150700476D01*
X194042857Y-125959580D02*
X194090476Y-126007200D01*
X194090476Y-126007200D02*
X194233333Y-126054819D01*
X194233333Y-126054819D02*
X194328571Y-126054819D01*
X194328571Y-126054819D02*
X194471428Y-126007200D01*
X194471428Y-126007200D02*
X194566666Y-125911961D01*
X194566666Y-125911961D02*
X194614285Y-125816723D01*
X194614285Y-125816723D02*
X194661904Y-125626247D01*
X194661904Y-125626247D02*
X194661904Y-125483390D01*
X194661904Y-125483390D02*
X194614285Y-125292914D01*
X194614285Y-125292914D02*
X194566666Y-125197676D01*
X194566666Y-125197676D02*
X194471428Y-125102438D01*
X194471428Y-125102438D02*
X194328571Y-125054819D01*
X194328571Y-125054819D02*
X194233333Y-125054819D01*
X194233333Y-125054819D02*
X194090476Y-125102438D01*
X194090476Y-125102438D02*
X194042857Y-125150057D01*
X193661904Y-125150057D02*
X193614285Y-125102438D01*
X193614285Y-125102438D02*
X193519047Y-125054819D01*
X193519047Y-125054819D02*
X193280952Y-125054819D01*
X193280952Y-125054819D02*
X193185714Y-125102438D01*
X193185714Y-125102438D02*
X193138095Y-125150057D01*
X193138095Y-125150057D02*
X193090476Y-125245295D01*
X193090476Y-125245295D02*
X193090476Y-125340533D01*
X193090476Y-125340533D02*
X193138095Y-125483390D01*
X193138095Y-125483390D02*
X193709523Y-126054819D01*
X193709523Y-126054819D02*
X193090476Y-126054819D01*
X192471428Y-125054819D02*
X192376190Y-125054819D01*
X192376190Y-125054819D02*
X192280952Y-125102438D01*
X192280952Y-125102438D02*
X192233333Y-125150057D01*
X192233333Y-125150057D02*
X192185714Y-125245295D01*
X192185714Y-125245295D02*
X192138095Y-125435771D01*
X192138095Y-125435771D02*
X192138095Y-125673866D01*
X192138095Y-125673866D02*
X192185714Y-125864342D01*
X192185714Y-125864342D02*
X192233333Y-125959580D01*
X192233333Y-125959580D02*
X192280952Y-126007200D01*
X192280952Y-126007200D02*
X192376190Y-126054819D01*
X192376190Y-126054819D02*
X192471428Y-126054819D01*
X192471428Y-126054819D02*
X192566666Y-126007200D01*
X192566666Y-126007200D02*
X192614285Y-125959580D01*
X192614285Y-125959580D02*
X192661904Y-125864342D01*
X192661904Y-125864342D02*
X192709523Y-125673866D01*
X192709523Y-125673866D02*
X192709523Y-125435771D01*
X192709523Y-125435771D02*
X192661904Y-125245295D01*
X192661904Y-125245295D02*
X192614285Y-125150057D01*
X192614285Y-125150057D02*
X192566666Y-125102438D01*
X192566666Y-125102438D02*
X192471428Y-125054819D01*
X178342857Y-199054819D02*
X178676190Y-198578628D01*
X178914285Y-199054819D02*
X178914285Y-198054819D01*
X178914285Y-198054819D02*
X178533333Y-198054819D01*
X178533333Y-198054819D02*
X178438095Y-198102438D01*
X178438095Y-198102438D02*
X178390476Y-198150057D01*
X178390476Y-198150057D02*
X178342857Y-198245295D01*
X178342857Y-198245295D02*
X178342857Y-198388152D01*
X178342857Y-198388152D02*
X178390476Y-198483390D01*
X178390476Y-198483390D02*
X178438095Y-198531009D01*
X178438095Y-198531009D02*
X178533333Y-198578628D01*
X178533333Y-198578628D02*
X178914285Y-198578628D01*
X177390476Y-199054819D02*
X177961904Y-199054819D01*
X177676190Y-199054819D02*
X177676190Y-198054819D01*
X177676190Y-198054819D02*
X177771428Y-198197676D01*
X177771428Y-198197676D02*
X177866666Y-198292914D01*
X177866666Y-198292914D02*
X177961904Y-198340533D01*
X176438095Y-199054819D02*
X177009523Y-199054819D01*
X176723809Y-199054819D02*
X176723809Y-198054819D01*
X176723809Y-198054819D02*
X176819047Y-198197676D01*
X176819047Y-198197676D02*
X176914285Y-198292914D01*
X176914285Y-198292914D02*
X177009523Y-198340533D01*
X198350057Y-189444761D02*
X198302438Y-189349523D01*
X198302438Y-189349523D02*
X198207200Y-189254285D01*
X198207200Y-189254285D02*
X198064342Y-189111428D01*
X198064342Y-189111428D02*
X198016723Y-189016190D01*
X198016723Y-189016190D02*
X198016723Y-188920952D01*
X198254819Y-188968571D02*
X198207200Y-188873333D01*
X198207200Y-188873333D02*
X198111961Y-188778095D01*
X198111961Y-188778095D02*
X197921485Y-188730476D01*
X197921485Y-188730476D02*
X197588152Y-188730476D01*
X197588152Y-188730476D02*
X197397676Y-188778095D01*
X197397676Y-188778095D02*
X197302438Y-188873333D01*
X197302438Y-188873333D02*
X197254819Y-188968571D01*
X197254819Y-188968571D02*
X197254819Y-189159047D01*
X197254819Y-189159047D02*
X197302438Y-189254285D01*
X197302438Y-189254285D02*
X197397676Y-189349523D01*
X197397676Y-189349523D02*
X197588152Y-189397142D01*
X197588152Y-189397142D02*
X197921485Y-189397142D01*
X197921485Y-189397142D02*
X198111961Y-189349523D01*
X198111961Y-189349523D02*
X198207200Y-189254285D01*
X198207200Y-189254285D02*
X198254819Y-189159047D01*
X198254819Y-189159047D02*
X198254819Y-188968571D01*
X197683390Y-189968571D02*
X197635771Y-189873333D01*
X197635771Y-189873333D02*
X197588152Y-189825714D01*
X197588152Y-189825714D02*
X197492914Y-189778095D01*
X197492914Y-189778095D02*
X197445295Y-189778095D01*
X197445295Y-189778095D02*
X197350057Y-189825714D01*
X197350057Y-189825714D02*
X197302438Y-189873333D01*
X197302438Y-189873333D02*
X197254819Y-189968571D01*
X197254819Y-189968571D02*
X197254819Y-190159047D01*
X197254819Y-190159047D02*
X197302438Y-190254285D01*
X197302438Y-190254285D02*
X197350057Y-190301904D01*
X197350057Y-190301904D02*
X197445295Y-190349523D01*
X197445295Y-190349523D02*
X197492914Y-190349523D01*
X197492914Y-190349523D02*
X197588152Y-190301904D01*
X197588152Y-190301904D02*
X197635771Y-190254285D01*
X197635771Y-190254285D02*
X197683390Y-190159047D01*
X197683390Y-190159047D02*
X197683390Y-189968571D01*
X197683390Y-189968571D02*
X197731009Y-189873333D01*
X197731009Y-189873333D02*
X197778628Y-189825714D01*
X197778628Y-189825714D02*
X197873866Y-189778095D01*
X197873866Y-189778095D02*
X198064342Y-189778095D01*
X198064342Y-189778095D02*
X198159580Y-189825714D01*
X198159580Y-189825714D02*
X198207200Y-189873333D01*
X198207200Y-189873333D02*
X198254819Y-189968571D01*
X198254819Y-189968571D02*
X198254819Y-190159047D01*
X198254819Y-190159047D02*
X198207200Y-190254285D01*
X198207200Y-190254285D02*
X198159580Y-190301904D01*
X198159580Y-190301904D02*
X198064342Y-190349523D01*
X198064342Y-190349523D02*
X197873866Y-190349523D01*
X197873866Y-190349523D02*
X197778628Y-190301904D01*
X197778628Y-190301904D02*
X197731009Y-190254285D01*
X197731009Y-190254285D02*
X197683390Y-190159047D01*
X182142857Y-199029819D02*
X182476190Y-198553628D01*
X182714285Y-199029819D02*
X182714285Y-198029819D01*
X182714285Y-198029819D02*
X182333333Y-198029819D01*
X182333333Y-198029819D02*
X182238095Y-198077438D01*
X182238095Y-198077438D02*
X182190476Y-198125057D01*
X182190476Y-198125057D02*
X182142857Y-198220295D01*
X182142857Y-198220295D02*
X182142857Y-198363152D01*
X182142857Y-198363152D02*
X182190476Y-198458390D01*
X182190476Y-198458390D02*
X182238095Y-198506009D01*
X182238095Y-198506009D02*
X182333333Y-198553628D01*
X182333333Y-198553628D02*
X182714285Y-198553628D01*
X181761904Y-198125057D02*
X181714285Y-198077438D01*
X181714285Y-198077438D02*
X181619047Y-198029819D01*
X181619047Y-198029819D02*
X181380952Y-198029819D01*
X181380952Y-198029819D02*
X181285714Y-198077438D01*
X181285714Y-198077438D02*
X181238095Y-198125057D01*
X181238095Y-198125057D02*
X181190476Y-198220295D01*
X181190476Y-198220295D02*
X181190476Y-198315533D01*
X181190476Y-198315533D02*
X181238095Y-198458390D01*
X181238095Y-198458390D02*
X181809523Y-199029819D01*
X181809523Y-199029819D02*
X181190476Y-199029819D01*
X180333333Y-198363152D02*
X180333333Y-199029819D01*
X180571428Y-197982200D02*
X180809523Y-198696485D01*
X180809523Y-198696485D02*
X180190476Y-198696485D01*
X190242857Y-199054819D02*
X190576190Y-198578628D01*
X190814285Y-199054819D02*
X190814285Y-198054819D01*
X190814285Y-198054819D02*
X190433333Y-198054819D01*
X190433333Y-198054819D02*
X190338095Y-198102438D01*
X190338095Y-198102438D02*
X190290476Y-198150057D01*
X190290476Y-198150057D02*
X190242857Y-198245295D01*
X190242857Y-198245295D02*
X190242857Y-198388152D01*
X190242857Y-198388152D02*
X190290476Y-198483390D01*
X190290476Y-198483390D02*
X190338095Y-198531009D01*
X190338095Y-198531009D02*
X190433333Y-198578628D01*
X190433333Y-198578628D02*
X190814285Y-198578628D01*
X189290476Y-199054819D02*
X189861904Y-199054819D01*
X189576190Y-199054819D02*
X189576190Y-198054819D01*
X189576190Y-198054819D02*
X189671428Y-198197676D01*
X189671428Y-198197676D02*
X189766666Y-198292914D01*
X189766666Y-198292914D02*
X189861904Y-198340533D01*
X188909523Y-198150057D02*
X188861904Y-198102438D01*
X188861904Y-198102438D02*
X188766666Y-198054819D01*
X188766666Y-198054819D02*
X188528571Y-198054819D01*
X188528571Y-198054819D02*
X188433333Y-198102438D01*
X188433333Y-198102438D02*
X188385714Y-198150057D01*
X188385714Y-198150057D02*
X188338095Y-198245295D01*
X188338095Y-198245295D02*
X188338095Y-198340533D01*
X188338095Y-198340533D02*
X188385714Y-198483390D01*
X188385714Y-198483390D02*
X188957142Y-199054819D01*
X188957142Y-199054819D02*
X188338095Y-199054819D01*
X192061904Y-156554819D02*
X192061904Y-157364342D01*
X192061904Y-157364342D02*
X192014285Y-157459580D01*
X192014285Y-157459580D02*
X191966666Y-157507200D01*
X191966666Y-157507200D02*
X191871428Y-157554819D01*
X191871428Y-157554819D02*
X191680952Y-157554819D01*
X191680952Y-157554819D02*
X191585714Y-157507200D01*
X191585714Y-157507200D02*
X191538095Y-157459580D01*
X191538095Y-157459580D02*
X191490476Y-157364342D01*
X191490476Y-157364342D02*
X191490476Y-156554819D01*
X190585714Y-156554819D02*
X190776190Y-156554819D01*
X190776190Y-156554819D02*
X190871428Y-156602438D01*
X190871428Y-156602438D02*
X190919047Y-156650057D01*
X190919047Y-156650057D02*
X191014285Y-156792914D01*
X191014285Y-156792914D02*
X191061904Y-156983390D01*
X191061904Y-156983390D02*
X191061904Y-157364342D01*
X191061904Y-157364342D02*
X191014285Y-157459580D01*
X191014285Y-157459580D02*
X190966666Y-157507200D01*
X190966666Y-157507200D02*
X190871428Y-157554819D01*
X190871428Y-157554819D02*
X190680952Y-157554819D01*
X190680952Y-157554819D02*
X190585714Y-157507200D01*
X190585714Y-157507200D02*
X190538095Y-157459580D01*
X190538095Y-157459580D02*
X190490476Y-157364342D01*
X190490476Y-157364342D02*
X190490476Y-157126247D01*
X190490476Y-157126247D02*
X190538095Y-157031009D01*
X190538095Y-157031009D02*
X190585714Y-156983390D01*
X190585714Y-156983390D02*
X190680952Y-156935771D01*
X190680952Y-156935771D02*
X190871428Y-156935771D01*
X190871428Y-156935771D02*
X190966666Y-156983390D01*
X190966666Y-156983390D02*
X191014285Y-157031009D01*
X191014285Y-157031009D02*
X191061904Y-157126247D01*
X192690649Y-154406219D02*
X192690649Y-154644314D01*
X192928744Y-154549076D02*
X192690649Y-154644314D01*
X192690649Y-154644314D02*
X192452554Y-154549076D01*
X192833506Y-154834790D02*
X192690649Y-154644314D01*
X192690649Y-154644314D02*
X192547792Y-154834790D01*
X192690649Y-154406219D02*
X192690649Y-154644314D01*
X192928744Y-154549076D02*
X192690649Y-154644314D01*
X192690649Y-154644314D02*
X192452554Y-154549076D01*
X192833506Y-154834790D02*
X192690649Y-154644314D01*
X192690649Y-154644314D02*
X192547792Y-154834790D01*
X202242857Y-126059580D02*
X202290476Y-126107200D01*
X202290476Y-126107200D02*
X202433333Y-126154819D01*
X202433333Y-126154819D02*
X202528571Y-126154819D01*
X202528571Y-126154819D02*
X202671428Y-126107200D01*
X202671428Y-126107200D02*
X202766666Y-126011961D01*
X202766666Y-126011961D02*
X202814285Y-125916723D01*
X202814285Y-125916723D02*
X202861904Y-125726247D01*
X202861904Y-125726247D02*
X202861904Y-125583390D01*
X202861904Y-125583390D02*
X202814285Y-125392914D01*
X202814285Y-125392914D02*
X202766666Y-125297676D01*
X202766666Y-125297676D02*
X202671428Y-125202438D01*
X202671428Y-125202438D02*
X202528571Y-125154819D01*
X202528571Y-125154819D02*
X202433333Y-125154819D01*
X202433333Y-125154819D02*
X202290476Y-125202438D01*
X202290476Y-125202438D02*
X202242857Y-125250057D01*
X201290476Y-126154819D02*
X201861904Y-126154819D01*
X201576190Y-126154819D02*
X201576190Y-125154819D01*
X201576190Y-125154819D02*
X201671428Y-125297676D01*
X201671428Y-125297676D02*
X201766666Y-125392914D01*
X201766666Y-125392914D02*
X201861904Y-125440533D01*
X200433333Y-125488152D02*
X200433333Y-126154819D01*
X200671428Y-125107200D02*
X200909523Y-125821485D01*
X200909523Y-125821485D02*
X200290476Y-125821485D01*
X212909580Y-198682142D02*
X212957200Y-198634523D01*
X212957200Y-198634523D02*
X213004819Y-198491666D01*
X213004819Y-198491666D02*
X213004819Y-198396428D01*
X213004819Y-198396428D02*
X212957200Y-198253571D01*
X212957200Y-198253571D02*
X212861961Y-198158333D01*
X212861961Y-198158333D02*
X212766723Y-198110714D01*
X212766723Y-198110714D02*
X212576247Y-198063095D01*
X212576247Y-198063095D02*
X212433390Y-198063095D01*
X212433390Y-198063095D02*
X212242914Y-198110714D01*
X212242914Y-198110714D02*
X212147676Y-198158333D01*
X212147676Y-198158333D02*
X212052438Y-198253571D01*
X212052438Y-198253571D02*
X212004819Y-198396428D01*
X212004819Y-198396428D02*
X212004819Y-198491666D01*
X212004819Y-198491666D02*
X212052438Y-198634523D01*
X212052438Y-198634523D02*
X212100057Y-198682142D01*
X213004819Y-199634523D02*
X213004819Y-199063095D01*
X213004819Y-199348809D02*
X212004819Y-199348809D01*
X212004819Y-199348809D02*
X212147676Y-199253571D01*
X212147676Y-199253571D02*
X212242914Y-199158333D01*
X212242914Y-199158333D02*
X212290533Y-199063095D01*
X213004819Y-200110714D02*
X213004819Y-200301190D01*
X213004819Y-200301190D02*
X212957200Y-200396428D01*
X212957200Y-200396428D02*
X212909580Y-200444047D01*
X212909580Y-200444047D02*
X212766723Y-200539285D01*
X212766723Y-200539285D02*
X212576247Y-200586904D01*
X212576247Y-200586904D02*
X212195295Y-200586904D01*
X212195295Y-200586904D02*
X212100057Y-200539285D01*
X212100057Y-200539285D02*
X212052438Y-200491666D01*
X212052438Y-200491666D02*
X212004819Y-200396428D01*
X212004819Y-200396428D02*
X212004819Y-200205952D01*
X212004819Y-200205952D02*
X212052438Y-200110714D01*
X212052438Y-200110714D02*
X212100057Y-200063095D01*
X212100057Y-200063095D02*
X212195295Y-200015476D01*
X212195295Y-200015476D02*
X212433390Y-200015476D01*
X212433390Y-200015476D02*
X212528628Y-200063095D01*
X212528628Y-200063095D02*
X212576247Y-200110714D01*
X212576247Y-200110714D02*
X212623866Y-200205952D01*
X212623866Y-200205952D02*
X212623866Y-200396428D01*
X212623866Y-200396428D02*
X212576247Y-200491666D01*
X212576247Y-200491666D02*
X212528628Y-200539285D01*
X212528628Y-200539285D02*
X212433390Y-200586904D01*
X214267857Y-180559580D02*
X214315476Y-180607200D01*
X214315476Y-180607200D02*
X214458333Y-180654819D01*
X214458333Y-180654819D02*
X214553571Y-180654819D01*
X214553571Y-180654819D02*
X214696428Y-180607200D01*
X214696428Y-180607200D02*
X214791666Y-180511961D01*
X214791666Y-180511961D02*
X214839285Y-180416723D01*
X214839285Y-180416723D02*
X214886904Y-180226247D01*
X214886904Y-180226247D02*
X214886904Y-180083390D01*
X214886904Y-180083390D02*
X214839285Y-179892914D01*
X214839285Y-179892914D02*
X214791666Y-179797676D01*
X214791666Y-179797676D02*
X214696428Y-179702438D01*
X214696428Y-179702438D02*
X214553571Y-179654819D01*
X214553571Y-179654819D02*
X214458333Y-179654819D01*
X214458333Y-179654819D02*
X214315476Y-179702438D01*
X214315476Y-179702438D02*
X214267857Y-179750057D01*
X213886904Y-179750057D02*
X213839285Y-179702438D01*
X213839285Y-179702438D02*
X213744047Y-179654819D01*
X213744047Y-179654819D02*
X213505952Y-179654819D01*
X213505952Y-179654819D02*
X213410714Y-179702438D01*
X213410714Y-179702438D02*
X213363095Y-179750057D01*
X213363095Y-179750057D02*
X213315476Y-179845295D01*
X213315476Y-179845295D02*
X213315476Y-179940533D01*
X213315476Y-179940533D02*
X213363095Y-180083390D01*
X213363095Y-180083390D02*
X213934523Y-180654819D01*
X213934523Y-180654819D02*
X213315476Y-180654819D01*
X212410714Y-179654819D02*
X212886904Y-179654819D01*
X212886904Y-179654819D02*
X212934523Y-180131009D01*
X212934523Y-180131009D02*
X212886904Y-180083390D01*
X212886904Y-180083390D02*
X212791666Y-180035771D01*
X212791666Y-180035771D02*
X212553571Y-180035771D01*
X212553571Y-180035771D02*
X212458333Y-180083390D01*
X212458333Y-180083390D02*
X212410714Y-180131009D01*
X212410714Y-180131009D02*
X212363095Y-180226247D01*
X212363095Y-180226247D02*
X212363095Y-180464342D01*
X212363095Y-180464342D02*
X212410714Y-180559580D01*
X212410714Y-180559580D02*
X212458333Y-180607200D01*
X212458333Y-180607200D02*
X212553571Y-180654819D01*
X212553571Y-180654819D02*
X212791666Y-180654819D01*
X212791666Y-180654819D02*
X212886904Y-180607200D01*
X212886904Y-180607200D02*
X212934523Y-180559580D01*
X189518976Y-146945180D02*
X189518976Y-147945180D01*
X189518976Y-147945180D02*
X189852309Y-147230895D01*
X189852309Y-147230895D02*
X190185642Y-147945180D01*
X190185642Y-147945180D02*
X190185642Y-146945180D01*
X190852309Y-147945180D02*
X191042785Y-147945180D01*
X191042785Y-147945180D02*
X191138023Y-147897561D01*
X191138023Y-147897561D02*
X191233261Y-147802323D01*
X191233261Y-147802323D02*
X191280880Y-147611847D01*
X191280880Y-147611847D02*
X191280880Y-147278514D01*
X191280880Y-147278514D02*
X191233261Y-147088038D01*
X191233261Y-147088038D02*
X191138023Y-146992800D01*
X191138023Y-146992800D02*
X191042785Y-146945180D01*
X191042785Y-146945180D02*
X190852309Y-146945180D01*
X190852309Y-146945180D02*
X190757071Y-146992800D01*
X190757071Y-146992800D02*
X190661833Y-147088038D01*
X190661833Y-147088038D02*
X190614214Y-147278514D01*
X190614214Y-147278514D02*
X190614214Y-147611847D01*
X190614214Y-147611847D02*
X190661833Y-147802323D01*
X190661833Y-147802323D02*
X190757071Y-147897561D01*
X190757071Y-147897561D02*
X190852309Y-147945180D01*
X191661833Y-146992800D02*
X191804690Y-146945180D01*
X191804690Y-146945180D02*
X192042785Y-146945180D01*
X192042785Y-146945180D02*
X192138023Y-146992800D01*
X192138023Y-146992800D02*
X192185642Y-147040419D01*
X192185642Y-147040419D02*
X192233261Y-147135657D01*
X192233261Y-147135657D02*
X192233261Y-147230895D01*
X192233261Y-147230895D02*
X192185642Y-147326133D01*
X192185642Y-147326133D02*
X192138023Y-147373752D01*
X192138023Y-147373752D02*
X192042785Y-147421371D01*
X192042785Y-147421371D02*
X191852309Y-147468990D01*
X191852309Y-147468990D02*
X191757071Y-147516609D01*
X191757071Y-147516609D02*
X191709452Y-147564228D01*
X191709452Y-147564228D02*
X191661833Y-147659466D01*
X191661833Y-147659466D02*
X191661833Y-147754704D01*
X191661833Y-147754704D02*
X191709452Y-147849942D01*
X191709452Y-147849942D02*
X191757071Y-147897561D01*
X191757071Y-147897561D02*
X191852309Y-147945180D01*
X191852309Y-147945180D02*
X192090404Y-147945180D01*
X192090404Y-147945180D02*
X192233261Y-147897561D01*
X193185642Y-146945180D02*
X192614214Y-146945180D01*
X192899928Y-146945180D02*
X192899928Y-147945180D01*
X192899928Y-147945180D02*
X192804690Y-147802323D01*
X192804690Y-147802323D02*
X192709452Y-147707085D01*
X192709452Y-147707085D02*
X192614214Y-147659466D01*
X203509580Y-178333333D02*
X203557200Y-178285714D01*
X203557200Y-178285714D02*
X203604819Y-178142857D01*
X203604819Y-178142857D02*
X203604819Y-178047619D01*
X203604819Y-178047619D02*
X203557200Y-177904762D01*
X203557200Y-177904762D02*
X203461961Y-177809524D01*
X203461961Y-177809524D02*
X203366723Y-177761905D01*
X203366723Y-177761905D02*
X203176247Y-177714286D01*
X203176247Y-177714286D02*
X203033390Y-177714286D01*
X203033390Y-177714286D02*
X202842914Y-177761905D01*
X202842914Y-177761905D02*
X202747676Y-177809524D01*
X202747676Y-177809524D02*
X202652438Y-177904762D01*
X202652438Y-177904762D02*
X202604819Y-178047619D01*
X202604819Y-178047619D02*
X202604819Y-178142857D01*
X202604819Y-178142857D02*
X202652438Y-178285714D01*
X202652438Y-178285714D02*
X202700057Y-178333333D01*
X203604819Y-179285714D02*
X203604819Y-178714286D01*
X203604819Y-179000000D02*
X202604819Y-179000000D01*
X202604819Y-179000000D02*
X202747676Y-178904762D01*
X202747676Y-178904762D02*
X202842914Y-178809524D01*
X202842914Y-178809524D02*
X202890533Y-178714286D01*
X192061904Y-152054819D02*
X192061904Y-152864342D01*
X192061904Y-152864342D02*
X192014285Y-152959580D01*
X192014285Y-152959580D02*
X191966666Y-153007200D01*
X191966666Y-153007200D02*
X191871428Y-153054819D01*
X191871428Y-153054819D02*
X191680952Y-153054819D01*
X191680952Y-153054819D02*
X191585714Y-153007200D01*
X191585714Y-153007200D02*
X191538095Y-152959580D01*
X191538095Y-152959580D02*
X191490476Y-152864342D01*
X191490476Y-152864342D02*
X191490476Y-152054819D01*
X190538095Y-152054819D02*
X191014285Y-152054819D01*
X191014285Y-152054819D02*
X191061904Y-152531009D01*
X191061904Y-152531009D02*
X191014285Y-152483390D01*
X191014285Y-152483390D02*
X190919047Y-152435771D01*
X190919047Y-152435771D02*
X190680952Y-152435771D01*
X190680952Y-152435771D02*
X190585714Y-152483390D01*
X190585714Y-152483390D02*
X190538095Y-152531009D01*
X190538095Y-152531009D02*
X190490476Y-152626247D01*
X190490476Y-152626247D02*
X190490476Y-152864342D01*
X190490476Y-152864342D02*
X190538095Y-152959580D01*
X190538095Y-152959580D02*
X190585714Y-153007200D01*
X190585714Y-153007200D02*
X190680952Y-153054819D01*
X190680952Y-153054819D02*
X190919047Y-153054819D01*
X190919047Y-153054819D02*
X191014285Y-153007200D01*
X191014285Y-153007200D02*
X191061904Y-152959580D01*
X192799999Y-150354819D02*
X192799999Y-150592914D01*
X193038094Y-150497676D02*
X192799999Y-150592914D01*
X192799999Y-150592914D02*
X192561904Y-150497676D01*
X192942856Y-150783390D02*
X192799999Y-150592914D01*
X192799999Y-150592914D02*
X192657142Y-150783390D01*
X192799999Y-150354819D02*
X192799999Y-150592914D01*
X193038094Y-150497676D02*
X192799999Y-150592914D01*
X192799999Y-150592914D02*
X192561904Y-150497676D01*
X192942856Y-150783390D02*
X192799999Y-150592914D01*
X192799999Y-150592914D02*
X192657142Y-150783390D01*
X227861904Y-173154819D02*
X227861904Y-173964342D01*
X227861904Y-173964342D02*
X227814285Y-174059580D01*
X227814285Y-174059580D02*
X227766666Y-174107200D01*
X227766666Y-174107200D02*
X227671428Y-174154819D01*
X227671428Y-174154819D02*
X227480952Y-174154819D01*
X227480952Y-174154819D02*
X227385714Y-174107200D01*
X227385714Y-174107200D02*
X227338095Y-174059580D01*
X227338095Y-174059580D02*
X227290476Y-173964342D01*
X227290476Y-173964342D02*
X227290476Y-173154819D01*
X226385714Y-173488152D02*
X226385714Y-174154819D01*
X226623809Y-173107200D02*
X226861904Y-173821485D01*
X226861904Y-173821485D02*
X226242857Y-173821485D01*
X193942857Y-128659580D02*
X193990476Y-128707200D01*
X193990476Y-128707200D02*
X194133333Y-128754819D01*
X194133333Y-128754819D02*
X194228571Y-128754819D01*
X194228571Y-128754819D02*
X194371428Y-128707200D01*
X194371428Y-128707200D02*
X194466666Y-128611961D01*
X194466666Y-128611961D02*
X194514285Y-128516723D01*
X194514285Y-128516723D02*
X194561904Y-128326247D01*
X194561904Y-128326247D02*
X194561904Y-128183390D01*
X194561904Y-128183390D02*
X194514285Y-127992914D01*
X194514285Y-127992914D02*
X194466666Y-127897676D01*
X194466666Y-127897676D02*
X194371428Y-127802438D01*
X194371428Y-127802438D02*
X194228571Y-127754819D01*
X194228571Y-127754819D02*
X194133333Y-127754819D01*
X194133333Y-127754819D02*
X193990476Y-127802438D01*
X193990476Y-127802438D02*
X193942857Y-127850057D01*
X193561904Y-127850057D02*
X193514285Y-127802438D01*
X193514285Y-127802438D02*
X193419047Y-127754819D01*
X193419047Y-127754819D02*
X193180952Y-127754819D01*
X193180952Y-127754819D02*
X193085714Y-127802438D01*
X193085714Y-127802438D02*
X193038095Y-127850057D01*
X193038095Y-127850057D02*
X192990476Y-127945295D01*
X192990476Y-127945295D02*
X192990476Y-128040533D01*
X192990476Y-128040533D02*
X193038095Y-128183390D01*
X193038095Y-128183390D02*
X193609523Y-128754819D01*
X193609523Y-128754819D02*
X192990476Y-128754819D01*
X192038095Y-128754819D02*
X192609523Y-128754819D01*
X192323809Y-128754819D02*
X192323809Y-127754819D01*
X192323809Y-127754819D02*
X192419047Y-127897676D01*
X192419047Y-127897676D02*
X192514285Y-127992914D01*
X192514285Y-127992914D02*
X192609523Y-128040533D01*
X246442857Y-176659580D02*
X246490476Y-176707200D01*
X246490476Y-176707200D02*
X246633333Y-176754819D01*
X246633333Y-176754819D02*
X246728571Y-176754819D01*
X246728571Y-176754819D02*
X246871428Y-176707200D01*
X246871428Y-176707200D02*
X246966666Y-176611961D01*
X246966666Y-176611961D02*
X247014285Y-176516723D01*
X247014285Y-176516723D02*
X247061904Y-176326247D01*
X247061904Y-176326247D02*
X247061904Y-176183390D01*
X247061904Y-176183390D02*
X247014285Y-175992914D01*
X247014285Y-175992914D02*
X246966666Y-175897676D01*
X246966666Y-175897676D02*
X246871428Y-175802438D01*
X246871428Y-175802438D02*
X246728571Y-175754819D01*
X246728571Y-175754819D02*
X246633333Y-175754819D01*
X246633333Y-175754819D02*
X246490476Y-175802438D01*
X246490476Y-175802438D02*
X246442857Y-175850057D01*
X245490476Y-176754819D02*
X246061904Y-176754819D01*
X245776190Y-176754819D02*
X245776190Y-175754819D01*
X245776190Y-175754819D02*
X245871428Y-175897676D01*
X245871428Y-175897676D02*
X245966666Y-175992914D01*
X245966666Y-175992914D02*
X246061904Y-176040533D01*
X244919047Y-176183390D02*
X245014285Y-176135771D01*
X245014285Y-176135771D02*
X245061904Y-176088152D01*
X245061904Y-176088152D02*
X245109523Y-175992914D01*
X245109523Y-175992914D02*
X245109523Y-175945295D01*
X245109523Y-175945295D02*
X245061904Y-175850057D01*
X245061904Y-175850057D02*
X245014285Y-175802438D01*
X245014285Y-175802438D02*
X244919047Y-175754819D01*
X244919047Y-175754819D02*
X244728571Y-175754819D01*
X244728571Y-175754819D02*
X244633333Y-175802438D01*
X244633333Y-175802438D02*
X244585714Y-175850057D01*
X244585714Y-175850057D02*
X244538095Y-175945295D01*
X244538095Y-175945295D02*
X244538095Y-175992914D01*
X244538095Y-175992914D02*
X244585714Y-176088152D01*
X244585714Y-176088152D02*
X244633333Y-176135771D01*
X244633333Y-176135771D02*
X244728571Y-176183390D01*
X244728571Y-176183390D02*
X244919047Y-176183390D01*
X244919047Y-176183390D02*
X245014285Y-176231009D01*
X245014285Y-176231009D02*
X245061904Y-176278628D01*
X245061904Y-176278628D02*
X245109523Y-176373866D01*
X245109523Y-176373866D02*
X245109523Y-176564342D01*
X245109523Y-176564342D02*
X245061904Y-176659580D01*
X245061904Y-176659580D02*
X245014285Y-176707200D01*
X245014285Y-176707200D02*
X244919047Y-176754819D01*
X244919047Y-176754819D02*
X244728571Y-176754819D01*
X244728571Y-176754819D02*
X244633333Y-176707200D01*
X244633333Y-176707200D02*
X244585714Y-176659580D01*
X244585714Y-176659580D02*
X244538095Y-176564342D01*
X244538095Y-176564342D02*
X244538095Y-176373866D01*
X244538095Y-176373866D02*
X244585714Y-176278628D01*
X244585714Y-176278628D02*
X244633333Y-176231009D01*
X244633333Y-176231009D02*
X244728571Y-176183390D01*
X185766666Y-199054819D02*
X186099999Y-198578628D01*
X186338094Y-199054819D02*
X186338094Y-198054819D01*
X186338094Y-198054819D02*
X185957142Y-198054819D01*
X185957142Y-198054819D02*
X185861904Y-198102438D01*
X185861904Y-198102438D02*
X185814285Y-198150057D01*
X185814285Y-198150057D02*
X185766666Y-198245295D01*
X185766666Y-198245295D02*
X185766666Y-198388152D01*
X185766666Y-198388152D02*
X185814285Y-198483390D01*
X185814285Y-198483390D02*
X185861904Y-198531009D01*
X185861904Y-198531009D02*
X185957142Y-198578628D01*
X185957142Y-198578628D02*
X186338094Y-198578628D01*
X185290475Y-199054819D02*
X185099999Y-199054819D01*
X185099999Y-199054819D02*
X185004761Y-199007200D01*
X185004761Y-199007200D02*
X184957142Y-198959580D01*
X184957142Y-198959580D02*
X184861904Y-198816723D01*
X184861904Y-198816723D02*
X184814285Y-198626247D01*
X184814285Y-198626247D02*
X184814285Y-198245295D01*
X184814285Y-198245295D02*
X184861904Y-198150057D01*
X184861904Y-198150057D02*
X184909523Y-198102438D01*
X184909523Y-198102438D02*
X185004761Y-198054819D01*
X185004761Y-198054819D02*
X185195237Y-198054819D01*
X185195237Y-198054819D02*
X185290475Y-198102438D01*
X185290475Y-198102438D02*
X185338094Y-198150057D01*
X185338094Y-198150057D02*
X185385713Y-198245295D01*
X185385713Y-198245295D02*
X185385713Y-198483390D01*
X185385713Y-198483390D02*
X185338094Y-198578628D01*
X185338094Y-198578628D02*
X185290475Y-198626247D01*
X185290475Y-198626247D02*
X185195237Y-198673866D01*
X185195237Y-198673866D02*
X185004761Y-198673866D01*
X185004761Y-198673866D02*
X184909523Y-198626247D01*
X184909523Y-198626247D02*
X184861904Y-198578628D01*
X184861904Y-198578628D02*
X184814285Y-198483390D01*
X209009580Y-177369642D02*
X209057200Y-177322023D01*
X209057200Y-177322023D02*
X209104819Y-177179166D01*
X209104819Y-177179166D02*
X209104819Y-177083928D01*
X209104819Y-177083928D02*
X209057200Y-176941071D01*
X209057200Y-176941071D02*
X208961961Y-176845833D01*
X208961961Y-176845833D02*
X208866723Y-176798214D01*
X208866723Y-176798214D02*
X208676247Y-176750595D01*
X208676247Y-176750595D02*
X208533390Y-176750595D01*
X208533390Y-176750595D02*
X208342914Y-176798214D01*
X208342914Y-176798214D02*
X208247676Y-176845833D01*
X208247676Y-176845833D02*
X208152438Y-176941071D01*
X208152438Y-176941071D02*
X208104819Y-177083928D01*
X208104819Y-177083928D02*
X208104819Y-177179166D01*
X208104819Y-177179166D02*
X208152438Y-177322023D01*
X208152438Y-177322023D02*
X208200057Y-177369642D01*
X209104819Y-178322023D02*
X209104819Y-177750595D01*
X209104819Y-178036309D02*
X208104819Y-178036309D01*
X208104819Y-178036309D02*
X208247676Y-177941071D01*
X208247676Y-177941071D02*
X208342914Y-177845833D01*
X208342914Y-177845833D02*
X208390533Y-177750595D01*
X208104819Y-178941071D02*
X208104819Y-179036309D01*
X208104819Y-179036309D02*
X208152438Y-179131547D01*
X208152438Y-179131547D02*
X208200057Y-179179166D01*
X208200057Y-179179166D02*
X208295295Y-179226785D01*
X208295295Y-179226785D02*
X208485771Y-179274404D01*
X208485771Y-179274404D02*
X208723866Y-179274404D01*
X208723866Y-179274404D02*
X208914342Y-179226785D01*
X208914342Y-179226785D02*
X209009580Y-179179166D01*
X209009580Y-179179166D02*
X209057200Y-179131547D01*
X209057200Y-179131547D02*
X209104819Y-179036309D01*
X209104819Y-179036309D02*
X209104819Y-178941071D01*
X209104819Y-178941071D02*
X209057200Y-178845833D01*
X209057200Y-178845833D02*
X209009580Y-178798214D01*
X209009580Y-178798214D02*
X208914342Y-178750595D01*
X208914342Y-178750595D02*
X208723866Y-178702976D01*
X208723866Y-178702976D02*
X208485771Y-178702976D01*
X208485771Y-178702976D02*
X208295295Y-178750595D01*
X208295295Y-178750595D02*
X208200057Y-178798214D01*
X208200057Y-178798214D02*
X208152438Y-178845833D01*
X208152438Y-178845833D02*
X208104819Y-178941071D01*
X214180357Y-172754819D02*
X214513690Y-172278628D01*
X214751785Y-172754819D02*
X214751785Y-171754819D01*
X214751785Y-171754819D02*
X214370833Y-171754819D01*
X214370833Y-171754819D02*
X214275595Y-171802438D01*
X214275595Y-171802438D02*
X214227976Y-171850057D01*
X214227976Y-171850057D02*
X214180357Y-171945295D01*
X214180357Y-171945295D02*
X214180357Y-172088152D01*
X214180357Y-172088152D02*
X214227976Y-172183390D01*
X214227976Y-172183390D02*
X214275595Y-172231009D01*
X214275595Y-172231009D02*
X214370833Y-172278628D01*
X214370833Y-172278628D02*
X214751785Y-172278628D01*
X213799404Y-171850057D02*
X213751785Y-171802438D01*
X213751785Y-171802438D02*
X213656547Y-171754819D01*
X213656547Y-171754819D02*
X213418452Y-171754819D01*
X213418452Y-171754819D02*
X213323214Y-171802438D01*
X213323214Y-171802438D02*
X213275595Y-171850057D01*
X213275595Y-171850057D02*
X213227976Y-171945295D01*
X213227976Y-171945295D02*
X213227976Y-172040533D01*
X213227976Y-172040533D02*
X213275595Y-172183390D01*
X213275595Y-172183390D02*
X213847023Y-172754819D01*
X213847023Y-172754819D02*
X213227976Y-172754819D01*
X212894642Y-171754819D02*
X212275595Y-171754819D01*
X212275595Y-171754819D02*
X212608928Y-172135771D01*
X212608928Y-172135771D02*
X212466071Y-172135771D01*
X212466071Y-172135771D02*
X212370833Y-172183390D01*
X212370833Y-172183390D02*
X212323214Y-172231009D01*
X212323214Y-172231009D02*
X212275595Y-172326247D01*
X212275595Y-172326247D02*
X212275595Y-172564342D01*
X212275595Y-172564342D02*
X212323214Y-172659580D01*
X212323214Y-172659580D02*
X212370833Y-172707200D01*
X212370833Y-172707200D02*
X212466071Y-172754819D01*
X212466071Y-172754819D02*
X212751785Y-172754819D01*
X212751785Y-172754819D02*
X212847023Y-172707200D01*
X212847023Y-172707200D02*
X212894642Y-172659580D01*
X187652857Y-157204819D02*
X187986190Y-156728628D01*
X188224285Y-157204819D02*
X188224285Y-156204819D01*
X188224285Y-156204819D02*
X187843333Y-156204819D01*
X187843333Y-156204819D02*
X187748095Y-156252438D01*
X187748095Y-156252438D02*
X187700476Y-156300057D01*
X187700476Y-156300057D02*
X187652857Y-156395295D01*
X187652857Y-156395295D02*
X187652857Y-156538152D01*
X187652857Y-156538152D02*
X187700476Y-156633390D01*
X187700476Y-156633390D02*
X187748095Y-156681009D01*
X187748095Y-156681009D02*
X187843333Y-156728628D01*
X187843333Y-156728628D02*
X188224285Y-156728628D01*
X187271904Y-156300057D02*
X187224285Y-156252438D01*
X187224285Y-156252438D02*
X187129047Y-156204819D01*
X187129047Y-156204819D02*
X186890952Y-156204819D01*
X186890952Y-156204819D02*
X186795714Y-156252438D01*
X186795714Y-156252438D02*
X186748095Y-156300057D01*
X186748095Y-156300057D02*
X186700476Y-156395295D01*
X186700476Y-156395295D02*
X186700476Y-156490533D01*
X186700476Y-156490533D02*
X186748095Y-156633390D01*
X186748095Y-156633390D02*
X187319523Y-157204819D01*
X187319523Y-157204819D02*
X186700476Y-157204819D01*
X186081428Y-156204819D02*
X185986190Y-156204819D01*
X185986190Y-156204819D02*
X185890952Y-156252438D01*
X185890952Y-156252438D02*
X185843333Y-156300057D01*
X185843333Y-156300057D02*
X185795714Y-156395295D01*
X185795714Y-156395295D02*
X185748095Y-156585771D01*
X185748095Y-156585771D02*
X185748095Y-156823866D01*
X185748095Y-156823866D02*
X185795714Y-157014342D01*
X185795714Y-157014342D02*
X185843333Y-157109580D01*
X185843333Y-157109580D02*
X185890952Y-157157200D01*
X185890952Y-157157200D02*
X185986190Y-157204819D01*
X185986190Y-157204819D02*
X186081428Y-157204819D01*
X186081428Y-157204819D02*
X186176666Y-157157200D01*
X186176666Y-157157200D02*
X186224285Y-157109580D01*
X186224285Y-157109580D02*
X186271904Y-157014342D01*
X186271904Y-157014342D02*
X186319523Y-156823866D01*
X186319523Y-156823866D02*
X186319523Y-156585771D01*
X186319523Y-156585771D02*
X186271904Y-156395295D01*
X186271904Y-156395295D02*
X186224285Y-156300057D01*
X186224285Y-156300057D02*
X186176666Y-156252438D01*
X186176666Y-156252438D02*
X186081428Y-156204819D01*
X194192857Y-199204819D02*
X194526190Y-198728628D01*
X194764285Y-199204819D02*
X194764285Y-198204819D01*
X194764285Y-198204819D02*
X194383333Y-198204819D01*
X194383333Y-198204819D02*
X194288095Y-198252438D01*
X194288095Y-198252438D02*
X194240476Y-198300057D01*
X194240476Y-198300057D02*
X194192857Y-198395295D01*
X194192857Y-198395295D02*
X194192857Y-198538152D01*
X194192857Y-198538152D02*
X194240476Y-198633390D01*
X194240476Y-198633390D02*
X194288095Y-198681009D01*
X194288095Y-198681009D02*
X194383333Y-198728628D01*
X194383333Y-198728628D02*
X194764285Y-198728628D01*
X193240476Y-199204819D02*
X193811904Y-199204819D01*
X193526190Y-199204819D02*
X193526190Y-198204819D01*
X193526190Y-198204819D02*
X193621428Y-198347676D01*
X193621428Y-198347676D02*
X193716666Y-198442914D01*
X193716666Y-198442914D02*
X193811904Y-198490533D01*
X192907142Y-198204819D02*
X192240476Y-198204819D01*
X192240476Y-198204819D02*
X192669047Y-199204819D01*
X239305357Y-179609580D02*
X239352976Y-179657200D01*
X239352976Y-179657200D02*
X239495833Y-179704819D01*
X239495833Y-179704819D02*
X239591071Y-179704819D01*
X239591071Y-179704819D02*
X239733928Y-179657200D01*
X239733928Y-179657200D02*
X239829166Y-179561961D01*
X239829166Y-179561961D02*
X239876785Y-179466723D01*
X239876785Y-179466723D02*
X239924404Y-179276247D01*
X239924404Y-179276247D02*
X239924404Y-179133390D01*
X239924404Y-179133390D02*
X239876785Y-178942914D01*
X239876785Y-178942914D02*
X239829166Y-178847676D01*
X239829166Y-178847676D02*
X239733928Y-178752438D01*
X239733928Y-178752438D02*
X239591071Y-178704819D01*
X239591071Y-178704819D02*
X239495833Y-178704819D01*
X239495833Y-178704819D02*
X239352976Y-178752438D01*
X239352976Y-178752438D02*
X239305357Y-178800057D01*
X238352976Y-179704819D02*
X238924404Y-179704819D01*
X238638690Y-179704819D02*
X238638690Y-178704819D01*
X238638690Y-178704819D02*
X238733928Y-178847676D01*
X238733928Y-178847676D02*
X238829166Y-178942914D01*
X238829166Y-178942914D02*
X238924404Y-178990533D01*
X237400595Y-179704819D02*
X237972023Y-179704819D01*
X237686309Y-179704819D02*
X237686309Y-178704819D01*
X237686309Y-178704819D02*
X237781547Y-178847676D01*
X237781547Y-178847676D02*
X237876785Y-178942914D01*
X237876785Y-178942914D02*
X237972023Y-178990533D01*
X214180357Y-176154819D02*
X214513690Y-175678628D01*
X214751785Y-176154819D02*
X214751785Y-175154819D01*
X214751785Y-175154819D02*
X214370833Y-175154819D01*
X214370833Y-175154819D02*
X214275595Y-175202438D01*
X214275595Y-175202438D02*
X214227976Y-175250057D01*
X214227976Y-175250057D02*
X214180357Y-175345295D01*
X214180357Y-175345295D02*
X214180357Y-175488152D01*
X214180357Y-175488152D02*
X214227976Y-175583390D01*
X214227976Y-175583390D02*
X214275595Y-175631009D01*
X214275595Y-175631009D02*
X214370833Y-175678628D01*
X214370833Y-175678628D02*
X214751785Y-175678628D01*
X213799404Y-175250057D02*
X213751785Y-175202438D01*
X213751785Y-175202438D02*
X213656547Y-175154819D01*
X213656547Y-175154819D02*
X213418452Y-175154819D01*
X213418452Y-175154819D02*
X213323214Y-175202438D01*
X213323214Y-175202438D02*
X213275595Y-175250057D01*
X213275595Y-175250057D02*
X213227976Y-175345295D01*
X213227976Y-175345295D02*
X213227976Y-175440533D01*
X213227976Y-175440533D02*
X213275595Y-175583390D01*
X213275595Y-175583390D02*
X213847023Y-176154819D01*
X213847023Y-176154819D02*
X213227976Y-176154819D01*
X212847023Y-175250057D02*
X212799404Y-175202438D01*
X212799404Y-175202438D02*
X212704166Y-175154819D01*
X212704166Y-175154819D02*
X212466071Y-175154819D01*
X212466071Y-175154819D02*
X212370833Y-175202438D01*
X212370833Y-175202438D02*
X212323214Y-175250057D01*
X212323214Y-175250057D02*
X212275595Y-175345295D01*
X212275595Y-175345295D02*
X212275595Y-175440533D01*
X212275595Y-175440533D02*
X212323214Y-175583390D01*
X212323214Y-175583390D02*
X212894642Y-176154819D01*
X212894642Y-176154819D02*
X212275595Y-176154819D01*
X202242857Y-128559580D02*
X202290476Y-128607200D01*
X202290476Y-128607200D02*
X202433333Y-128654819D01*
X202433333Y-128654819D02*
X202528571Y-128654819D01*
X202528571Y-128654819D02*
X202671428Y-128607200D01*
X202671428Y-128607200D02*
X202766666Y-128511961D01*
X202766666Y-128511961D02*
X202814285Y-128416723D01*
X202814285Y-128416723D02*
X202861904Y-128226247D01*
X202861904Y-128226247D02*
X202861904Y-128083390D01*
X202861904Y-128083390D02*
X202814285Y-127892914D01*
X202814285Y-127892914D02*
X202766666Y-127797676D01*
X202766666Y-127797676D02*
X202671428Y-127702438D01*
X202671428Y-127702438D02*
X202528571Y-127654819D01*
X202528571Y-127654819D02*
X202433333Y-127654819D01*
X202433333Y-127654819D02*
X202290476Y-127702438D01*
X202290476Y-127702438D02*
X202242857Y-127750057D01*
X201290476Y-128654819D02*
X201861904Y-128654819D01*
X201576190Y-128654819D02*
X201576190Y-127654819D01*
X201576190Y-127654819D02*
X201671428Y-127797676D01*
X201671428Y-127797676D02*
X201766666Y-127892914D01*
X201766666Y-127892914D02*
X201861904Y-127940533D01*
X200385714Y-127654819D02*
X200861904Y-127654819D01*
X200861904Y-127654819D02*
X200909523Y-128131009D01*
X200909523Y-128131009D02*
X200861904Y-128083390D01*
X200861904Y-128083390D02*
X200766666Y-128035771D01*
X200766666Y-128035771D02*
X200528571Y-128035771D01*
X200528571Y-128035771D02*
X200433333Y-128083390D01*
X200433333Y-128083390D02*
X200385714Y-128131009D01*
X200385714Y-128131009D02*
X200338095Y-128226247D01*
X200338095Y-128226247D02*
X200338095Y-128464342D01*
X200338095Y-128464342D02*
X200385714Y-128559580D01*
X200385714Y-128559580D02*
X200433333Y-128607200D01*
X200433333Y-128607200D02*
X200528571Y-128654819D01*
X200528571Y-128654819D02*
X200766666Y-128654819D01*
X200766666Y-128654819D02*
X200861904Y-128607200D01*
X200861904Y-128607200D02*
X200909523Y-128559580D01*
X246342857Y-179559580D02*
X246390476Y-179607200D01*
X246390476Y-179607200D02*
X246533333Y-179654819D01*
X246533333Y-179654819D02*
X246628571Y-179654819D01*
X246628571Y-179654819D02*
X246771428Y-179607200D01*
X246771428Y-179607200D02*
X246866666Y-179511961D01*
X246866666Y-179511961D02*
X246914285Y-179416723D01*
X246914285Y-179416723D02*
X246961904Y-179226247D01*
X246961904Y-179226247D02*
X246961904Y-179083390D01*
X246961904Y-179083390D02*
X246914285Y-178892914D01*
X246914285Y-178892914D02*
X246866666Y-178797676D01*
X246866666Y-178797676D02*
X246771428Y-178702438D01*
X246771428Y-178702438D02*
X246628571Y-178654819D01*
X246628571Y-178654819D02*
X246533333Y-178654819D01*
X246533333Y-178654819D02*
X246390476Y-178702438D01*
X246390476Y-178702438D02*
X246342857Y-178750057D01*
X245390476Y-179654819D02*
X245961904Y-179654819D01*
X245676190Y-179654819D02*
X245676190Y-178654819D01*
X245676190Y-178654819D02*
X245771428Y-178797676D01*
X245771428Y-178797676D02*
X245866666Y-178892914D01*
X245866666Y-178892914D02*
X245961904Y-178940533D01*
X245009523Y-178750057D02*
X244961904Y-178702438D01*
X244961904Y-178702438D02*
X244866666Y-178654819D01*
X244866666Y-178654819D02*
X244628571Y-178654819D01*
X244628571Y-178654819D02*
X244533333Y-178702438D01*
X244533333Y-178702438D02*
X244485714Y-178750057D01*
X244485714Y-178750057D02*
X244438095Y-178845295D01*
X244438095Y-178845295D02*
X244438095Y-178940533D01*
X244438095Y-178940533D02*
X244485714Y-179083390D01*
X244485714Y-179083390D02*
X245057142Y-179654819D01*
X245057142Y-179654819D02*
X244438095Y-179654819D01*
X186454819Y-159107142D02*
X185978628Y-158773809D01*
X186454819Y-158535714D02*
X185454819Y-158535714D01*
X185454819Y-158535714D02*
X185454819Y-158916666D01*
X185454819Y-158916666D02*
X185502438Y-159011904D01*
X185502438Y-159011904D02*
X185550057Y-159059523D01*
X185550057Y-159059523D02*
X185645295Y-159107142D01*
X185645295Y-159107142D02*
X185788152Y-159107142D01*
X185788152Y-159107142D02*
X185883390Y-159059523D01*
X185883390Y-159059523D02*
X185931009Y-159011904D01*
X185931009Y-159011904D02*
X185978628Y-158916666D01*
X185978628Y-158916666D02*
X185978628Y-158535714D01*
X186454819Y-160059523D02*
X186454819Y-159488095D01*
X186454819Y-159773809D02*
X185454819Y-159773809D01*
X185454819Y-159773809D02*
X185597676Y-159678571D01*
X185597676Y-159678571D02*
X185692914Y-159583333D01*
X185692914Y-159583333D02*
X185740533Y-159488095D01*
X186454819Y-160535714D02*
X186454819Y-160726190D01*
X186454819Y-160726190D02*
X186407200Y-160821428D01*
X186407200Y-160821428D02*
X186359580Y-160869047D01*
X186359580Y-160869047D02*
X186216723Y-160964285D01*
X186216723Y-160964285D02*
X186026247Y-161011904D01*
X186026247Y-161011904D02*
X185645295Y-161011904D01*
X185645295Y-161011904D02*
X185550057Y-160964285D01*
X185550057Y-160964285D02*
X185502438Y-160916666D01*
X185502438Y-160916666D02*
X185454819Y-160821428D01*
X185454819Y-160821428D02*
X185454819Y-160630952D01*
X185454819Y-160630952D02*
X185502438Y-160535714D01*
X185502438Y-160535714D02*
X185550057Y-160488095D01*
X185550057Y-160488095D02*
X185645295Y-160440476D01*
X185645295Y-160440476D02*
X185883390Y-160440476D01*
X185883390Y-160440476D02*
X185978628Y-160488095D01*
X185978628Y-160488095D02*
X186026247Y-160535714D01*
X186026247Y-160535714D02*
X186073866Y-160630952D01*
X186073866Y-160630952D02*
X186073866Y-160821428D01*
X186073866Y-160821428D02*
X186026247Y-160916666D01*
X186026247Y-160916666D02*
X185978628Y-160964285D01*
X185978628Y-160964285D02*
X185883390Y-161011904D01*
X206109580Y-178345833D02*
X206157200Y-178298214D01*
X206157200Y-178298214D02*
X206204819Y-178155357D01*
X206204819Y-178155357D02*
X206204819Y-178060119D01*
X206204819Y-178060119D02*
X206157200Y-177917262D01*
X206157200Y-177917262D02*
X206061961Y-177822024D01*
X206061961Y-177822024D02*
X205966723Y-177774405D01*
X205966723Y-177774405D02*
X205776247Y-177726786D01*
X205776247Y-177726786D02*
X205633390Y-177726786D01*
X205633390Y-177726786D02*
X205442914Y-177774405D01*
X205442914Y-177774405D02*
X205347676Y-177822024D01*
X205347676Y-177822024D02*
X205252438Y-177917262D01*
X205252438Y-177917262D02*
X205204819Y-178060119D01*
X205204819Y-178060119D02*
X205204819Y-178155357D01*
X205204819Y-178155357D02*
X205252438Y-178298214D01*
X205252438Y-178298214D02*
X205300057Y-178345833D01*
X206204819Y-178822024D02*
X206204819Y-179012500D01*
X206204819Y-179012500D02*
X206157200Y-179107738D01*
X206157200Y-179107738D02*
X206109580Y-179155357D01*
X206109580Y-179155357D02*
X205966723Y-179250595D01*
X205966723Y-179250595D02*
X205776247Y-179298214D01*
X205776247Y-179298214D02*
X205395295Y-179298214D01*
X205395295Y-179298214D02*
X205300057Y-179250595D01*
X205300057Y-179250595D02*
X205252438Y-179202976D01*
X205252438Y-179202976D02*
X205204819Y-179107738D01*
X205204819Y-179107738D02*
X205204819Y-178917262D01*
X205204819Y-178917262D02*
X205252438Y-178822024D01*
X205252438Y-178822024D02*
X205300057Y-178774405D01*
X205300057Y-178774405D02*
X205395295Y-178726786D01*
X205395295Y-178726786D02*
X205633390Y-178726786D01*
X205633390Y-178726786D02*
X205728628Y-178774405D01*
X205728628Y-178774405D02*
X205776247Y-178822024D01*
X205776247Y-178822024D02*
X205823866Y-178917262D01*
X205823866Y-178917262D02*
X205823866Y-179107738D01*
X205823866Y-179107738D02*
X205776247Y-179202976D01*
X205776247Y-179202976D02*
X205728628Y-179250595D01*
X205728628Y-179250595D02*
X205633390Y-179298214D01*
D12*
X209940000Y-181488748D02*
X209940000Y-182911252D01*
X211760000Y-181488748D02*
X211760000Y-182911252D01*
X235311252Y-175090000D02*
X233888748Y-175090000D01*
X235311252Y-176910000D02*
X233888748Y-176910000D01*
X226497936Y-178590000D02*
X227702064Y-178590000D01*
X226497936Y-180410000D02*
X227702064Y-180410000D01*
X196140000Y-196252064D02*
X196140000Y-194797936D01*
X197960000Y-196252064D02*
X197960000Y-194797936D01*
X188077064Y-149090000D02*
X186622936Y-149090000D01*
X188077064Y-150910000D02*
X186622936Y-150910000D01*
X188488748Y-124490000D02*
X189911252Y-124490000D01*
X188488748Y-126310000D02*
X189911252Y-126310000D01*
X176690000Y-194772936D02*
X176690000Y-196227064D01*
X178510000Y-194772936D02*
X178510000Y-196227064D01*
X193840000Y-188890000D02*
X193840000Y-189540000D01*
X193840000Y-190190000D02*
X193840000Y-189540000D01*
X196960000Y-188890000D02*
X196960000Y-189540000D01*
X196960000Y-190190000D02*
X196960000Y-189540000D01*
X197240000Y-190942500D02*
X196910000Y-190702500D01*
X197240000Y-190462500D01*
X197240000Y-190942500D01*
G36*
X197240000Y-190942500D02*
G01*
X196910000Y-190702500D01*
X197240000Y-190462500D01*
X197240000Y-190942500D01*
G37*
X180690000Y-194747936D02*
X180690000Y-196202064D01*
X182510000Y-194747936D02*
X182510000Y-196202064D01*
X188690000Y-194772936D02*
X188690000Y-196227064D01*
X190510000Y-194772936D02*
X190510000Y-196227064D01*
D13*
X190461800Y-158306500D02*
X192138200Y-158306500D01*
X192138200Y-155893500D02*
X190461800Y-155893500D01*
D12*
X196788748Y-124690000D02*
X198211252Y-124690000D01*
X196788748Y-126510000D02*
X198211252Y-126510000D01*
D14*
G36*
X187456954Y-172668963D02*
G01*
X187473831Y-172687449D01*
X187470304Y-172697035D01*
X187442576Y-172708286D01*
X187428197Y-172705935D01*
X187411320Y-172687449D01*
X187414847Y-172677864D01*
X187442576Y-172666612D01*
X187456954Y-172668963D01*
G37*
G36*
X187645505Y-172563034D02*
G01*
X187661361Y-172583265D01*
X187660756Y-172588246D01*
X187640525Y-172604102D01*
X187635544Y-172603497D01*
X187619688Y-172583265D01*
X187620293Y-172578285D01*
X187640525Y-172562429D01*
X187645505Y-172563034D01*
G37*
G36*
X189439725Y-172411945D02*
G01*
X189441804Y-172439188D01*
X189437111Y-172444647D01*
X189409869Y-172446727D01*
X189404409Y-172442034D01*
X189402330Y-172414792D01*
X189407022Y-172409332D01*
X189434265Y-172407253D01*
X189439725Y-172411945D01*
G37*
G36*
X189562486Y-172333830D02*
G01*
X189578343Y-172354061D01*
X189577737Y-172359042D01*
X189557506Y-172374898D01*
X189552525Y-172374292D01*
X189536669Y-172354061D01*
X189537275Y-172349081D01*
X189557506Y-172333224D01*
X189562486Y-172333830D01*
G37*
G36*
X187691128Y-172761866D02*
G01*
X187710937Y-172783942D01*
X187721617Y-172816448D01*
X187698868Y-172849976D01*
X187666122Y-172870332D01*
X187616818Y-172869111D01*
X187578789Y-172834753D01*
X187568657Y-172799575D01*
X187589962Y-172761825D01*
X187615201Y-172740091D01*
X187650899Y-172732638D01*
X187691128Y-172761866D01*
G37*
G36*
X189650776Y-172509220D02*
G01*
X189679348Y-172541675D01*
X189674456Y-172595079D01*
X189656174Y-172615175D01*
X189604507Y-172621125D01*
X189591578Y-172619282D01*
X189556224Y-172602469D01*
X189547087Y-172562429D01*
X189547480Y-172550654D01*
X189561530Y-172516964D01*
X189604507Y-172503732D01*
X189650776Y-172509220D01*
G37*
G36*
X195132300Y-168963160D02*
G01*
X195191020Y-169000928D01*
X195232206Y-169068383D01*
X195235076Y-169094093D01*
X195220523Y-169150932D01*
X195188351Y-169207970D01*
X195146965Y-169247546D01*
X195108245Y-169259990D01*
X195044950Y-169246126D01*
X194980270Y-169194447D01*
X194941542Y-169135786D01*
X194939711Y-169077523D01*
X194976573Y-169012572D01*
X195003230Y-168985630D01*
X195066289Y-168957315D01*
X195132300Y-168963160D01*
G37*
G36*
X193718268Y-169095771D02*
G01*
X193779843Y-169139876D01*
X193797073Y-169159797D01*
X193822320Y-169208670D01*
X193821472Y-169267113D01*
X193821150Y-169269019D01*
X193802015Y-169325802D01*
X193772689Y-169365542D01*
X193744901Y-169382659D01*
X193677957Y-169394956D01*
X193615830Y-169369063D01*
X193566114Y-169307126D01*
X193555949Y-169284475D01*
X193544062Y-169211690D01*
X193561833Y-169150571D01*
X193601780Y-169106974D01*
X193656419Y-169086755D01*
X193718268Y-169095771D01*
G37*
G36*
X195464170Y-168457128D02*
G01*
X195482067Y-168480282D01*
X195491776Y-168527919D01*
X195489430Y-168538990D01*
X195479466Y-168557068D01*
X195457429Y-168574021D01*
X195417682Y-168592229D01*
X195354588Y-168614070D01*
X195262511Y-168641925D01*
X195135814Y-168678172D01*
X195083144Y-168693951D01*
X194991118Y-168725579D01*
X194914153Y-168756970D01*
X194864936Y-168783205D01*
X194822316Y-168812536D01*
X194789134Y-168827962D01*
X194765185Y-168820944D01*
X194736790Y-168792470D01*
X194711832Y-168742424D01*
X194727143Y-168690470D01*
X194783328Y-168638067D01*
X194879990Y-168585583D01*
X195016735Y-168533383D01*
X195071491Y-168515648D01*
X195220078Y-168472921D01*
X195336004Y-168448764D01*
X195417842Y-168443418D01*
X195464170Y-168457128D01*
G37*
G36*
X193385357Y-168542257D02*
G01*
X193437277Y-168551671D01*
X193515822Y-168568371D01*
X193611918Y-168590262D01*
X193716491Y-168615253D01*
X193820468Y-168641249D01*
X193914775Y-168666156D01*
X193973249Y-168686650D01*
X194041510Y-168726605D01*
X194081789Y-168772725D01*
X194087430Y-168819117D01*
X194074850Y-168848211D01*
X194050227Y-168879214D01*
X194046000Y-168882029D01*
X194029705Y-168891275D01*
X194011735Y-168891195D01*
X193979926Y-168879319D01*
X193922116Y-168853173D01*
X193900036Y-168844107D01*
X193824884Y-168819353D01*
X193730320Y-168793646D01*
X193631602Y-168771286D01*
X193569861Y-168757462D01*
X193465049Y-168726600D01*
X193382178Y-168692209D01*
X193327713Y-168657220D01*
X193308121Y-168624568D01*
X193309955Y-168604801D01*
X193332387Y-168559203D01*
X193372026Y-168540936D01*
X193385357Y-168542257D01*
G37*
G36*
X195849980Y-178448540D02*
G01*
X195851082Y-178449906D01*
X195865618Y-178501851D01*
X195846128Y-178576181D01*
X195792916Y-178671712D01*
X195754170Y-178747572D01*
X195727700Y-178869479D01*
X195736817Y-178995494D01*
X195781794Y-179114766D01*
X195814276Y-179165069D01*
X195878405Y-179239647D01*
X195949430Y-179300474D01*
X196018106Y-179340104D01*
X196075188Y-179351090D01*
X196087048Y-179349283D01*
X196127900Y-179334221D01*
X196160435Y-179302750D01*
X196186627Y-179249822D01*
X196208446Y-179170391D01*
X196227866Y-179059409D01*
X196246860Y-178911830D01*
X196257129Y-178828019D01*
X196277586Y-178691938D01*
X196299312Y-178593059D01*
X196323624Y-178528415D01*
X196351839Y-178495041D01*
X196385275Y-178489969D01*
X196425251Y-178510233D01*
X196449684Y-178548664D01*
X196466254Y-178622590D01*
X196473143Y-178724542D01*
X196469928Y-178848022D01*
X196456188Y-178986532D01*
X196433303Y-179122938D01*
X196390266Y-179285619D01*
X196335075Y-179417060D01*
X196269176Y-179514030D01*
X196194011Y-179573298D01*
X196133564Y-179594660D01*
X196066885Y-179604776D01*
X196036568Y-179602574D01*
X195944149Y-179573913D01*
X195845222Y-179517535D01*
X195748884Y-179440334D01*
X195664230Y-179349209D01*
X195600356Y-179251054D01*
X195568919Y-179173619D01*
X195539302Y-179057604D01*
X195524264Y-178939332D01*
X195527177Y-178837834D01*
X195528592Y-178828732D01*
X195555657Y-178712516D01*
X195595317Y-178609324D01*
X195643783Y-178523720D01*
X195697270Y-178460274D01*
X195751989Y-178423550D01*
X195804155Y-178418116D01*
X195849980Y-178448540D01*
G37*
G36*
X192905855Y-178571231D02*
G01*
X192938195Y-178599877D01*
X192942350Y-178604845D01*
X192955822Y-178630630D01*
X192961599Y-178669461D01*
X192960280Y-178730741D01*
X192952464Y-178823872D01*
X192949211Y-178855459D01*
X192937573Y-178948732D01*
X192924704Y-179029881D01*
X192912844Y-179084194D01*
X192904123Y-179119103D01*
X192892839Y-179209693D01*
X192895786Y-179294400D01*
X192912956Y-179356579D01*
X192915221Y-179360587D01*
X192954892Y-179392678D01*
X193013146Y-179389505D01*
X193088515Y-179352189D01*
X193179532Y-179281851D01*
X193284731Y-179179611D01*
X193402644Y-179046590D01*
X193531804Y-178883907D01*
X193569520Y-178835984D01*
X193652299Y-178743820D01*
X193727371Y-178677940D01*
X193790538Y-178641714D01*
X193837601Y-178638512D01*
X193845489Y-178642210D01*
X193882717Y-178685242D01*
X193906015Y-178761763D01*
X193915238Y-178866792D01*
X193910241Y-178995348D01*
X193890877Y-179142450D01*
X193857002Y-179303118D01*
X193854085Y-179314404D01*
X193828714Y-179392812D01*
X193796252Y-179470962D01*
X193761638Y-179538993D01*
X193729810Y-179587043D01*
X193705707Y-179605251D01*
X193700879Y-179602494D01*
X193680730Y-179573607D01*
X193654467Y-179523711D01*
X193628173Y-179465847D01*
X193607934Y-179413054D01*
X193599836Y-179378373D01*
X193595883Y-179354121D01*
X193577398Y-179308177D01*
X193552155Y-179268146D01*
X193529535Y-179251026D01*
X193513383Y-179260251D01*
X193472942Y-179294330D01*
X193416385Y-179347642D01*
X193350558Y-179413956D01*
X193302984Y-179461247D01*
X193225687Y-179530959D01*
X193154310Y-179587664D01*
X193099754Y-179622307D01*
X193032877Y-179650397D01*
X192939204Y-179668355D01*
X192862586Y-179649714D01*
X192798840Y-179593001D01*
X192743786Y-179496739D01*
X192715202Y-179420210D01*
X192699251Y-179335906D01*
X192694996Y-179230189D01*
X192698847Y-179149473D01*
X192712675Y-179038868D01*
X192734499Y-178924757D01*
X192762157Y-178814620D01*
X192793485Y-178715937D01*
X192826318Y-178636188D01*
X192858495Y-178582853D01*
X192887850Y-178563413D01*
X192905855Y-178571231D01*
G37*
G36*
X199132702Y-178596931D02*
G01*
X199116199Y-178706667D01*
X199104967Y-178815531D01*
X199100854Y-178912852D01*
X199100863Y-178918717D01*
X199104646Y-179036570D01*
X199118474Y-179125672D01*
X199147036Y-179198112D01*
X199195023Y-179265976D01*
X199267125Y-179341350D01*
X199286778Y-179360761D01*
X199340700Y-179418093D01*
X199378318Y-179464338D01*
X199392452Y-179490928D01*
X199377325Y-179530706D01*
X199332714Y-179571066D01*
X199271184Y-179596624D01*
X199229289Y-179606643D01*
X199194503Y-179616747D01*
X199155783Y-179620265D01*
X199088502Y-179615753D01*
X199005618Y-179604734D01*
X198919696Y-179588884D01*
X198843301Y-179569882D01*
X198721328Y-179527546D01*
X198536469Y-179435693D01*
X198379282Y-179320566D01*
X198252413Y-179185221D01*
X198158507Y-179032714D01*
X198100210Y-178866100D01*
X198089557Y-178771670D01*
X198311200Y-178771670D01*
X198339107Y-178886989D01*
X198374263Y-178953023D01*
X198445413Y-179048812D01*
X198532503Y-179139252D01*
X198623317Y-179210443D01*
X198646766Y-179224785D01*
X198732805Y-179262875D01*
X198801826Y-179268662D01*
X198849873Y-179241600D01*
X198853459Y-179235327D01*
X198866549Y-179191905D01*
X198882016Y-179118438D01*
X198898602Y-179023520D01*
X198915050Y-178915744D01*
X198930101Y-178803703D01*
X198942500Y-178695991D01*
X198950987Y-178601202D01*
X198954307Y-178527929D01*
X198952304Y-178466002D01*
X198935373Y-178380686D01*
X198897889Y-178325524D01*
X198835830Y-178297942D01*
X198745178Y-178295368D01*
X198621910Y-178315229D01*
X198588859Y-178324029D01*
X198511656Y-178355085D01*
X198451225Y-178392505D01*
X198411922Y-178431892D01*
X198350309Y-178532205D01*
X198315834Y-178649437D01*
X198311200Y-178771670D01*
X198089557Y-178771670D01*
X198080166Y-178688434D01*
X198085345Y-178618377D01*
X198124616Y-178484078D01*
X198198721Y-178359417D01*
X198303194Y-178248673D01*
X198433572Y-178156123D01*
X198585389Y-178086043D01*
X198754182Y-178042711D01*
X198869002Y-178028286D01*
X199011353Y-178021447D01*
X199143718Y-178026589D01*
X199258417Y-178042959D01*
X199347775Y-178069807D01*
X199404115Y-178106379D01*
X199424796Y-178137719D01*
X199423736Y-178176878D01*
X199388914Y-178219495D01*
X199317573Y-178270807D01*
X199280135Y-178296039D01*
X199226740Y-178337572D01*
X199194977Y-178369724D01*
X199174123Y-178417526D01*
X199152627Y-178496994D01*
X199146459Y-178527929D01*
X199132702Y-178596931D01*
G37*
G36*
X190538954Y-178065691D02*
G01*
X190652498Y-178074990D01*
X190772994Y-178090100D01*
X190890730Y-178109375D01*
X190995995Y-178131171D01*
X191079079Y-178153843D01*
X191130270Y-178175748D01*
X191147472Y-178187352D01*
X191183872Y-178218524D01*
X191199057Y-178251848D01*
X191192472Y-178295402D01*
X191163565Y-178357264D01*
X191111781Y-178445512D01*
X191097763Y-178469727D01*
X191085295Y-178497454D01*
X191076108Y-178530911D01*
X191069630Y-178576088D01*
X191065287Y-178638977D01*
X191062506Y-178725568D01*
X191060714Y-178841850D01*
X191059339Y-178993815D01*
X191059087Y-179024282D01*
X191057041Y-179185558D01*
X191053402Y-179311070D01*
X191047197Y-179405888D01*
X191037454Y-179475081D01*
X191023200Y-179523720D01*
X191003464Y-179556873D01*
X190977273Y-179579610D01*
X190943655Y-179597000D01*
X190920193Y-179606846D01*
X190882066Y-179618884D01*
X190842377Y-179622488D01*
X190791459Y-179617057D01*
X190719640Y-179601990D01*
X190617252Y-179576683D01*
X190567940Y-179564750D01*
X190446008Y-179538125D01*
X190314025Y-179512238D01*
X190193027Y-179491321D01*
X190075006Y-179470994D01*
X189969632Y-179446973D01*
X189894549Y-179420712D01*
X189843627Y-179389988D01*
X189810738Y-179352576D01*
X189797639Y-179319430D01*
X189811286Y-179279971D01*
X189864103Y-179249530D01*
X189957006Y-179227322D01*
X190037452Y-179218846D01*
X190160153Y-179219665D01*
X190308229Y-179234514D01*
X190488440Y-179263857D01*
X190504637Y-179266763D01*
X190596139Y-179280208D01*
X190679523Y-179288109D01*
X190738481Y-179288838D01*
X190741556Y-179288581D01*
X190793630Y-179279711D01*
X190820353Y-179256151D01*
X190837316Y-179204615D01*
X190839221Y-179196397D01*
X190842395Y-179110762D01*
X190813864Y-179043341D01*
X190756481Y-179001313D01*
X190742864Y-178996877D01*
X190686159Y-178982626D01*
X190606266Y-178965702D01*
X190515914Y-178948879D01*
X190478373Y-178942090D01*
X190390826Y-178924186D01*
X190319024Y-178906730D01*
X190275685Y-178892696D01*
X190258700Y-178882957D01*
X190227890Y-178839689D01*
X190231101Y-178784542D01*
X190268744Y-178727318D01*
X190277177Y-178719151D01*
X190299484Y-178702624D01*
X190328299Y-178693140D01*
X190372383Y-178689734D01*
X190440496Y-178691440D01*
X190541400Y-178697295D01*
X190610900Y-178701116D01*
X190711192Y-178702241D01*
X190781799Y-178693670D01*
X190830208Y-178673011D01*
X190863909Y-178637873D01*
X190890389Y-178585864D01*
X190890414Y-178585804D01*
X190902396Y-178524146D01*
X190893729Y-178462799D01*
X190868608Y-178415288D01*
X190831229Y-178395139D01*
X190737200Y-178390566D01*
X190588223Y-178382035D01*
X190473164Y-178373132D01*
X190386951Y-178363207D01*
X190324511Y-178351610D01*
X190280770Y-178337692D01*
X190250656Y-178320804D01*
X190226647Y-178300792D01*
X190190692Y-178246370D01*
X190195861Y-178188804D01*
X190242049Y-178125705D01*
X190259972Y-178108307D01*
X190292330Y-178083545D01*
X190329523Y-178070083D01*
X190383825Y-178064535D01*
X190467511Y-178063516D01*
X190538954Y-178065691D01*
G37*
G36*
X196100469Y-171015242D02*
G01*
X196052745Y-171180911D01*
X195968976Y-171337278D01*
X195850205Y-171478918D01*
X195750058Y-171565964D01*
X195568256Y-171687324D01*
X195361952Y-171788718D01*
X195140324Y-171865882D01*
X194912551Y-171914553D01*
X194906021Y-171915499D01*
X194822513Y-171927613D01*
X194750230Y-171938121D01*
X194704183Y-171944841D01*
X194699770Y-171945476D01*
X194548815Y-171955962D01*
X194371776Y-171950581D01*
X194180037Y-171930858D01*
X193984984Y-171898321D01*
X193798002Y-171854495D01*
X193630477Y-171800907D01*
X193457570Y-171727346D01*
X193242024Y-171605993D01*
X193060019Y-171464855D01*
X192913246Y-171305307D01*
X192803401Y-171128727D01*
X192778751Y-171076979D01*
X192759259Y-171027408D01*
X193037593Y-171027408D01*
X193042639Y-171047007D01*
X193065539Y-171082665D01*
X193103884Y-171127698D01*
X193170525Y-171197621D01*
X193186030Y-171114274D01*
X193187759Y-171104649D01*
X193198044Y-171031668D01*
X193203056Y-170968417D01*
X193210790Y-170907770D01*
X193234292Y-170867869D01*
X193271582Y-170865089D01*
X193282675Y-170872897D01*
X193297948Y-170904233D01*
X193309629Y-170963887D01*
X193319370Y-171058535D01*
X193321908Y-171086429D01*
X193333205Y-171174362D01*
X193347294Y-171247928D01*
X193361719Y-171293503D01*
X193388437Y-171334223D01*
X193437894Y-171388143D01*
X193496119Y-171437947D01*
X193554014Y-171476864D01*
X193602480Y-171498123D01*
X193632419Y-171494953D01*
X193633364Y-171492275D01*
X193632994Y-171459673D01*
X193627290Y-171399160D01*
X193617167Y-171321147D01*
X193611348Y-171273004D01*
X193605079Y-171169803D01*
X193605716Y-171066834D01*
X193612510Y-170972361D01*
X193624712Y-170894648D01*
X193641574Y-170841959D01*
X193662346Y-170822560D01*
X193664351Y-170822737D01*
X193678095Y-170834928D01*
X193692213Y-170869640D01*
X193707928Y-170931578D01*
X193726464Y-171025445D01*
X193749045Y-171155948D01*
X193769483Y-171277633D01*
X193790216Y-171393219D01*
X193808361Y-171477530D01*
X193826120Y-171535996D01*
X193845697Y-171574045D01*
X193869296Y-171597107D01*
X193899119Y-171610612D01*
X193937371Y-171619988D01*
X193961495Y-171624396D01*
X194015187Y-171628820D01*
X194045035Y-171623173D01*
X194047470Y-171618956D01*
X194050977Y-171581750D01*
X194047707Y-171516657D01*
X194038035Y-171433784D01*
X194037664Y-171431190D01*
X194026212Y-171322772D01*
X194019865Y-171205336D01*
X194019989Y-171103856D01*
X194021358Y-171074939D01*
X194026422Y-171005869D01*
X194034765Y-170966575D01*
X194049349Y-170947984D01*
X194073135Y-170941018D01*
X194086067Y-170939467D01*
X194103811Y-170941424D01*
X194117045Y-170954500D01*
X194127543Y-170984760D01*
X194137079Y-171038269D01*
X194147427Y-171121092D01*
X194160359Y-171239295D01*
X194177340Y-171378210D01*
X194198188Y-171500570D01*
X194221459Y-171587397D01*
X194248058Y-171641962D01*
X194278891Y-171667535D01*
X194290470Y-171671387D01*
X194338808Y-171673871D01*
X194358878Y-171646453D01*
X194348244Y-171591791D01*
X194332917Y-171530814D01*
X194323010Y-171435435D01*
X194320665Y-171324734D01*
X194325671Y-171212255D01*
X194337816Y-171111541D01*
X194356891Y-171036137D01*
X194382947Y-170978558D01*
X194408356Y-170943053D01*
X194426450Y-170940390D01*
X194433484Y-170973626D01*
X194434082Y-170990770D01*
X194437883Y-171049774D01*
X194444425Y-171134640D01*
X194452815Y-171235123D01*
X194462161Y-171340976D01*
X194471570Y-171441955D01*
X194480152Y-171527815D01*
X194487013Y-171588310D01*
X194499726Y-171687285D01*
X194604453Y-171687285D01*
X194709180Y-171687285D01*
X194694211Y-171447716D01*
X194690365Y-171369323D01*
X194687960Y-171257359D01*
X194689085Y-171156948D01*
X194693759Y-171083073D01*
X194698740Y-171043943D01*
X194709717Y-170990154D01*
X194724999Y-170964527D01*
X194748557Y-170957999D01*
X194755917Y-170958015D01*
X194772556Y-170959992D01*
X194785613Y-170969254D01*
X194796735Y-170991452D01*
X194807569Y-171032238D01*
X194819762Y-171097264D01*
X194834961Y-171192182D01*
X194854813Y-171322642D01*
X194859041Y-171350489D01*
X194876681Y-171462875D01*
X194890779Y-171541457D01*
X194903144Y-171592432D01*
X194915587Y-171622000D01*
X194929916Y-171636359D01*
X194947940Y-171641711D01*
X194984389Y-171640744D01*
X195039294Y-171623853D01*
X195054355Y-171614834D01*
X195070459Y-171596830D01*
X195077985Y-171566142D01*
X195078647Y-171513155D01*
X195074158Y-171428251D01*
X195071277Y-171322739D01*
X195075037Y-171217967D01*
X195084538Y-171125468D01*
X195098771Y-171055011D01*
X195116725Y-171016368D01*
X195129258Y-171009270D01*
X195167094Y-171010704D01*
X195171469Y-171013068D01*
X195186669Y-171035542D01*
X195200321Y-171083372D01*
X195213666Y-171161978D01*
X195227943Y-171276782D01*
X195228682Y-171283340D01*
X195241569Y-171389833D01*
X195252882Y-171461829D01*
X195264327Y-171506022D01*
X195277610Y-171529105D01*
X195294435Y-171537772D01*
X195329429Y-171533315D01*
X195374116Y-171507316D01*
X195377683Y-171504006D01*
X195397341Y-171478945D01*
X195408061Y-171443925D01*
X195411684Y-171388421D01*
X195410051Y-171301909D01*
X195409465Y-171281385D01*
X195409584Y-171202052D01*
X195413333Y-171140501D01*
X195420093Y-171108643D01*
X195439908Y-171086712D01*
X195470667Y-171089080D01*
X195503231Y-171132979D01*
X195537653Y-171218458D01*
X195538353Y-171220555D01*
X195563218Y-171287807D01*
X195585424Y-171335668D01*
X195600239Y-171353897D01*
X195601289Y-171353868D01*
X195635350Y-171334629D01*
X195678794Y-171286008D01*
X195726290Y-171217184D01*
X195772508Y-171137335D01*
X195812120Y-171055639D01*
X195839795Y-170981275D01*
X195850205Y-170923420D01*
X195848899Y-170906992D01*
X195836893Y-170902791D01*
X195803322Y-170924683D01*
X195732118Y-170974026D01*
X195663416Y-171013601D01*
X195621152Y-171027029D01*
X195606951Y-171014464D01*
X195622438Y-170976060D01*
X195669238Y-170911971D01*
X195697488Y-170875380D01*
X195739789Y-170812373D01*
X195765903Y-170762559D01*
X195775676Y-170717528D01*
X195769944Y-170638006D01*
X195742661Y-170563066D01*
X195698541Y-170510352D01*
X195684771Y-170500986D01*
X195659845Y-170491375D01*
X195641499Y-170507810D01*
X195618784Y-170556646D01*
X195576192Y-170634057D01*
X195530001Y-170675968D01*
X195483447Y-170678775D01*
X195460222Y-170656186D01*
X195462217Y-170608724D01*
X195482399Y-170505997D01*
X195491874Y-170415571D01*
X195485871Y-170352803D01*
X195464436Y-170311740D01*
X195425939Y-170277688D01*
X195387324Y-170270300D01*
X195359887Y-170302963D01*
X195343445Y-170375776D01*
X195341166Y-170391246D01*
X195320617Y-170467989D01*
X195287276Y-170550424D01*
X195247013Y-170627059D01*
X195205698Y-170686400D01*
X195169201Y-170716955D01*
X195137509Y-170723104D01*
X195115609Y-170704119D01*
X195116493Y-170652805D01*
X195139871Y-170567695D01*
X195148339Y-170542129D01*
X195186564Y-170406740D01*
X195202147Y-170302043D01*
X195194826Y-170224185D01*
X195164340Y-170169313D01*
X195110428Y-170133574D01*
X195100307Y-170129417D01*
X195050593Y-170111122D01*
X195021066Y-170103692D01*
X195016900Y-170107658D01*
X195005581Y-170142281D01*
X194993201Y-170204855D01*
X194981779Y-170286013D01*
X194974112Y-170343514D01*
X194951978Y-170459141D01*
X194924944Y-170547801D01*
X194894728Y-170604591D01*
X194863050Y-170624611D01*
X194846472Y-170621549D01*
X194833429Y-170607012D01*
X194826181Y-170574953D01*
X194824160Y-170519370D01*
X194826794Y-170434263D01*
X194833514Y-170313631D01*
X194834608Y-170295465D01*
X194839604Y-170185013D01*
X194837170Y-170108844D01*
X194824248Y-170060626D01*
X194797786Y-170034025D01*
X194754725Y-170022710D01*
X194692012Y-170020345D01*
X194684696Y-170020381D01*
X194629155Y-170026214D01*
X194597219Y-170047947D01*
X194582602Y-170094081D01*
X194579015Y-170173116D01*
X194577565Y-170226253D01*
X194572687Y-170312185D01*
X194565583Y-170400616D01*
X194559803Y-170454315D01*
X194549814Y-170508245D01*
X194535850Y-170534415D01*
X194514869Y-170541264D01*
X194490247Y-170539120D01*
X194473353Y-170527259D01*
X194462289Y-170497715D01*
X194454132Y-170442527D01*
X194445954Y-170353733D01*
X194439716Y-170280087D01*
X194429621Y-170166314D01*
X194420759Y-170085503D01*
X194411513Y-170032019D01*
X194400267Y-170000228D01*
X194385406Y-169984496D01*
X194365312Y-169979189D01*
X194338369Y-169978671D01*
X194334420Y-169978709D01*
X194283537Y-169986124D01*
X194254346Y-170002497D01*
X194249146Y-170028765D01*
X194245086Y-170088621D01*
X194242959Y-170172261D01*
X194243151Y-170270447D01*
X194243836Y-170344172D01*
X194242550Y-170430784D01*
X194237685Y-170487703D01*
X194228458Y-170522219D01*
X194214090Y-170541621D01*
X194205094Y-170548055D01*
X194170493Y-170550368D01*
X194141976Y-170514168D01*
X194120300Y-170441752D01*
X194106224Y-170335416D01*
X194100506Y-170197457D01*
X194098449Y-170118862D01*
X194090252Y-170053288D01*
X194072309Y-170017605D01*
X194040877Y-170005337D01*
X193992216Y-170010007D01*
X193983618Y-170011622D01*
X193930961Y-170023117D01*
X193897623Y-170038738D01*
X193881693Y-170065761D01*
X193881262Y-170111464D01*
X193894419Y-170183125D01*
X193919255Y-170288020D01*
X193937903Y-170368104D01*
X193957051Y-170458465D01*
X193970085Y-170529928D01*
X193974897Y-170571756D01*
X193974084Y-170583260D01*
X193957026Y-170623554D01*
X193927238Y-170645041D01*
X193897201Y-170637207D01*
X193896272Y-170635994D01*
X193883148Y-170607049D01*
X193860226Y-170547632D01*
X193830461Y-170465640D01*
X193796809Y-170368965D01*
X193759240Y-170261918D01*
X193730133Y-170187681D01*
X193706794Y-170141252D01*
X193686154Y-170116536D01*
X193665145Y-170107440D01*
X193636780Y-170107963D01*
X193613135Y-170128124D01*
X193605946Y-170174480D01*
X193614785Y-170251239D01*
X193639224Y-170362605D01*
X193645046Y-170386364D01*
X193671591Y-170502443D01*
X193685972Y-170584871D01*
X193688516Y-170638842D01*
X193679550Y-170669549D01*
X193659404Y-170682186D01*
X193643295Y-170677103D01*
X193610878Y-170641842D01*
X193573255Y-170580770D01*
X193534859Y-170502350D01*
X193500126Y-170415050D01*
X193473490Y-170327333D01*
X193453920Y-170260326D01*
X193431455Y-170222212D01*
X193401958Y-170216311D01*
X193359297Y-170237815D01*
X193349347Y-170244618D01*
X193323443Y-170269352D01*
X193312301Y-170301099D01*
X193316239Y-170347720D01*
X193335576Y-170417079D01*
X193370631Y-170517039D01*
X193377963Y-170537423D01*
X193414428Y-170653215D01*
X193430833Y-170734907D01*
X193428511Y-170781533D01*
X193408795Y-170792130D01*
X193373021Y-170765731D01*
X193322521Y-170701371D01*
X193258629Y-170598085D01*
X193227120Y-170544822D01*
X193184620Y-170479600D01*
X193151252Y-170436279D01*
X193132329Y-170422253D01*
X193127966Y-170424503D01*
X193102203Y-170452873D01*
X193072738Y-170500831D01*
X193059413Y-170530643D01*
X193045944Y-170594782D01*
X193051157Y-170670948D01*
X193076035Y-170767004D01*
X193121564Y-170890814D01*
X193129231Y-170910344D01*
X193154682Y-170982229D01*
X193169808Y-171036977D01*
X193171553Y-171064009D01*
X193161918Y-171074967D01*
X193124721Y-171079576D01*
X193075348Y-171048535D01*
X193052810Y-171030552D01*
X193037593Y-171027408D01*
X192759259Y-171027408D01*
X192755237Y-171017178D01*
X192742090Y-170959386D01*
X192736364Y-170889050D01*
X192735110Y-170791621D01*
X192735253Y-170754737D01*
X192738201Y-170664431D01*
X192746887Y-170596842D01*
X192763832Y-170537739D01*
X192791557Y-170472894D01*
X192796709Y-170462199D01*
X192873748Y-170339485D01*
X192980578Y-170216224D01*
X193107699Y-170102163D01*
X193245611Y-170007050D01*
X193271144Y-169992524D01*
X193416537Y-169922475D01*
X193587275Y-169856868D01*
X193769833Y-169800479D01*
X193950684Y-169758084D01*
X194089398Y-169737839D01*
X194320835Y-169727595D01*
X194563638Y-169741704D01*
X194809352Y-169778391D01*
X195049525Y-169835880D01*
X195275703Y-169912395D01*
X195479431Y-170006163D01*
X195652256Y-170115407D01*
X195711191Y-170163622D01*
X195806353Y-170254435D01*
X195897998Y-170355311D01*
X195975993Y-170454824D01*
X196030204Y-170541548D01*
X196083619Y-170677697D01*
X196111108Y-170845696D01*
X196106231Y-170923420D01*
X196100469Y-171015242D01*
G37*
G36*
X189950770Y-172557854D02*
G01*
X189926046Y-172646215D01*
X189869948Y-172745167D01*
X189786492Y-172870143D01*
X189852565Y-173054883D01*
X189867901Y-173096617D01*
X189899790Y-173176897D01*
X189927795Y-173239438D01*
X189947204Y-173273364D01*
X189964442Y-173286764D01*
X190016992Y-173310318D01*
X190084399Y-173328963D01*
X190130174Y-173339103D01*
X190274451Y-173382360D01*
X190407109Y-173438127D01*
X190513122Y-173500395D01*
X190573140Y-173552491D01*
X190633259Y-173620361D01*
X190688045Y-173696010D01*
X190733951Y-173772795D01*
X190767429Y-173844076D01*
X190784933Y-173903213D01*
X190782914Y-173943565D01*
X190757827Y-173958491D01*
X190740795Y-173949856D01*
X190699632Y-173915548D01*
X190643628Y-173861170D01*
X190579818Y-173793252D01*
X190536827Y-173747269D01*
X190462619Y-173674358D01*
X190393818Y-173613821D01*
X190341123Y-173575425D01*
X190289580Y-173549241D01*
X190215988Y-173519079D01*
X190137685Y-173492228D01*
X190065409Y-173471998D01*
X190009899Y-173461700D01*
X189981893Y-173464648D01*
X189981600Y-173464969D01*
X189979454Y-173492964D01*
X189988374Y-173548853D01*
X190005498Y-173621650D01*
X190027966Y-173700369D01*
X190052915Y-173774023D01*
X190077484Y-173831628D01*
X190083167Y-173842493D01*
X190102732Y-173875507D01*
X190128417Y-173911002D01*
X190164245Y-173953340D01*
X190214239Y-174006885D01*
X190282421Y-174075999D01*
X190372814Y-174165044D01*
X190489442Y-174278384D01*
X190701435Y-174483675D01*
X190916058Y-174460945D01*
X191135320Y-174441868D01*
X191395902Y-174432940D01*
X191633112Y-174442672D01*
X191855034Y-174471477D01*
X192069751Y-174519766D01*
X192096003Y-174527839D01*
X192186600Y-174555699D01*
X192308220Y-174605215D01*
X192422966Y-174667876D01*
X192536856Y-174747975D01*
X192655909Y-174849805D01*
X192786144Y-174977657D01*
X192933577Y-175135824D01*
X192967498Y-175173166D01*
X193072664Y-175285757D01*
X193168844Y-175381659D01*
X193261978Y-175464941D01*
X193358007Y-175539670D01*
X193462871Y-175609915D01*
X193582512Y-175679744D01*
X193722870Y-175753226D01*
X193889886Y-175834428D01*
X194089499Y-175927418D01*
X194092666Y-175928866D01*
X194172510Y-175961941D01*
X194282721Y-176003196D01*
X194414067Y-176049567D01*
X194557314Y-176097991D01*
X194703230Y-176145404D01*
X194842582Y-176188745D01*
X194966137Y-176224949D01*
X195064662Y-176250952D01*
X195091288Y-176257220D01*
X195230322Y-176284141D01*
X195346825Y-176292739D01*
X195454075Y-176281882D01*
X195565351Y-176250438D01*
X195693929Y-176197272D01*
X195988466Y-176067349D01*
X196337261Y-175925459D01*
X196680424Y-175800414D01*
X197029781Y-175688214D01*
X197397155Y-175584855D01*
X197794369Y-175486337D01*
X197956992Y-175448256D01*
X197861678Y-175344104D01*
X197784228Y-175254712D01*
X197707538Y-175147518D01*
X197653581Y-175040134D01*
X197618562Y-174922359D01*
X197598682Y-174783997D01*
X197590145Y-174614849D01*
X197589840Y-174601447D01*
X197586527Y-174503695D01*
X197580458Y-174418569D01*
X197569899Y-174338703D01*
X197553118Y-174256734D01*
X197528382Y-174165297D01*
X197493958Y-174057029D01*
X197448114Y-173924565D01*
X197389115Y-173760542D01*
X197298359Y-173510501D01*
X197304672Y-173239623D01*
X197307239Y-173130267D01*
X197310154Y-173007644D01*
X197312826Y-172896717D01*
X197314895Y-172812470D01*
X197315036Y-172806632D01*
X197314510Y-172721703D01*
X197305756Y-172654322D01*
X197284915Y-172586417D01*
X197248125Y-172499918D01*
X197206107Y-172403723D01*
X197172334Y-172315179D01*
X197147515Y-172230637D01*
X197129873Y-172140964D01*
X197117631Y-172037022D01*
X197109014Y-171909678D01*
X197102244Y-171749795D01*
X197098558Y-171654549D01*
X197091287Y-171521548D01*
X197080810Y-171418721D01*
X197064880Y-171338831D01*
X197041250Y-171274638D01*
X197007672Y-171218904D01*
X196961897Y-171164390D01*
X196901679Y-171103856D01*
X196855088Y-171056691D01*
X196809364Y-171005607D01*
X196783579Y-170970696D01*
X196775403Y-170961507D01*
X196761676Y-170965323D01*
X196741402Y-170989962D01*
X196711816Y-171039663D01*
X196670155Y-171118661D01*
X196613654Y-171231196D01*
X196606907Y-171244744D01*
X196501816Y-171443727D01*
X196390720Y-171633756D01*
X196278521Y-171807224D01*
X196170123Y-171956520D01*
X196070432Y-172074037D01*
X196061678Y-172083244D01*
X196009461Y-172136047D01*
X195969220Y-172173276D01*
X195949057Y-172187367D01*
X195944681Y-172188677D01*
X195911982Y-172205914D01*
X195856689Y-172238954D01*
X195787868Y-172282450D01*
X195698469Y-172337968D01*
X195527345Y-172428977D01*
X195349897Y-172500905D01*
X195148533Y-172561428D01*
X195021674Y-172593480D01*
X194867198Y-172627397D01*
X194729148Y-172649523D01*
X194594250Y-172661368D01*
X194449232Y-172664444D01*
X194280823Y-172660263D01*
X194144310Y-172653602D01*
X194030903Y-172644288D01*
X193932381Y-172630629D01*
X193835125Y-172610723D01*
X193725512Y-172582666D01*
X193483672Y-172505450D01*
X193248462Y-172402634D01*
X193028427Y-172273875D01*
X192815314Y-172114302D01*
X192600869Y-171919044D01*
X192454712Y-171767115D01*
X192320356Y-171604057D01*
X192217629Y-171445235D01*
X192143299Y-171283431D01*
X192094133Y-171111429D01*
X192066898Y-170922010D01*
X192058362Y-170707958D01*
X192278133Y-170707958D01*
X192280048Y-170811504D01*
X192297688Y-170997591D01*
X192336971Y-171161519D01*
X192401771Y-171313552D01*
X192495963Y-171463958D01*
X192623421Y-171623003D01*
X192837517Y-171841276D01*
X193081621Y-172034780D01*
X193344654Y-172191758D01*
X193625032Y-172311412D01*
X193921172Y-172392941D01*
X194231491Y-172435546D01*
X194355771Y-172441952D01*
X194655271Y-172433922D01*
X194937073Y-172390757D01*
X195205356Y-172311926D01*
X195384201Y-172241293D01*
X195542098Y-172167055D01*
X195682183Y-172085443D01*
X195808303Y-171992429D01*
X195924304Y-171883983D01*
X196034033Y-171756076D01*
X196141336Y-171604679D01*
X196250060Y-171425763D01*
X196364051Y-171215298D01*
X196487155Y-170969255D01*
X196548722Y-170844010D01*
X196605438Y-170732805D01*
X196649980Y-170651613D01*
X196684872Y-170596126D01*
X196712640Y-170562037D01*
X196735808Y-170545036D01*
X196752367Y-170538356D01*
X196813223Y-170533051D01*
X196862945Y-170564676D01*
X196902914Y-170634616D01*
X196934509Y-170744254D01*
X196939599Y-170765856D01*
X196957297Y-170815923D01*
X196986604Y-170864351D01*
X197034143Y-170920791D01*
X197106536Y-170994892D01*
X197151701Y-171038672D01*
X197218318Y-171096349D01*
X197281155Y-171136747D01*
X197349293Y-171162924D01*
X197431814Y-171177936D01*
X197537799Y-171184841D01*
X197676328Y-171186694D01*
X197935329Y-171171377D01*
X198231389Y-171119881D01*
X198545607Y-171032314D01*
X198876987Y-170908907D01*
X198924473Y-170889657D01*
X199033925Y-170850906D01*
X199109148Y-170834450D01*
X199150804Y-170840193D01*
X199159552Y-170868038D01*
X199155068Y-170876440D01*
X199119376Y-170906579D01*
X199053691Y-170947550D01*
X198964300Y-170996276D01*
X198857493Y-171049680D01*
X198739558Y-171104686D01*
X198616784Y-171158216D01*
X198495458Y-171207195D01*
X198381870Y-171248544D01*
X198235010Y-171297620D01*
X198114946Y-171335242D01*
X198014649Y-171362535D01*
X197924368Y-171381547D01*
X197834353Y-171394326D01*
X197734854Y-171402920D01*
X197616119Y-171409376D01*
X197329614Y-171422591D01*
X197329730Y-171737260D01*
X197330038Y-171822290D01*
X197332750Y-171942837D01*
X197340064Y-172039466D01*
X197354121Y-172123415D01*
X197377061Y-172205921D01*
X197411024Y-172298224D01*
X197458151Y-172411561D01*
X197496326Y-172509520D01*
X197542173Y-172681563D01*
X197555723Y-172848149D01*
X197538502Y-173020837D01*
X197537181Y-173028234D01*
X197517571Y-173142819D01*
X197506274Y-173228841D01*
X197503543Y-173297981D01*
X197509629Y-173361920D01*
X197524783Y-173432339D01*
X197549256Y-173520919D01*
X197559170Y-173554647D01*
X197594046Y-173665732D01*
X197631286Y-173775601D01*
X197664353Y-173864726D01*
X197695786Y-173948770D01*
X197726495Y-174040599D01*
X197747676Y-174114767D01*
X197757539Y-174152362D01*
X197775359Y-174207751D01*
X197789598Y-174237488D01*
X197802653Y-174236634D01*
X197842721Y-174215106D01*
X197901769Y-174174161D01*
X197972605Y-174118475D01*
X198067554Y-174041738D01*
X198441558Y-173772566D01*
X198834559Y-173540485D01*
X199246576Y-173345485D01*
X199677631Y-173187552D01*
X199679014Y-173187115D01*
X199816038Y-173145823D01*
X199916611Y-173120337D01*
X199982703Y-173110357D01*
X200016282Y-173115586D01*
X200019314Y-173135725D01*
X200013067Y-173141249D01*
X199974837Y-173161937D01*
X199908129Y-173192792D01*
X199819918Y-173230659D01*
X199717181Y-173272381D01*
X199665555Y-173292989D01*
X199400452Y-173406007D01*
X199163920Y-173521395D01*
X198947569Y-173644681D01*
X198743011Y-173781395D01*
X198541856Y-173937063D01*
X198335716Y-174117214D01*
X198116201Y-174327376D01*
X197808859Y-174632049D01*
X197808859Y-174739932D01*
X197815845Y-174812973D01*
X197859747Y-174945240D01*
X197943922Y-175087609D01*
X198068303Y-175239951D01*
X198202269Y-175385808D01*
X198740060Y-175386669D01*
X198831613Y-175386941D01*
X198994141Y-175388386D01*
X199124588Y-175391300D01*
X199229425Y-175396028D01*
X199315120Y-175402911D01*
X199388143Y-175412292D01*
X199454963Y-175424513D01*
X199459137Y-175425387D01*
X199589859Y-175454282D01*
X199729488Y-175487687D01*
X199869751Y-175523375D01*
X200002377Y-175559119D01*
X200119096Y-175592692D01*
X200211635Y-175621866D01*
X200271723Y-175644416D01*
X200281664Y-175648894D01*
X200349759Y-175679681D01*
X200436289Y-175718929D01*
X200525009Y-175759273D01*
X200556599Y-175773618D01*
X200624778Y-175804253D01*
X200672760Y-175825341D01*
X200691703Y-175832972D01*
X200697964Y-175829288D01*
X200732187Y-175808042D01*
X200789293Y-175772175D01*
X200861443Y-175726598D01*
X200897211Y-175704240D01*
X201121263Y-175577476D01*
X201355765Y-175468414D01*
X201608413Y-175374127D01*
X201886905Y-175291690D01*
X202198940Y-175218177D01*
X202225122Y-175206774D01*
X202245526Y-175174224D01*
X202259199Y-175110904D01*
X202259625Y-175107981D01*
X202265922Y-175019906D01*
X202265535Y-174904520D01*
X202259330Y-174774936D01*
X202248169Y-174644266D01*
X202232919Y-174525622D01*
X202214444Y-174432118D01*
X202187608Y-174344489D01*
X202143665Y-174230297D01*
X202092359Y-174117739D01*
X202039645Y-174019711D01*
X201991478Y-173949114D01*
X201940148Y-173887646D01*
X201619581Y-173983208D01*
X201378567Y-174057634D01*
X201057188Y-174166903D01*
X200763215Y-174280449D01*
X200488210Y-174401831D01*
X200223736Y-174534604D01*
X199961355Y-174682326D01*
X199883445Y-174726923D01*
X199808440Y-174764031D01*
X199759862Y-174778230D01*
X199733673Y-174770542D01*
X199725840Y-174741989D01*
X199741412Y-174716476D01*
X199788761Y-174673297D01*
X199862789Y-174616765D01*
X199958339Y-174550172D01*
X200070253Y-174476809D01*
X200193373Y-174399968D01*
X200322541Y-174322941D01*
X200452598Y-174249019D01*
X200578387Y-174181495D01*
X200694749Y-174123659D01*
X200814574Y-174067546D01*
X200980628Y-173991210D01*
X201138917Y-173920010D01*
X201283491Y-173856546D01*
X201408399Y-173803420D01*
X201507692Y-173763235D01*
X201575419Y-173738592D01*
X201619887Y-173723079D01*
X201671873Y-173700842D01*
X201696977Y-173684275D01*
X201697742Y-173682637D01*
X201688396Y-173656672D01*
X201654972Y-173622743D01*
X201640323Y-173610265D01*
X201572553Y-173526222D01*
X201510556Y-173404959D01*
X201456235Y-173250041D01*
X201445225Y-173215027D01*
X201378551Y-173055427D01*
X201285946Y-172890788D01*
X201174997Y-172735005D01*
X201150911Y-172702977D01*
X201080943Y-172575524D01*
X201034390Y-172422974D01*
X201009290Y-172239459D01*
X201007475Y-172217604D01*
X200992240Y-172100668D01*
X200969366Y-171988027D01*
X200941409Y-171889005D01*
X200910921Y-171812928D01*
X200880457Y-171769119D01*
X200880387Y-171769061D01*
X200846635Y-171759674D01*
X200779762Y-171754930D01*
X200687991Y-171754548D01*
X200579542Y-171758249D01*
X200462637Y-171765753D01*
X200345496Y-171776780D01*
X200236341Y-171791049D01*
X200111850Y-171813090D01*
X199903168Y-171859428D01*
X199681317Y-171918025D01*
X199459969Y-171984920D01*
X199252797Y-172056156D01*
X199073471Y-172127773D01*
X198997568Y-172157836D01*
X198915643Y-172180540D01*
X198861957Y-172183698D01*
X198839023Y-172169528D01*
X198849356Y-172140245D01*
X198895467Y-172098067D01*
X198979871Y-172045211D01*
X199217853Y-171925031D01*
X199494560Y-171806710D01*
X199783659Y-171702393D01*
X200074367Y-171615611D01*
X200355898Y-171549897D01*
X200617470Y-171508785D01*
X200748558Y-171494177D01*
X200735529Y-171407290D01*
X200732850Y-171376513D01*
X200740000Y-171272474D01*
X200767284Y-171133992D01*
X200790077Y-171025134D01*
X200811549Y-170813049D01*
X200797404Y-170612262D01*
X200746636Y-170414259D01*
X200658240Y-170210528D01*
X200627675Y-170150995D01*
X200580931Y-170059913D01*
X200540625Y-169981334D01*
X200513059Y-169927542D01*
X200510241Y-169921803D01*
X200485665Y-169856575D01*
X200461076Y-169769404D01*
X200441403Y-169677501D01*
X200407879Y-169497689D01*
X200372051Y-169332968D01*
X200336509Y-169200812D01*
X200299962Y-169096471D01*
X200261117Y-169015196D01*
X200249770Y-168995733D01*
X200196413Y-168913327D01*
X200134150Y-168827563D01*
X200070656Y-168748161D01*
X200013606Y-168684842D01*
X199970672Y-168647325D01*
X199950460Y-168636880D01*
X199937150Y-168645917D01*
X199934208Y-168688818D01*
X199924289Y-168787655D01*
X199889610Y-168924017D01*
X199833941Y-169073226D01*
X199761371Y-169225828D01*
X199675990Y-169372368D01*
X199581887Y-169503390D01*
X199528263Y-169566506D01*
X199451999Y-169648833D01*
X199371506Y-169729384D01*
X199293156Y-169802274D01*
X199223322Y-169861623D01*
X199168379Y-169901546D01*
X199134699Y-169916161D01*
X199104311Y-169910541D01*
X199095058Y-169889181D01*
X199113374Y-169849183D01*
X199160621Y-169787724D01*
X199238162Y-169701985D01*
X199277973Y-169659069D01*
X199421130Y-169488910D01*
X199531584Y-169325803D01*
X199613580Y-169161591D01*
X199671364Y-168988117D01*
X199709184Y-168797227D01*
X199720540Y-168693396D01*
X199720253Y-168557990D01*
X199698449Y-168427454D01*
X199652853Y-168289983D01*
X199581186Y-168133771D01*
X199452170Y-167911241D01*
X199274558Y-167679751D01*
X199068491Y-167477913D01*
X198835865Y-167307305D01*
X198578577Y-167169504D01*
X198298523Y-167066090D01*
X198200561Y-167038040D01*
X198090956Y-167009104D01*
X198006833Y-166989961D01*
X197952903Y-166981655D01*
X197933880Y-166985231D01*
X197937786Y-166997329D01*
X197954753Y-167041311D01*
X197982074Y-167109155D01*
X198016367Y-167192366D01*
X198054092Y-167289541D01*
X198113736Y-167467702D01*
X198168813Y-167660045D01*
X198214647Y-167849754D01*
X198246561Y-168020017D01*
X198255822Y-168095315D01*
X198263221Y-168200984D01*
X198265289Y-168305564D01*
X198262334Y-168400974D01*
X198254662Y-168479130D01*
X198242580Y-168531951D01*
X198226395Y-168551354D01*
X198223662Y-168551090D01*
X198208773Y-168537116D01*
X198195577Y-168497947D01*
X198182699Y-168428115D01*
X198168764Y-168322150D01*
X198150002Y-168198291D01*
X198102565Y-167986218D01*
X198037362Y-167767708D01*
X197958569Y-167554787D01*
X197870361Y-167359477D01*
X197776914Y-167193802D01*
X197759740Y-167167192D01*
X197694643Y-167067457D01*
X197645258Y-166995079D01*
X197606359Y-166943540D01*
X197572722Y-166906318D01*
X197539118Y-166876896D01*
X197500324Y-166848753D01*
X197459374Y-166821869D01*
X197271325Y-166723394D01*
X197056229Y-166644348D01*
X196822864Y-166586549D01*
X196580006Y-166551817D01*
X196336433Y-166541968D01*
X196100923Y-166558823D01*
X196050166Y-166566324D01*
X195937522Y-166586530D01*
X195817526Y-166611888D01*
X195697072Y-166640531D01*
X195583057Y-166670592D01*
X195482375Y-166700204D01*
X195401922Y-166727502D01*
X195348594Y-166750619D01*
X195329286Y-166767689D01*
X195343178Y-166780420D01*
X195386532Y-166803815D01*
X195449097Y-166831328D01*
X195564650Y-166882184D01*
X195709855Y-166954468D01*
X195863134Y-167037826D01*
X196015192Y-167126800D01*
X196156738Y-167215932D01*
X196278479Y-167299765D01*
X196371124Y-167372842D01*
X196398564Y-167397383D01*
X196425617Y-167427049D01*
X196426656Y-167446567D01*
X196405587Y-167466551D01*
X196399060Y-167471295D01*
X196375762Y-167480680D01*
X196345790Y-167475729D01*
X196299806Y-167453521D01*
X196228475Y-167411133D01*
X196164828Y-167373687D01*
X196011272Y-167293087D01*
X195841065Y-167214547D01*
X195661747Y-167140745D01*
X195480853Y-167074358D01*
X195305921Y-167018064D01*
X195144488Y-166974539D01*
X195004092Y-166946460D01*
X194892269Y-166936506D01*
X194867003Y-166937086D01*
X194732437Y-166954079D01*
X194576287Y-166992060D01*
X194408113Y-167047577D01*
X194237476Y-167117181D01*
X194073934Y-167197421D01*
X193927049Y-167284847D01*
X193900379Y-167303075D01*
X193773227Y-167401213D01*
X193637003Y-167521521D01*
X193502576Y-167653457D01*
X193380813Y-167786477D01*
X193282583Y-167910038D01*
X193186696Y-168051120D01*
X193044264Y-168288508D01*
X192907365Y-168548698D01*
X192778222Y-168825495D01*
X192659059Y-169112708D01*
X192552098Y-169404145D01*
X192459562Y-169693614D01*
X192383675Y-169974922D01*
X192326659Y-170241876D01*
X192290737Y-170488286D01*
X192278133Y-170707958D01*
X192058362Y-170707958D01*
X192060055Y-170614098D01*
X192085388Y-170322632D01*
X192140406Y-170009012D01*
X192224231Y-169677594D01*
X192335983Y-169332732D01*
X192379513Y-169212341D01*
X192426874Y-169085606D01*
X192471802Y-168971941D01*
X192518566Y-168861305D01*
X192571437Y-168743659D01*
X192634683Y-168608961D01*
X192712575Y-168447170D01*
X192856737Y-168168071D01*
X193011275Y-167909994D01*
X193173097Y-167682782D01*
X193346547Y-167480905D01*
X193535965Y-167298832D01*
X193745693Y-167131031D01*
X193778024Y-167107703D01*
X193926338Y-167011673D01*
X194082883Y-166929543D01*
X194256019Y-166857755D01*
X194454106Y-166792750D01*
X194685505Y-166730969D01*
X194779388Y-166706310D01*
X194913983Y-166666685D01*
X195044660Y-166624108D01*
X195152990Y-166584358D01*
X195363009Y-166504889D01*
X195587432Y-166433381D01*
X195799559Y-166383055D01*
X196010706Y-166351806D01*
X196232184Y-166337526D01*
X196475307Y-166338109D01*
X196650405Y-166346270D01*
X196850810Y-166367012D01*
X197029245Y-166401753D01*
X197196297Y-166453278D01*
X197362553Y-166524372D01*
X197538602Y-166617819D01*
X197559236Y-166629475D01*
X197627913Y-166665059D01*
X197696157Y-166693512D01*
X197774365Y-166718253D01*
X197872935Y-166742702D01*
X198002264Y-166770277D01*
X198259044Y-166830036D01*
X198517278Y-166909723D01*
X198746881Y-167005096D01*
X198954146Y-167119223D01*
X199145367Y-167255173D01*
X199326834Y-167416012D01*
X199348623Y-167437555D01*
X199504533Y-167611808D01*
X199644219Y-167807642D01*
X199774938Y-168035086D01*
X199827909Y-168134956D01*
X199875060Y-168216459D01*
X199920215Y-168281460D01*
X199971864Y-168340773D01*
X200038492Y-168405210D01*
X200128589Y-168485583D01*
X200133712Y-168490125D01*
X200216369Y-168572103D01*
X200300861Y-168668910D01*
X200369660Y-168760551D01*
X200404808Y-168814760D01*
X200460159Y-168910634D01*
X200506265Y-169008954D01*
X200545804Y-169117524D01*
X200581454Y-169244147D01*
X200615892Y-169396629D01*
X200651797Y-169582773D01*
X200661688Y-169631765D01*
X200684787Y-169718198D01*
X200717803Y-169810278D01*
X200764535Y-169918060D01*
X200828778Y-170051600D01*
X200896271Y-170195934D01*
X200974600Y-170400945D01*
X201022586Y-170590644D01*
X201041279Y-170771884D01*
X201031730Y-170951517D01*
X200994989Y-171136396D01*
X200980829Y-171194043D01*
X200962496Y-171309801D01*
X200966534Y-171407344D01*
X200994393Y-171499440D01*
X201047523Y-171598857D01*
X201075713Y-171647115D01*
X201147711Y-171806418D01*
X201197642Y-171985906D01*
X201228245Y-172194601D01*
X201232564Y-172237437D01*
X201247194Y-172347376D01*
X201267715Y-172433273D01*
X201299288Y-172508446D01*
X201347072Y-172586215D01*
X201416225Y-172679899D01*
X201518195Y-172830371D01*
X201622234Y-173032357D01*
X201695699Y-173238172D01*
X201709185Y-173285057D01*
X201724263Y-173324954D01*
X201745303Y-173361902D01*
X201777266Y-173402113D01*
X201825115Y-173451795D01*
X201893810Y-173517160D01*
X201988315Y-173604418D01*
X201988594Y-173604675D01*
X202121378Y-173745805D01*
X202232621Y-173907573D01*
X202329321Y-174100151D01*
X202336918Y-174117914D01*
X202384723Y-174247115D01*
X202420034Y-174381610D01*
X202444375Y-174530368D01*
X202459267Y-174702362D01*
X202466235Y-174906563D01*
X202467396Y-174977503D01*
X202468162Y-175019906D01*
X202469342Y-175085289D01*
X202471183Y-175174661D01*
X202472752Y-175237868D01*
X202473886Y-175267158D01*
X202475280Y-175271177D01*
X202497568Y-175302139D01*
X202542701Y-175354251D01*
X202605166Y-175421342D01*
X202679450Y-175497242D01*
X202704043Y-175522015D01*
X202822882Y-175650575D01*
X202911346Y-175765704D01*
X202973714Y-175874646D01*
X203014268Y-175984649D01*
X203037288Y-176102957D01*
X203045190Y-176183115D01*
X203049352Y-176266896D01*
X203049062Y-176280209D01*
X203048010Y-176328549D01*
X203044210Y-176369910D01*
X203037575Y-176450583D01*
X203031296Y-176535048D01*
X203022360Y-176663286D01*
X203337964Y-176738531D01*
X203407274Y-176754704D01*
X203570608Y-176790786D01*
X203751838Y-176828608D01*
X203942604Y-176866595D01*
X204134545Y-176903172D01*
X204319301Y-176936765D01*
X204488513Y-176965799D01*
X204633818Y-176988699D01*
X204746858Y-177003891D01*
X204826951Y-177013183D01*
X204969135Y-177030503D01*
X205076836Y-177045373D01*
X205154812Y-177058865D01*
X205207824Y-177072048D01*
X205240629Y-177085996D01*
X205257987Y-177101779D01*
X205264656Y-177120468D01*
X205271315Y-177167351D01*
X204941687Y-177166971D01*
X204753554Y-177163102D01*
X204496725Y-177146284D01*
X204216160Y-177115153D01*
X204118036Y-177102523D01*
X203960238Y-177082602D01*
X203801806Y-177062998D01*
X203656721Y-177045436D01*
X203538966Y-177031641D01*
X203489101Y-177025063D01*
X203368762Y-177005205D01*
X203219236Y-176976888D01*
X203047701Y-176941750D01*
X202861337Y-176901430D01*
X202667322Y-176857567D01*
X202472835Y-176811798D01*
X202285055Y-176765763D01*
X202111160Y-176721099D01*
X201958329Y-176679446D01*
X201833742Y-176642442D01*
X201829649Y-176641130D01*
X201754699Y-176613327D01*
X201649203Y-176569249D01*
X201519170Y-176511611D01*
X201370610Y-176443130D01*
X201209532Y-176366523D01*
X201041945Y-176284506D01*
X201032914Y-176280023D01*
X200795122Y-176162767D01*
X200589460Y-176063227D01*
X200411438Y-175979592D01*
X200256563Y-175910048D01*
X200172346Y-175874643D01*
X200767678Y-175874643D01*
X200775730Y-175883141D01*
X200815157Y-175908209D01*
X200881554Y-175945137D01*
X200968345Y-175990666D01*
X201068954Y-176041535D01*
X201176802Y-176094486D01*
X201285314Y-176146258D01*
X201387911Y-176193592D01*
X201478018Y-176233228D01*
X201549056Y-176261906D01*
X201618794Y-176287528D01*
X201778983Y-176343759D01*
X201934593Y-176395047D01*
X202077106Y-176438735D01*
X202198001Y-176472165D01*
X202288761Y-176492680D01*
X202296468Y-176494148D01*
X202357388Y-176507864D01*
X202439879Y-176528584D01*
X202528384Y-176552429D01*
X202584514Y-176568090D01*
X202679105Y-176593991D01*
X202743156Y-176609873D01*
X202783217Y-176616556D01*
X202805839Y-176614865D01*
X202817575Y-176605619D01*
X202824975Y-176589643D01*
X202830094Y-176561159D01*
X202835088Y-176498060D01*
X202838621Y-176412019D01*
X202840145Y-176313044D01*
X202840211Y-176280209D01*
X202839157Y-176183017D01*
X202834729Y-176113368D01*
X202825151Y-176060175D01*
X202808651Y-176012354D01*
X202783452Y-175958819D01*
X202765480Y-175927100D01*
X202704810Y-175841959D01*
X202617726Y-175738334D01*
X202508426Y-175621377D01*
X202290882Y-175398537D01*
X202097946Y-175418498D01*
X202044886Y-175424880D01*
X201875163Y-175453908D01*
X201686968Y-175496318D01*
X201494285Y-175548437D01*
X201311102Y-175606590D01*
X201151403Y-175667105D01*
X201039192Y-175716033D01*
X200926321Y-175769443D01*
X200840815Y-175815104D01*
X200786620Y-175850881D01*
X200767678Y-175874643D01*
X200172346Y-175874643D01*
X200120345Y-175852782D01*
X199998292Y-175805983D01*
X199885912Y-175767838D01*
X199778716Y-175736533D01*
X199672210Y-175710257D01*
X199561904Y-175687197D01*
X199290550Y-175647274D01*
X198941512Y-175628123D01*
X198570190Y-175640230D01*
X198179126Y-175683300D01*
X197770859Y-175757037D01*
X197347930Y-175861145D01*
X196912879Y-175995329D01*
X196834959Y-176022358D01*
X196696098Y-176072608D01*
X196541503Y-176130481D01*
X196380347Y-176192397D01*
X196221802Y-176254773D01*
X196075040Y-176314031D01*
X195949234Y-176366589D01*
X195853557Y-176408866D01*
X195831620Y-176418998D01*
X195763541Y-176449957D01*
X195714313Y-176471596D01*
X195693380Y-176479738D01*
X195687311Y-176481848D01*
X195650077Y-176497322D01*
X195584985Y-176525359D01*
X195498806Y-176563029D01*
X195398314Y-176607403D01*
X195284210Y-176656906D01*
X195103935Y-176731195D01*
X194922848Y-176801593D01*
X194748644Y-176865315D01*
X194589022Y-176919578D01*
X194451681Y-176961598D01*
X194344317Y-176988590D01*
X194304560Y-176996212D01*
X194199566Y-177011314D01*
X194099866Y-177019321D01*
X194014364Y-177020023D01*
X193951964Y-177013205D01*
X193921569Y-176998657D01*
X193917124Y-176988048D01*
X193920527Y-176970717D01*
X193939995Y-176950830D01*
X193979362Y-176926392D01*
X194042460Y-176895410D01*
X194133122Y-176855889D01*
X194255181Y-176805837D01*
X194412469Y-176743258D01*
X194540774Y-176692407D01*
X194720809Y-176619971D01*
X194863846Y-176560800D01*
X194971237Y-176514302D01*
X195044333Y-176479884D01*
X195084485Y-176456955D01*
X195093047Y-176444921D01*
X195091945Y-176444165D01*
X195063133Y-176436365D01*
X195005541Y-176425882D01*
X194930228Y-176414766D01*
X194923644Y-176413877D01*
X194675868Y-176368257D01*
X194407484Y-176297467D01*
X194128081Y-176204683D01*
X193847248Y-176093078D01*
X193574572Y-175965830D01*
X193485490Y-175920216D01*
X193340778Y-175841508D01*
X193220293Y-175767172D01*
X193114537Y-175689975D01*
X193014012Y-175602685D01*
X192909223Y-175498071D01*
X192790672Y-175368901D01*
X192718964Y-175289340D01*
X192596347Y-175157937D01*
X192490614Y-175052984D01*
X192396139Y-174970142D01*
X192307294Y-174905071D01*
X192218454Y-174853429D01*
X192123993Y-174810879D01*
X192018286Y-174773079D01*
X191977264Y-174761096D01*
X191850960Y-174734516D01*
X191700909Y-174713746D01*
X191539769Y-174699991D01*
X191380201Y-174694460D01*
X191234864Y-174698360D01*
X191201705Y-174700757D01*
X191048914Y-174714716D01*
X190871730Y-174734505D01*
X190683331Y-174758384D01*
X190496893Y-174784616D01*
X190325593Y-174811461D01*
X190182608Y-174837182D01*
X190063702Y-174862061D01*
X189840101Y-174914354D01*
X189592060Y-174977991D01*
X189328471Y-175050361D01*
X189241903Y-175075505D01*
X189058226Y-175128855D01*
X188790216Y-175210863D01*
X188533333Y-175293775D01*
X188296469Y-175374980D01*
X188088515Y-175451870D01*
X188017102Y-175479720D01*
X187547770Y-175671180D01*
X187092442Y-175871433D01*
X186656601Y-176077800D01*
X186245730Y-176287600D01*
X185865311Y-176498155D01*
X185520828Y-176706785D01*
X185517417Y-176708956D01*
X185329577Y-176828256D01*
X185133476Y-176952237D01*
X184936339Y-177076369D01*
X184745388Y-177196124D01*
X184567846Y-177306969D01*
X184410937Y-177404377D01*
X184281883Y-177483815D01*
X184208683Y-177527955D01*
X184117602Y-177580936D01*
X184043180Y-177621946D01*
X183991631Y-177647594D01*
X183969170Y-177654489D01*
X183956729Y-177642476D01*
X183955272Y-177603367D01*
X183987914Y-177549717D01*
X184052881Y-177485120D01*
X184221363Y-177343418D01*
X184432455Y-177173426D01*
X184644279Y-177012152D01*
X184863051Y-176855299D01*
X185094985Y-176698572D01*
X185346297Y-176537675D01*
X185623200Y-176368310D01*
X185931911Y-176186183D01*
X186049988Y-176119673D01*
X186235641Y-176020803D01*
X186446208Y-175913749D01*
X186673667Y-175802300D01*
X186909996Y-175690243D01*
X187147175Y-175581368D01*
X187377181Y-175479461D01*
X187591993Y-175388312D01*
X187783590Y-175311708D01*
X187851395Y-175282765D01*
X187902883Y-175255266D01*
X187926195Y-175235452D01*
X187924350Y-175225584D01*
X187903144Y-175185809D01*
X187862456Y-175123138D01*
X187806449Y-175043833D01*
X187739283Y-174954155D01*
X187703817Y-174907590D01*
X187638071Y-174818707D01*
X187583465Y-174741526D01*
X187544888Y-174683052D01*
X187527231Y-174650293D01*
X187526817Y-174648926D01*
X187748213Y-174648926D01*
X187748527Y-174663460D01*
X187760521Y-174686901D01*
X187787606Y-174723504D01*
X187833193Y-174777523D01*
X187900693Y-174853215D01*
X187993517Y-174954834D01*
X188035614Y-174999831D01*
X188116589Y-175080210D01*
X188175936Y-175129116D01*
X188212302Y-175145370D01*
X188217372Y-175145038D01*
X188262240Y-175134971D01*
X188320560Y-175115705D01*
X188374385Y-175093722D01*
X188405764Y-175075505D01*
X188404092Y-175067605D01*
X188387293Y-175030167D01*
X188356469Y-174969549D01*
X188315697Y-174893967D01*
X188250966Y-174776980D01*
X188171500Y-174634024D01*
X188108713Y-174522154D01*
X188060690Y-174438082D01*
X188025517Y-174378519D01*
X188001278Y-174340179D01*
X187986058Y-174319772D01*
X187977944Y-174314011D01*
X187977583Y-174314098D01*
X187960659Y-174332323D01*
X187927889Y-174375816D01*
X187885612Y-174435336D01*
X187840170Y-174501639D01*
X187797902Y-174565485D01*
X187765148Y-174617632D01*
X187748248Y-174648836D01*
X187748213Y-174648926D01*
X187526817Y-174648926D01*
X187525714Y-174645280D01*
X187521554Y-174618661D01*
X187527258Y-174589976D01*
X187546419Y-174553433D01*
X187582631Y-174503243D01*
X187639487Y-174433616D01*
X187720582Y-174338761D01*
X187767973Y-174282058D01*
X187823039Y-174211009D01*
X187862949Y-174153248D01*
X187881302Y-174117584D01*
X187882845Y-174106506D01*
X187879163Y-174056892D01*
X187865670Y-173989230D01*
X187845428Y-173913327D01*
X187821498Y-173838988D01*
X187796943Y-173776018D01*
X187774825Y-173734221D01*
X187758206Y-173723404D01*
X187755550Y-173725192D01*
X187724785Y-173753245D01*
X187685806Y-173796091D01*
X187652756Y-173828784D01*
X187612230Y-173848430D01*
X187562738Y-173848180D01*
X187498185Y-173826758D01*
X187412477Y-173782889D01*
X187299518Y-173715299D01*
X187236559Y-173675206D01*
X187121774Y-173594215D01*
X187045022Y-173526273D01*
X187005499Y-173470599D01*
X187002404Y-173426414D01*
X187009191Y-173413345D01*
X187029762Y-173399992D01*
X187064531Y-173403373D01*
X187118514Y-173425232D01*
X187196731Y-173467315D01*
X187304198Y-173531367D01*
X187308602Y-173534053D01*
X187396209Y-173585713D01*
X187473099Y-173627915D01*
X187531113Y-173656375D01*
X187562091Y-173666805D01*
X187575766Y-173662829D01*
X187613377Y-173633194D01*
X187652960Y-173584119D01*
X187656375Y-173578929D01*
X187683560Y-173532058D01*
X187697951Y-173487367D01*
X187702418Y-173430311D01*
X187699826Y-173346340D01*
X187694451Y-173276157D01*
X187677459Y-173195704D01*
X187643886Y-173141150D01*
X187586884Y-173103118D01*
X187499605Y-173072232D01*
X187439588Y-173053186D01*
X187350905Y-173013681D01*
X187282588Y-172961773D01*
X187220734Y-172888292D01*
X187198260Y-172851562D01*
X187165035Y-172749547D01*
X187163557Y-172684277D01*
X187303196Y-172684277D01*
X187314723Y-172754807D01*
X187361511Y-172820289D01*
X187440960Y-172874198D01*
X187476475Y-172889252D01*
X187564111Y-172910251D01*
X187676760Y-172916653D01*
X187745567Y-172915417D01*
X187805104Y-172908511D01*
X187847927Y-172892411D01*
X187887853Y-172863646D01*
X187900028Y-172853093D01*
X187951120Y-172793522D01*
X187965042Y-172735291D01*
X187944300Y-172669788D01*
X187940597Y-172663040D01*
X187883399Y-172601488D01*
X187799160Y-172556077D01*
X187698238Y-172527858D01*
X187590993Y-172517884D01*
X187487783Y-172527205D01*
X187398965Y-172556872D01*
X187334900Y-172607937D01*
X187329529Y-172615228D01*
X187303196Y-172684277D01*
X187163557Y-172684277D01*
X187162582Y-172641231D01*
X187192190Y-172542258D01*
X187217171Y-172509345D01*
X187281708Y-172458830D01*
X187367806Y-172412904D01*
X187463552Y-172377558D01*
X187557033Y-172358784D01*
X187571065Y-172357627D01*
X187697283Y-172362998D01*
X187819397Y-172393573D01*
X187928223Y-172445131D01*
X188014578Y-172513449D01*
X188069281Y-172594306D01*
X188092895Y-172668733D01*
X188096737Y-172735291D01*
X188099415Y-172781685D01*
X188069738Y-172882967D01*
X188006002Y-172966752D01*
X187910348Y-173027211D01*
X187874796Y-173042952D01*
X187829679Y-173070947D01*
X187811305Y-173105298D01*
X187816086Y-173156716D01*
X187840432Y-173235911D01*
X187842097Y-173240786D01*
X187864807Y-173299131D01*
X187889293Y-173326098D01*
X187928155Y-173327792D01*
X187993991Y-173310317D01*
X188002416Y-173307853D01*
X188053932Y-173298401D01*
X188100932Y-173306239D01*
X188163103Y-173334140D01*
X188166791Y-173336035D01*
X188226861Y-173369674D01*
X188305798Y-173417379D01*
X188395825Y-173474041D01*
X188489161Y-173534554D01*
X188578027Y-173593809D01*
X188654646Y-173646698D01*
X188711237Y-173688115D01*
X188740023Y-173712950D01*
X188742483Y-173716102D01*
X188755845Y-173758275D01*
X188742813Y-173796180D01*
X188708774Y-173812634D01*
X188687949Y-173806087D01*
X188636149Y-173783430D01*
X188562823Y-173748585D01*
X188476193Y-173705742D01*
X188384480Y-173659092D01*
X188295906Y-173612826D01*
X188218692Y-173571134D01*
X188161059Y-173538208D01*
X188131230Y-173518238D01*
X188122060Y-173512578D01*
X188078687Y-173502740D01*
X188022449Y-173500815D01*
X187971305Y-173506631D01*
X187943214Y-173520019D01*
X187942057Y-173522837D01*
X187943013Y-173560002D01*
X187955366Y-173627780D01*
X187977207Y-173718720D01*
X188006626Y-173825371D01*
X188041715Y-173940284D01*
X188080564Y-174056007D01*
X188086758Y-174073274D01*
X188129685Y-174182446D01*
X188182347Y-174302868D01*
X188241779Y-174429059D01*
X188305019Y-174555538D01*
X188369102Y-174676825D01*
X188431064Y-174787440D01*
X188487941Y-174881902D01*
X188536769Y-174954730D01*
X188574585Y-175000444D01*
X188598424Y-175013564D01*
X188602394Y-175012311D01*
X188641359Y-175000000D01*
X188709724Y-174978395D01*
X188799113Y-174950142D01*
X188901148Y-174917889D01*
X188906831Y-174916095D01*
X189021490Y-174880860D01*
X189135037Y-174847545D01*
X189234639Y-174819830D01*
X189307465Y-174801393D01*
X189314375Y-174799813D01*
X189417515Y-174775174D01*
X189522562Y-174748410D01*
X189621026Y-174721873D01*
X189704416Y-174697917D01*
X189764241Y-174678892D01*
X189792013Y-174667151D01*
X189792576Y-174666533D01*
X189786040Y-174643693D01*
X189757615Y-174599626D01*
X189713001Y-174543268D01*
X189687205Y-174512603D01*
X189619783Y-174424894D01*
X189580459Y-174357111D01*
X189569268Y-174314183D01*
X189786710Y-174314183D01*
X189787843Y-174318932D01*
X189804965Y-174353264D01*
X189838392Y-174409523D01*
X189882590Y-174478241D01*
X189929625Y-174546083D01*
X189980743Y-174608885D01*
X190017539Y-174637475D01*
X190042059Y-174633851D01*
X190055753Y-174628871D01*
X190103457Y-174617082D01*
X190176519Y-174601317D01*
X190265955Y-174583593D01*
X190333035Y-174570281D01*
X190412109Y-174552997D01*
X190468493Y-174538707D01*
X190493024Y-174529592D01*
X190493306Y-174527839D01*
X190477536Y-174504705D01*
X190438597Y-174461209D01*
X190382865Y-174403514D01*
X190316720Y-174337785D01*
X190246539Y-174270184D01*
X190178699Y-174206877D01*
X190119579Y-174154026D01*
X190075557Y-174117795D01*
X190053010Y-174104348D01*
X190044195Y-174106887D01*
X190007135Y-174128535D01*
X189954416Y-174165837D01*
X189896027Y-174210923D01*
X189841954Y-174255923D01*
X189802186Y-174292966D01*
X189786710Y-174314183D01*
X189569268Y-174314183D01*
X189566529Y-174303675D01*
X189575290Y-174259002D01*
X189583739Y-174245822D01*
X189622509Y-174203989D01*
X189682135Y-174150357D01*
X189753639Y-174093268D01*
X189812525Y-174047594D01*
X189879316Y-173988423D01*
X189916246Y-173941148D01*
X189927142Y-173900273D01*
X189915830Y-173860303D01*
X189911847Y-173851231D01*
X189895241Y-173803107D01*
X189873406Y-173730716D01*
X189849992Y-173645940D01*
X189841032Y-173612848D01*
X189818047Y-173534717D01*
X189798011Y-173475420D01*
X189784463Y-173445767D01*
X189784409Y-173445701D01*
X189755226Y-173432278D01*
X189697046Y-173419235D01*
X189622408Y-173409386D01*
X189504635Y-173392954D01*
X189353187Y-173355720D01*
X189219653Y-173304550D01*
X189115673Y-173243260D01*
X189098592Y-173229678D01*
X189026633Y-173160915D01*
X188960443Y-173081067D01*
X188904896Y-172998105D01*
X188864868Y-172920001D01*
X188845234Y-172854727D01*
X188850869Y-172810256D01*
X188866524Y-172803542D01*
X188895339Y-172818984D01*
X188941757Y-172859923D01*
X189010226Y-172929690D01*
X189043881Y-172964145D01*
X189113489Y-173030042D01*
X189176194Y-173082996D01*
X189221580Y-173113928D01*
X189301319Y-173148697D01*
X189401163Y-173180693D01*
X189501034Y-173202868D01*
X189591327Y-173213621D01*
X189662441Y-173211350D01*
X189704772Y-173194457D01*
X189706695Y-173192142D01*
X189714001Y-173154906D01*
X189708127Y-173095857D01*
X189692409Y-173029520D01*
X189670182Y-172970424D01*
X189644779Y-172933095D01*
X189618246Y-172917107D01*
X189559513Y-172891554D01*
X189488042Y-172866902D01*
X189474234Y-172862477D01*
X189362145Y-172808864D01*
X189262862Y-172731877D01*
X189185960Y-172640442D01*
X189141016Y-172543483D01*
X189128023Y-172463138D01*
X189132693Y-172417148D01*
X189271899Y-172417148D01*
X189276759Y-172463103D01*
X189282568Y-172485238D01*
X189325319Y-172573169D01*
X189390442Y-172649845D01*
X189465818Y-172700078D01*
X189469649Y-172701648D01*
X189556603Y-172724075D01*
X189642669Y-172725495D01*
X189710525Y-172705524D01*
X189759334Y-172659232D01*
X189787513Y-172587519D01*
X189788431Y-172504762D01*
X189762143Y-172421679D01*
X189708704Y-172348993D01*
X189693224Y-172334830D01*
X189599396Y-172273126D01*
X189505641Y-172250300D01*
X189416098Y-172266645D01*
X189334904Y-172322455D01*
X189322786Y-172334734D01*
X189285091Y-172379561D01*
X189271899Y-172417148D01*
X189132693Y-172417148D01*
X189139536Y-172349750D01*
X189184455Y-172251170D01*
X189258232Y-172173396D01*
X189356316Y-172122425D01*
X189474159Y-172104256D01*
X189561673Y-172115540D01*
X189667713Y-172152317D01*
X189763567Y-172207492D01*
X189833571Y-172273681D01*
X189903401Y-172377928D01*
X189943447Y-172471340D01*
X189946276Y-172504762D01*
X189950770Y-172557854D01*
G37*
D12*
X209790000Y-198613748D02*
X209790000Y-200036252D01*
X211610000Y-198613748D02*
X211610000Y-200036252D01*
X216976248Y-179790000D02*
X218398752Y-179790000D01*
X216976248Y-181610000D02*
X218398752Y-181610000D01*
D13*
X189753700Y-146371300D02*
X189753700Y-148428700D01*
X189753700Y-148428700D02*
X190741760Y-148428700D01*
X191691761Y-146371300D02*
X190965239Y-146371300D01*
X191915240Y-148428700D02*
X192903300Y-148428700D01*
X192903300Y-148428700D02*
X192903300Y-146371300D01*
X188737700Y-146155400D02*
G75*
G02*
X188483700Y-146155400I-127000J0D01*
G01*
X188483700Y-146155400D02*
G75*
G02*
X188737700Y-146155400I127000J0D01*
G01*
D12*
X201290000Y-181488748D02*
X201290000Y-182911252D01*
X203110000Y-181488748D02*
X203110000Y-182911252D01*
D13*
X190461800Y-153806500D02*
X192138200Y-153806500D01*
X192138200Y-151393500D02*
X190461800Y-151393500D01*
D12*
X226300000Y-174540000D02*
X227100000Y-174540000D01*
X226300000Y-177660000D02*
X227100000Y-177660000D01*
X227900000Y-174540000D02*
X227100000Y-174540000D01*
X227900000Y-177660000D02*
X227100000Y-177660000D01*
X228400000Y-174590000D02*
X228160000Y-174260000D01*
X228640000Y-174260000D01*
X228400000Y-174590000D01*
G36*
X228400000Y-174590000D02*
G01*
X228160000Y-174260000D01*
X228640000Y-174260000D01*
X228400000Y-174590000D01*
G37*
X188488748Y-127290000D02*
X189911252Y-127290000D01*
X188488748Y-129110000D02*
X189911252Y-129110000D01*
X242411252Y-174990000D02*
X240988748Y-174990000D01*
X242411252Y-176810000D02*
X240988748Y-176810000D01*
X184690000Y-194772936D02*
X184690000Y-196227064D01*
X186510000Y-194772936D02*
X186510000Y-196227064D01*
X206990000Y-181488748D02*
X206990000Y-182911252D01*
X208810000Y-181488748D02*
X208810000Y-182911252D01*
X216860436Y-171890000D02*
X218314564Y-171890000D01*
X216860436Y-173710000D02*
X218314564Y-173710000D01*
X185990000Y-152972936D02*
X185990000Y-154427064D01*
X187810000Y-152972936D02*
X187810000Y-154427064D01*
X192640000Y-194797936D02*
X192640000Y-196252064D01*
X194460000Y-194797936D02*
X194460000Y-196252064D01*
X235311252Y-177840000D02*
X233888748Y-177840000D01*
X235311252Y-179660000D02*
X233888748Y-179660000D01*
X216860436Y-175290000D02*
X218314564Y-175290000D01*
X216860436Y-177110000D02*
X218314564Y-177110000D01*
X196788748Y-127290000D02*
X198211252Y-127290000D01*
X196788748Y-129110000D02*
X198211252Y-129110000D01*
X242411252Y-177790000D02*
X240988748Y-177790000D01*
X242411252Y-179610000D02*
X240988748Y-179610000D01*
X189827064Y-158840000D02*
X188372936Y-158840000D01*
X189827064Y-160660000D02*
X188372936Y-160660000D01*
X204090000Y-181488748D02*
X204090000Y-182911252D01*
X205910000Y-181488748D02*
X205910000Y-182911252D01*
%LPC*%
D15*
X234200000Y-189500000D03*
D16*
X234200000Y-187000000D03*
D17*
X223220000Y-165630000D03*
D18*
X223220000Y-163090000D03*
X223220000Y-160550000D03*
X223220000Y-158010000D03*
X223220000Y-155470000D03*
X223220000Y-152930000D03*
X223220000Y-150390000D03*
X223220000Y-147850000D03*
X223220000Y-145310000D03*
X223220000Y-142770000D03*
X223220000Y-140230000D03*
X223220000Y-137690000D03*
X223220000Y-135150000D03*
X223220000Y-132610000D03*
X223220000Y-130070000D03*
X223220000Y-127530000D03*
X223220000Y-124990000D03*
X223220000Y-122450000D03*
X223220000Y-119910000D03*
X223220000Y-117370000D03*
X207980000Y-117370000D03*
X207980000Y-119910000D03*
X207980000Y-122450000D03*
X207980000Y-124990000D03*
X207980000Y-127530000D03*
X207980000Y-130070000D03*
X207980000Y-132610000D03*
X207980000Y-135150000D03*
X207980000Y-137690000D03*
X207980000Y-140230000D03*
X207980000Y-142770000D03*
X207980000Y-145310000D03*
X207980000Y-147850000D03*
X207980000Y-150390000D03*
X207980000Y-152930000D03*
X207980000Y-155470000D03*
X207980000Y-158010000D03*
X207980000Y-160550000D03*
X207980000Y-163090000D03*
X207980000Y-165630000D03*
D19*
X194370000Y-117325000D03*
D20*
X195640000Y-121135000D03*
D21*
X193100000Y-121135000D03*
D22*
X256202000Y-197400000D03*
X251376000Y-197400000D03*
X246550000Y-197400000D03*
D23*
X215300000Y-109000000D03*
D17*
X236600000Y-196250000D03*
D19*
X235330000Y-116790000D03*
D20*
X236600000Y-120600000D03*
D21*
X234060000Y-120600000D03*
D24*
X228228000Y-196250000D03*
X226196000Y-196250000D03*
X224164000Y-196250000D03*
X222132000Y-196250000D03*
X220100000Y-196250000D03*
X228228000Y-198282000D03*
X226196000Y-198282000D03*
X224164000Y-198282000D03*
X222132000Y-198282000D03*
X220100000Y-198282000D03*
X228228000Y-200314000D03*
X226196000Y-200314000D03*
X224164000Y-200314000D03*
X222132000Y-200314000D03*
X220100000Y-200314000D03*
X228228000Y-202346000D03*
X226196000Y-202346000D03*
X224164000Y-202346000D03*
X222132000Y-202346000D03*
X220100000Y-202346000D03*
D23*
X214850000Y-194376000D03*
D17*
X200200000Y-162700000D03*
D25*
X200200000Y-160160000D03*
X200200000Y-157620000D03*
X200200000Y-155080000D03*
X200200000Y-152540000D03*
D19*
X174525000Y-137430000D03*
D26*
X178335000Y-136160000D03*
D21*
X178335000Y-138700000D03*
D19*
X174525000Y-131930000D03*
D26*
X178335000Y-130660000D03*
D21*
X178335000Y-133200000D03*
D27*
X243500000Y-185200000D03*
X243500000Y-167200000D03*
D28*
X195600000Y-152525000D03*
D25*
X195600000Y-155065000D03*
X195600000Y-157605000D03*
X195600000Y-160145000D03*
X195600000Y-162685000D03*
D28*
X233700000Y-151750000D03*
D25*
X233700000Y-154290000D03*
X233700000Y-156830000D03*
X233700000Y-159370000D03*
X233700000Y-161910000D03*
X233700000Y-164450000D03*
D28*
X237625000Y-151775000D03*
D25*
X237625000Y-154315000D03*
X237625000Y-156855000D03*
X237625000Y-159395000D03*
X237625000Y-161935000D03*
X237625000Y-164475000D03*
D29*
X206100000Y-199000000D03*
D16*
X202100000Y-199000000D03*
D28*
X231500000Y-201000000D03*
X171703300Y-143350000D03*
D25*
X171703300Y-145890000D03*
X171703300Y-148430000D03*
X171703300Y-150970000D03*
X171703300Y-153510000D03*
X171703300Y-156050000D03*
D30*
X229600000Y-127225000D03*
D31*
X229600000Y-129765000D03*
X229600000Y-132305000D03*
X229600000Y-134845000D03*
X229600000Y-137385000D03*
X229600000Y-139925000D03*
X229600000Y-142465000D03*
X229600000Y-145005000D03*
X237220000Y-145005000D03*
X237220000Y-142465000D03*
X237220000Y-139925000D03*
X237220000Y-137385000D03*
X237220000Y-134845000D03*
X237220000Y-132305000D03*
X237220000Y-129765000D03*
X237220000Y-127225000D03*
D15*
X209850000Y-189500000D03*
D16*
X209850000Y-187000000D03*
D17*
X236600000Y-200900000D03*
X259596700Y-156146600D03*
D25*
X259596700Y-153606600D03*
X259596700Y-151066600D03*
X259596700Y-148526600D03*
X259596700Y-145986600D03*
X259596700Y-143446600D03*
D32*
X190250000Y-139125000D03*
D33*
X190250000Y-137855000D03*
X191520000Y-139125000D03*
X191520000Y-137855000D03*
X192790000Y-139125000D03*
X192790000Y-137855000D03*
X194060000Y-139125000D03*
X194060000Y-137855000D03*
X195330000Y-139125000D03*
X195330000Y-137855000D03*
D34*
X253000000Y-202950000D03*
D25*
X250460000Y-202950000D03*
D23*
X214850000Y-202250000D03*
D28*
X241900000Y-200800000D03*
D19*
X189330000Y-117325000D03*
D20*
X190600000Y-121135000D03*
D21*
X188060000Y-121135000D03*
D27*
X187600000Y-167200000D03*
X187600000Y-185200000D03*
D23*
X215300000Y-116874000D03*
D19*
X256177500Y-137994226D03*
D35*
X252367500Y-139264226D03*
D21*
X252367500Y-136724226D03*
D19*
X240430000Y-116790000D03*
D20*
X241700000Y-120600000D03*
D21*
X239160000Y-120600000D03*
D19*
X256035882Y-131291600D03*
D35*
X252225882Y-132561600D03*
D21*
X252225882Y-130021600D03*
D36*
X210850000Y-183762500D03*
X210850000Y-180637500D03*
D37*
X233037500Y-176000000D03*
X236162500Y-176000000D03*
D38*
X228587500Y-179500000D03*
X225612500Y-179500000D03*
D39*
X197050000Y-193975000D03*
X197050000Y-197075000D03*
D40*
X185800000Y-150000000D03*
X188900000Y-150000000D03*
D41*
X190762500Y-125400000D03*
X187637500Y-125400000D03*
D42*
X177600000Y-197050000D03*
X177600000Y-193950000D03*
D43*
X196350000Y-190477500D03*
X194450000Y-190477500D03*
X195400000Y-188602500D03*
D42*
X181600000Y-197025000D03*
X181600000Y-193925000D03*
X189600000Y-197050000D03*
X189600000Y-193950000D03*
D44*
X192436650Y-156450001D03*
X192436650Y-157100000D03*
X192436650Y-157749999D03*
X190163350Y-157749999D03*
X190163350Y-157100000D03*
X190163350Y-156450001D03*
D41*
X199062500Y-125600000D03*
X195937500Y-125600000D03*
D36*
X210700000Y-200887500D03*
X210700000Y-197762500D03*
D41*
X219250000Y-180700000D03*
X216125000Y-180700000D03*
D45*
X190378499Y-146206200D03*
X192278501Y-146206200D03*
X191328500Y-148593800D03*
D36*
X202200000Y-183762500D03*
X202200000Y-180637500D03*
D44*
X192436650Y-151950001D03*
X192436650Y-152600000D03*
X192436650Y-153249999D03*
X190163350Y-153249999D03*
X190163350Y-152600000D03*
X190163350Y-151950001D03*
D46*
X228237500Y-175150000D03*
X228237500Y-176100000D03*
X228237500Y-177050000D03*
X225962500Y-177050000D03*
X225962500Y-175150000D03*
D41*
X190762500Y-128200000D03*
X187637500Y-128200000D03*
D37*
X240137500Y-175900000D03*
X243262500Y-175900000D03*
D42*
X185600000Y-197050000D03*
X185600000Y-193950000D03*
D36*
X207900000Y-183762500D03*
X207900000Y-180637500D03*
D47*
X219137500Y-172800000D03*
X216037500Y-172800000D03*
D42*
X186900000Y-155250000D03*
X186900000Y-152150000D03*
X193550000Y-197075000D03*
X193550000Y-193975000D03*
D37*
X233037500Y-178750000D03*
X236162500Y-178750000D03*
D47*
X219137500Y-176200000D03*
X216037500Y-176200000D03*
D41*
X199062500Y-128200000D03*
X195937500Y-128200000D03*
D37*
X240137500Y-178700000D03*
X243262500Y-178700000D03*
D40*
X187550000Y-159750000D03*
X190650000Y-159750000D03*
D36*
X205000000Y-183762500D03*
X205000000Y-180637500D03*
%LPD*%
M02*
