G04 #@! TF.GenerationSoftware,KiCad,Pcbnew,8.0.6*
G04 #@! TF.CreationDate,2024-12-06T12:29:16-08:00*
G04 #@! TF.ProjectId,bloo,626c6f6f-2e6b-4696-9361-645f70636258,rev?*
G04 #@! TF.SameCoordinates,Original*
G04 #@! TF.FileFunction,Legend,Top*
G04 #@! TF.FilePolarity,Positive*
%FSLAX46Y46*%
G04 Gerber Fmt 4.6, Leading zero omitted, Abs format (unit mm)*
G04 Created by KiCad (PCBNEW 8.0.6) date 2024-12-06 12:29:16*
%MOMM*%
%LPD*%
G01*
G04 APERTURE LIST*
G04 Aperture macros list*
%AMRoundRect*
0 Rectangle with rounded corners*
0 $1 Rounding radius*
0 $2 $3 $4 $5 $6 $7 $8 $9 X,Y pos of 4 corners*
0 Add a 4 corners polygon primitive as box body*
4,1,4,$2,$3,$4,$5,$6,$7,$8,$9,$2,$3,0*
0 Add four circle primitives for the rounded corners*
1,1,$1+$1,$2,$3*
1,1,$1+$1,$4,$5*
1,1,$1+$1,$6,$7*
1,1,$1+$1,$8,$9*
0 Add four rect primitives between the rounded corners*
20,1,$1+$1,$2,$3,$4,$5,0*
20,1,$1+$1,$4,$5,$6,$7,0*
20,1,$1+$1,$6,$7,$8,$9,0*
20,1,$1+$1,$8,$9,$2,$3,0*%
G04 Aperture macros list end*
%ADD10C,0.150000*%
%ADD11C,0.120000*%
%ADD12RoundRect,0.250000X-0.687500X-0.250000X0.687500X-0.250000X0.687500X0.250000X-0.687500X0.250000X0*%
%ADD13RoundRect,0.336956X0.438044X0.563044X-0.438044X0.563044X-0.438044X-0.563044X0.438044X-0.563044X0*%
%ADD14RoundRect,0.200000X0.800000X-0.800000X0.800000X0.800000X-0.800000X0.800000X-0.800000X-0.800000X0*%
%ADD15C,2.000000*%
%ADD16RoundRect,0.200000X0.850000X0.850000X-0.850000X0.850000X-0.850000X-0.850000X0.850000X-0.850000X0*%
%ADD17C,2.100000*%
%ADD18C,2.400000*%
%ADD19RoundRect,0.200000X0.900000X0.900000X-0.900000X0.900000X-0.900000X-0.900000X0.900000X-0.900000X0*%
%ADD20C,2.200000*%
%ADD21C,3.400000*%
%ADD22RoundRect,0.326924X-0.523076X-0.748076X0.523076X-0.748076X0.523076X0.748076X-0.523076X0.748076X0*%
%ADD23C,2.600000*%
%ADD24RoundRect,0.200000X0.750000X-0.500000X0.750000X0.500000X-0.750000X0.500000X-0.750000X-0.500000X0*%
%ADD25RoundRect,0.337500X-0.337500X0.350000X-0.337500X-0.350000X0.337500X-0.350000X0.337500X0.350000X0*%
%ADD26RoundRect,0.200000X-0.550000X2.300000X-0.550000X-2.300000X0.550000X-2.300000X0.550000X2.300000X0*%
%ADD27C,1.924000*%
%ADD28RoundRect,0.200000X-5.400000X4.700000X-5.400000X-4.700000X5.400000X-4.700000X5.400000X4.700000X0*%
%ADD29O,2.100000X2.100000*%
%ADD30RoundRect,0.200000X1.000000X-1.250000X1.000000X1.250000X-1.000000X1.250000X-1.000000X-1.250000X0*%
%ADD31RoundRect,0.325471X-0.537029X-0.774529X0.537029X-0.774529X0.537029X0.774529X-0.537029X0.774529X0*%
%ADD32RoundRect,0.200000X-0.900000X0.900000X-0.900000X-0.900000X0.900000X-0.900000X0.900000X0.900000X0*%
%ADD33C,2.584400*%
%ADD34RoundRect,0.200000X-0.850000X-0.850000X0.850000X-0.850000X0.850000X0.850000X-0.850000X0.850000X0*%
%ADD35RoundRect,0.200000X0.800000X0.800000X-0.800000X0.800000X-0.800000X-0.800000X0.800000X-0.800000X0*%
%ADD36RoundRect,0.326924X0.523076X0.748076X-0.523076X0.748076X-0.523076X-0.748076X0.523076X-0.748076X0*%
%ADD37RoundRect,0.250000X0.725000X-0.250000X0.725000X0.250000X-0.725000X0.250000X-0.725000X-0.250000X0*%
%ADD38RoundRect,0.333333X0.766667X-0.466667X0.766667X0.466667X-0.766667X0.466667X-0.766667X-0.466667X0*%
%ADD39RoundRect,0.337500X-0.337500X0.400000X-0.337500X-0.400000X0.337500X-0.400000X0.337500X0.400000X0*%
%ADD40RoundRect,0.200000X-0.800000X-0.800000X0.800000X-0.800000X0.800000X0.800000X-0.800000X0.800000X0*%
%ADD41O,2.000000X2.000000*%
%ADD42RoundRect,0.325471X0.537029X0.774529X-0.537029X0.774529X-0.537029X-0.774529X0.537029X-0.774529X0*%
%ADD43RoundRect,0.250000X-0.725000X0.250000X-0.725000X-0.250000X0.725000X-0.250000X0.725000X0.250000X0*%
%ADD44RoundRect,0.333333X-0.766667X0.466667X-0.766667X-0.466667X0.766667X-0.466667X0.766667X0.466667X0*%
%ADD45RoundRect,0.200000X0.500000X-0.500000X0.500000X0.500000X-0.500000X0.500000X-0.500000X-0.500000X0*%
%ADD46O,1.400000X1.400000*%
%ADD47RoundRect,0.200000X-0.850000X0.850000X-0.850000X-0.850000X0.850000X-0.850000X0.850000X0.850000X0*%
%ADD48RoundRect,0.200000X0.500000X0.750000X-0.500000X0.750000X-0.500000X-0.750000X0.500000X-0.750000X0*%
%ADD49RoundRect,0.200000X0.900000X-0.900000X0.900000X0.900000X-0.900000X0.900000X-0.900000X-0.900000X0*%
G04 APERTURE END LIST*
D10*
X165600000Y-105000000D02*
X265600000Y-105000000D01*
X265600000Y-205000000D01*
X165600000Y-205000000D01*
X165600000Y-105000000D01*
X229391071Y-118250057D02*
X229295833Y-118202438D01*
X229295833Y-118202438D02*
X229200595Y-118107200D01*
X229200595Y-118107200D02*
X229057738Y-117964342D01*
X229057738Y-117964342D02*
X228962500Y-117916723D01*
X228962500Y-117916723D02*
X228867262Y-117916723D01*
X228914881Y-118154819D02*
X228819643Y-118107200D01*
X228819643Y-118107200D02*
X228724405Y-118011961D01*
X228724405Y-118011961D02*
X228676786Y-117821485D01*
X228676786Y-117821485D02*
X228676786Y-117488152D01*
X228676786Y-117488152D02*
X228724405Y-117297676D01*
X228724405Y-117297676D02*
X228819643Y-117202438D01*
X228819643Y-117202438D02*
X228914881Y-117154819D01*
X228914881Y-117154819D02*
X229105357Y-117154819D01*
X229105357Y-117154819D02*
X229200595Y-117202438D01*
X229200595Y-117202438D02*
X229295833Y-117297676D01*
X229295833Y-117297676D02*
X229343452Y-117488152D01*
X229343452Y-117488152D02*
X229343452Y-117821485D01*
X229343452Y-117821485D02*
X229295833Y-118011961D01*
X229295833Y-118011961D02*
X229200595Y-118107200D01*
X229200595Y-118107200D02*
X229105357Y-118154819D01*
X229105357Y-118154819D02*
X228914881Y-118154819D01*
X230295833Y-118154819D02*
X229724405Y-118154819D01*
X230010119Y-118154819D02*
X230010119Y-117154819D01*
X230010119Y-117154819D02*
X229914881Y-117297676D01*
X229914881Y-117297676D02*
X229819643Y-117392914D01*
X229819643Y-117392914D02*
X229724405Y-117440533D01*
X231248214Y-118154819D02*
X230676786Y-118154819D01*
X230962500Y-118154819D02*
X230962500Y-117154819D01*
X230962500Y-117154819D02*
X230867262Y-117297676D01*
X230867262Y-117297676D02*
X230772024Y-117392914D01*
X230772024Y-117392914D02*
X230676786Y-117440533D01*
X185261905Y-149504819D02*
X185261905Y-148504819D01*
X185261905Y-148504819D02*
X185500000Y-148504819D01*
X185500000Y-148504819D02*
X185642857Y-148552438D01*
X185642857Y-148552438D02*
X185738095Y-148647676D01*
X185738095Y-148647676D02*
X185785714Y-148742914D01*
X185785714Y-148742914D02*
X185833333Y-148933390D01*
X185833333Y-148933390D02*
X185833333Y-149076247D01*
X185833333Y-149076247D02*
X185785714Y-149266723D01*
X185785714Y-149266723D02*
X185738095Y-149361961D01*
X185738095Y-149361961D02*
X185642857Y-149457200D01*
X185642857Y-149457200D02*
X185500000Y-149504819D01*
X185500000Y-149504819D02*
X185261905Y-149504819D01*
X186690476Y-148504819D02*
X186500000Y-148504819D01*
X186500000Y-148504819D02*
X186404762Y-148552438D01*
X186404762Y-148552438D02*
X186357143Y-148600057D01*
X186357143Y-148600057D02*
X186261905Y-148742914D01*
X186261905Y-148742914D02*
X186214286Y-148933390D01*
X186214286Y-148933390D02*
X186214286Y-149314342D01*
X186214286Y-149314342D02*
X186261905Y-149409580D01*
X186261905Y-149409580D02*
X186309524Y-149457200D01*
X186309524Y-149457200D02*
X186404762Y-149504819D01*
X186404762Y-149504819D02*
X186595238Y-149504819D01*
X186595238Y-149504819D02*
X186690476Y-149457200D01*
X186690476Y-149457200D02*
X186738095Y-149409580D01*
X186738095Y-149409580D02*
X186785714Y-149314342D01*
X186785714Y-149314342D02*
X186785714Y-149076247D01*
X186785714Y-149076247D02*
X186738095Y-148981009D01*
X186738095Y-148981009D02*
X186690476Y-148933390D01*
X186690476Y-148933390D02*
X186595238Y-148885771D01*
X186595238Y-148885771D02*
X186404762Y-148885771D01*
X186404762Y-148885771D02*
X186309524Y-148933390D01*
X186309524Y-148933390D02*
X186261905Y-148981009D01*
X186261905Y-148981009D02*
X186214286Y-149076247D01*
X237633333Y-186059580D02*
X237585714Y-186107200D01*
X237585714Y-186107200D02*
X237442857Y-186154819D01*
X237442857Y-186154819D02*
X237347619Y-186154819D01*
X237347619Y-186154819D02*
X237204762Y-186107200D01*
X237204762Y-186107200D02*
X237109524Y-186011961D01*
X237109524Y-186011961D02*
X237061905Y-185916723D01*
X237061905Y-185916723D02*
X237014286Y-185726247D01*
X237014286Y-185726247D02*
X237014286Y-185583390D01*
X237014286Y-185583390D02*
X237061905Y-185392914D01*
X237061905Y-185392914D02*
X237109524Y-185297676D01*
X237109524Y-185297676D02*
X237204762Y-185202438D01*
X237204762Y-185202438D02*
X237347619Y-185154819D01*
X237347619Y-185154819D02*
X237442857Y-185154819D01*
X237442857Y-185154819D02*
X237585714Y-185202438D01*
X237585714Y-185202438D02*
X237633333Y-185250057D01*
X238014286Y-185250057D02*
X238061905Y-185202438D01*
X238061905Y-185202438D02*
X238157143Y-185154819D01*
X238157143Y-185154819D02*
X238395238Y-185154819D01*
X238395238Y-185154819D02*
X238490476Y-185202438D01*
X238490476Y-185202438D02*
X238538095Y-185250057D01*
X238538095Y-185250057D02*
X238585714Y-185345295D01*
X238585714Y-185345295D02*
X238585714Y-185440533D01*
X238585714Y-185440533D02*
X238538095Y-185583390D01*
X238538095Y-185583390D02*
X237966667Y-186154819D01*
X237966667Y-186154819D02*
X238585714Y-186154819D01*
X215148095Y-142884819D02*
X215148095Y-143694342D01*
X215148095Y-143694342D02*
X215195714Y-143789580D01*
X215195714Y-143789580D02*
X215243333Y-143837200D01*
X215243333Y-143837200D02*
X215338571Y-143884819D01*
X215338571Y-143884819D02*
X215529047Y-143884819D01*
X215529047Y-143884819D02*
X215624285Y-143837200D01*
X215624285Y-143837200D02*
X215671904Y-143789580D01*
X215671904Y-143789580D02*
X215719523Y-143694342D01*
X215719523Y-143694342D02*
X215719523Y-142884819D01*
X216719523Y-143884819D02*
X216148095Y-143884819D01*
X216433809Y-143884819D02*
X216433809Y-142884819D01*
X216433809Y-142884819D02*
X216338571Y-143027676D01*
X216338571Y-143027676D02*
X216243333Y-143122914D01*
X216243333Y-143122914D02*
X216148095Y-143170533D01*
X194240750Y-119775302D02*
X194145512Y-119727683D01*
X194145512Y-119727683D02*
X194050274Y-119632445D01*
X194050274Y-119632445D02*
X193907417Y-119489587D01*
X193907417Y-119489587D02*
X193812179Y-119441968D01*
X193812179Y-119441968D02*
X193716941Y-119441968D01*
X193764560Y-119680064D02*
X193669322Y-119632445D01*
X193669322Y-119632445D02*
X193574084Y-119537206D01*
X193574084Y-119537206D02*
X193526465Y-119346730D01*
X193526465Y-119346730D02*
X193526465Y-119013397D01*
X193526465Y-119013397D02*
X193574084Y-118822921D01*
X193574084Y-118822921D02*
X193669322Y-118727683D01*
X193669322Y-118727683D02*
X193764560Y-118680064D01*
X193764560Y-118680064D02*
X193955036Y-118680064D01*
X193955036Y-118680064D02*
X194050274Y-118727683D01*
X194050274Y-118727683D02*
X194145512Y-118822921D01*
X194145512Y-118822921D02*
X194193131Y-119013397D01*
X194193131Y-119013397D02*
X194193131Y-119346730D01*
X194193131Y-119346730D02*
X194145512Y-119537206D01*
X194145512Y-119537206D02*
X194050274Y-119632445D01*
X194050274Y-119632445D02*
X193955036Y-119680064D01*
X193955036Y-119680064D02*
X193764560Y-119680064D01*
X195145512Y-119680064D02*
X194574084Y-119680064D01*
X194859798Y-119680064D02*
X194859798Y-118680064D01*
X194859798Y-118680064D02*
X194764560Y-118822921D01*
X194764560Y-118822921D02*
X194669322Y-118918159D01*
X194669322Y-118918159D02*
X194574084Y-118965778D01*
X250588095Y-193757200D02*
X250730952Y-193804819D01*
X250730952Y-193804819D02*
X250969047Y-193804819D01*
X250969047Y-193804819D02*
X251064285Y-193757200D01*
X251064285Y-193757200D02*
X251111904Y-193709580D01*
X251111904Y-193709580D02*
X251159523Y-193614342D01*
X251159523Y-193614342D02*
X251159523Y-193519104D01*
X251159523Y-193519104D02*
X251111904Y-193423866D01*
X251111904Y-193423866D02*
X251064285Y-193376247D01*
X251064285Y-193376247D02*
X250969047Y-193328628D01*
X250969047Y-193328628D02*
X250778571Y-193281009D01*
X250778571Y-193281009D02*
X250683333Y-193233390D01*
X250683333Y-193233390D02*
X250635714Y-193185771D01*
X250635714Y-193185771D02*
X250588095Y-193090533D01*
X250588095Y-193090533D02*
X250588095Y-192995295D01*
X250588095Y-192995295D02*
X250635714Y-192900057D01*
X250635714Y-192900057D02*
X250683333Y-192852438D01*
X250683333Y-192852438D02*
X250778571Y-192804819D01*
X250778571Y-192804819D02*
X251016666Y-192804819D01*
X251016666Y-192804819D02*
X251159523Y-192852438D01*
X252111904Y-193804819D02*
X251540476Y-193804819D01*
X251826190Y-193804819D02*
X251826190Y-192804819D01*
X251826190Y-192804819D02*
X251730952Y-192947676D01*
X251730952Y-192947676D02*
X251635714Y-193042914D01*
X251635714Y-193042914D02*
X251540476Y-193090533D01*
X177383333Y-126954819D02*
X177050000Y-126478628D01*
X176811905Y-126954819D02*
X176811905Y-125954819D01*
X176811905Y-125954819D02*
X177192857Y-125954819D01*
X177192857Y-125954819D02*
X177288095Y-126002438D01*
X177288095Y-126002438D02*
X177335714Y-126050057D01*
X177335714Y-126050057D02*
X177383333Y-126145295D01*
X177383333Y-126145295D02*
X177383333Y-126288152D01*
X177383333Y-126288152D02*
X177335714Y-126383390D01*
X177335714Y-126383390D02*
X177288095Y-126431009D01*
X177288095Y-126431009D02*
X177192857Y-126478628D01*
X177192857Y-126478628D02*
X176811905Y-126478628D01*
X178288095Y-125954819D02*
X177811905Y-125954819D01*
X177811905Y-125954819D02*
X177764286Y-126431009D01*
X177764286Y-126431009D02*
X177811905Y-126383390D01*
X177811905Y-126383390D02*
X177907143Y-126335771D01*
X177907143Y-126335771D02*
X178145238Y-126335771D01*
X178145238Y-126335771D02*
X178240476Y-126383390D01*
X178240476Y-126383390D02*
X178288095Y-126431009D01*
X178288095Y-126431009D02*
X178335714Y-126526247D01*
X178335714Y-126526247D02*
X178335714Y-126764342D01*
X178335714Y-126764342D02*
X178288095Y-126859580D01*
X178288095Y-126859580D02*
X178240476Y-126907200D01*
X178240476Y-126907200D02*
X178145238Y-126954819D01*
X178145238Y-126954819D02*
X177907143Y-126954819D01*
X177907143Y-126954819D02*
X177811905Y-126907200D01*
X177811905Y-126907200D02*
X177764286Y-126859580D01*
X178283333Y-121354819D02*
X177950000Y-120878628D01*
X177711905Y-121354819D02*
X177711905Y-120354819D01*
X177711905Y-120354819D02*
X178092857Y-120354819D01*
X178092857Y-120354819D02*
X178188095Y-120402438D01*
X178188095Y-120402438D02*
X178235714Y-120450057D01*
X178235714Y-120450057D02*
X178283333Y-120545295D01*
X178283333Y-120545295D02*
X178283333Y-120688152D01*
X178283333Y-120688152D02*
X178235714Y-120783390D01*
X178235714Y-120783390D02*
X178188095Y-120831009D01*
X178188095Y-120831009D02*
X178092857Y-120878628D01*
X178092857Y-120878628D02*
X177711905Y-120878628D01*
X178664286Y-120450057D02*
X178711905Y-120402438D01*
X178711905Y-120402438D02*
X178807143Y-120354819D01*
X178807143Y-120354819D02*
X179045238Y-120354819D01*
X179045238Y-120354819D02*
X179140476Y-120402438D01*
X179140476Y-120402438D02*
X179188095Y-120450057D01*
X179188095Y-120450057D02*
X179235714Y-120545295D01*
X179235714Y-120545295D02*
X179235714Y-120640533D01*
X179235714Y-120640533D02*
X179188095Y-120783390D01*
X179188095Y-120783390D02*
X178616667Y-121354819D01*
X178616667Y-121354819D02*
X179235714Y-121354819D01*
X246533333Y-116234819D02*
X246200000Y-115758628D01*
X245961905Y-116234819D02*
X245961905Y-115234819D01*
X245961905Y-115234819D02*
X246342857Y-115234819D01*
X246342857Y-115234819D02*
X246438095Y-115282438D01*
X246438095Y-115282438D02*
X246485714Y-115330057D01*
X246485714Y-115330057D02*
X246533333Y-115425295D01*
X246533333Y-115425295D02*
X246533333Y-115568152D01*
X246533333Y-115568152D02*
X246485714Y-115663390D01*
X246485714Y-115663390D02*
X246438095Y-115711009D01*
X246438095Y-115711009D02*
X246342857Y-115758628D01*
X246342857Y-115758628D02*
X245961905Y-115758628D01*
X246866667Y-115234819D02*
X247533333Y-115234819D01*
X247533333Y-115234819D02*
X247104762Y-116234819D01*
X248133333Y-125754819D02*
X247800000Y-125278628D01*
X247561905Y-125754819D02*
X247561905Y-124754819D01*
X247561905Y-124754819D02*
X247942857Y-124754819D01*
X247942857Y-124754819D02*
X248038095Y-124802438D01*
X248038095Y-124802438D02*
X248085714Y-124850057D01*
X248085714Y-124850057D02*
X248133333Y-124945295D01*
X248133333Y-124945295D02*
X248133333Y-125088152D01*
X248133333Y-125088152D02*
X248085714Y-125183390D01*
X248085714Y-125183390D02*
X248038095Y-125231009D01*
X248038095Y-125231009D02*
X247942857Y-125278628D01*
X247942857Y-125278628D02*
X247561905Y-125278628D01*
X248704762Y-125183390D02*
X248609524Y-125135771D01*
X248609524Y-125135771D02*
X248561905Y-125088152D01*
X248561905Y-125088152D02*
X248514286Y-124992914D01*
X248514286Y-124992914D02*
X248514286Y-124945295D01*
X248514286Y-124945295D02*
X248561905Y-124850057D01*
X248561905Y-124850057D02*
X248609524Y-124802438D01*
X248609524Y-124802438D02*
X248704762Y-124754819D01*
X248704762Y-124754819D02*
X248895238Y-124754819D01*
X248895238Y-124754819D02*
X248990476Y-124802438D01*
X248990476Y-124802438D02*
X249038095Y-124850057D01*
X249038095Y-124850057D02*
X249085714Y-124945295D01*
X249085714Y-124945295D02*
X249085714Y-124992914D01*
X249085714Y-124992914D02*
X249038095Y-125088152D01*
X249038095Y-125088152D02*
X248990476Y-125135771D01*
X248990476Y-125135771D02*
X248895238Y-125183390D01*
X248895238Y-125183390D02*
X248704762Y-125183390D01*
X248704762Y-125183390D02*
X248609524Y-125231009D01*
X248609524Y-125231009D02*
X248561905Y-125278628D01*
X248561905Y-125278628D02*
X248514286Y-125373866D01*
X248514286Y-125373866D02*
X248514286Y-125564342D01*
X248514286Y-125564342D02*
X248561905Y-125659580D01*
X248561905Y-125659580D02*
X248609524Y-125707200D01*
X248609524Y-125707200D02*
X248704762Y-125754819D01*
X248704762Y-125754819D02*
X248895238Y-125754819D01*
X248895238Y-125754819D02*
X248990476Y-125707200D01*
X248990476Y-125707200D02*
X249038095Y-125659580D01*
X249038095Y-125659580D02*
X249085714Y-125564342D01*
X249085714Y-125564342D02*
X249085714Y-125373866D01*
X249085714Y-125373866D02*
X249038095Y-125278628D01*
X249038095Y-125278628D02*
X248990476Y-125231009D01*
X248990476Y-125231009D02*
X248895238Y-125183390D01*
X197754819Y-135761904D02*
X198469104Y-135761904D01*
X198469104Y-135761904D02*
X198611961Y-135809523D01*
X198611961Y-135809523D02*
X198707200Y-135904761D01*
X198707200Y-135904761D02*
X198754819Y-136047618D01*
X198754819Y-136047618D02*
X198754819Y-136142856D01*
X198754819Y-135285713D02*
X197754819Y-135285713D01*
X197754819Y-135285713D02*
X197754819Y-134904761D01*
X197754819Y-134904761D02*
X197802438Y-134809523D01*
X197802438Y-134809523D02*
X197850057Y-134761904D01*
X197850057Y-134761904D02*
X197945295Y-134714285D01*
X197945295Y-134714285D02*
X198088152Y-134714285D01*
X198088152Y-134714285D02*
X198183390Y-134761904D01*
X198183390Y-134761904D02*
X198231009Y-134809523D01*
X198231009Y-134809523D02*
X198278628Y-134904761D01*
X198278628Y-134904761D02*
X198278628Y-135285713D01*
X198850057Y-134523809D02*
X198850057Y-133761904D01*
X197802438Y-132999999D02*
X197754819Y-133095237D01*
X197754819Y-133095237D02*
X197754819Y-133238094D01*
X197754819Y-133238094D02*
X197802438Y-133380951D01*
X197802438Y-133380951D02*
X197897676Y-133476189D01*
X197897676Y-133476189D02*
X197992914Y-133523808D01*
X197992914Y-133523808D02*
X198183390Y-133571427D01*
X198183390Y-133571427D02*
X198326247Y-133571427D01*
X198326247Y-133571427D02*
X198516723Y-133523808D01*
X198516723Y-133523808D02*
X198611961Y-133476189D01*
X198611961Y-133476189D02*
X198707200Y-133380951D01*
X198707200Y-133380951D02*
X198754819Y-133238094D01*
X198754819Y-133238094D02*
X198754819Y-133142856D01*
X198754819Y-133142856D02*
X198707200Y-132999999D01*
X198707200Y-132999999D02*
X198659580Y-132952380D01*
X198659580Y-132952380D02*
X198326247Y-132952380D01*
X198326247Y-132952380D02*
X198326247Y-133142856D01*
X198754819Y-132523808D02*
X197754819Y-132523808D01*
X197754819Y-132523808D02*
X198754819Y-131952380D01*
X198754819Y-131952380D02*
X197754819Y-131952380D01*
X198754819Y-131476189D02*
X197754819Y-131476189D01*
X197754819Y-131476189D02*
X197754819Y-131238094D01*
X197754819Y-131238094D02*
X197802438Y-131095237D01*
X197802438Y-131095237D02*
X197897676Y-130999999D01*
X197897676Y-130999999D02*
X197992914Y-130952380D01*
X197992914Y-130952380D02*
X198183390Y-130904761D01*
X198183390Y-130904761D02*
X198326247Y-130904761D01*
X198326247Y-130904761D02*
X198516723Y-130952380D01*
X198516723Y-130952380D02*
X198611961Y-130999999D01*
X198611961Y-130999999D02*
X198707200Y-131095237D01*
X198707200Y-131095237D02*
X198754819Y-131238094D01*
X198754819Y-131238094D02*
X198754819Y-131476189D01*
X230721009Y-150933333D02*
X230721009Y-151266666D01*
X231244819Y-151266666D02*
X230244819Y-151266666D01*
X230244819Y-151266666D02*
X230244819Y-150790476D01*
X230721009Y-150076190D02*
X230768628Y-149933333D01*
X230768628Y-149933333D02*
X230816247Y-149885714D01*
X230816247Y-149885714D02*
X230911485Y-149838095D01*
X230911485Y-149838095D02*
X231054342Y-149838095D01*
X231054342Y-149838095D02*
X231149580Y-149885714D01*
X231149580Y-149885714D02*
X231197200Y-149933333D01*
X231197200Y-149933333D02*
X231244819Y-150028571D01*
X231244819Y-150028571D02*
X231244819Y-150409523D01*
X231244819Y-150409523D02*
X230244819Y-150409523D01*
X230244819Y-150409523D02*
X230244819Y-150076190D01*
X230244819Y-150076190D02*
X230292438Y-149980952D01*
X230292438Y-149980952D02*
X230340057Y-149933333D01*
X230340057Y-149933333D02*
X230435295Y-149885714D01*
X230435295Y-149885714D02*
X230530533Y-149885714D01*
X230530533Y-149885714D02*
X230625771Y-149933333D01*
X230625771Y-149933333D02*
X230673390Y-149980952D01*
X230673390Y-149980952D02*
X230721009Y-150076190D01*
X230721009Y-150076190D02*
X230721009Y-150409523D01*
X230244819Y-149504761D02*
X230244819Y-148885714D01*
X230244819Y-148885714D02*
X230625771Y-149219047D01*
X230625771Y-149219047D02*
X230625771Y-149076190D01*
X230625771Y-149076190D02*
X230673390Y-148980952D01*
X230673390Y-148980952D02*
X230721009Y-148933333D01*
X230721009Y-148933333D02*
X230816247Y-148885714D01*
X230816247Y-148885714D02*
X231054342Y-148885714D01*
X231054342Y-148885714D02*
X231149580Y-148933333D01*
X231149580Y-148933333D02*
X231197200Y-148980952D01*
X231197200Y-148980952D02*
X231244819Y-149076190D01*
X231244819Y-149076190D02*
X231244819Y-149361904D01*
X231244819Y-149361904D02*
X231197200Y-149457142D01*
X231197200Y-149457142D02*
X231149580Y-149504761D01*
X235838095Y-193252438D02*
X235742857Y-193204819D01*
X235742857Y-193204819D02*
X235600000Y-193204819D01*
X235600000Y-193204819D02*
X235457143Y-193252438D01*
X235457143Y-193252438D02*
X235361905Y-193347676D01*
X235361905Y-193347676D02*
X235314286Y-193442914D01*
X235314286Y-193442914D02*
X235266667Y-193633390D01*
X235266667Y-193633390D02*
X235266667Y-193776247D01*
X235266667Y-193776247D02*
X235314286Y-193966723D01*
X235314286Y-193966723D02*
X235361905Y-194061961D01*
X235361905Y-194061961D02*
X235457143Y-194157200D01*
X235457143Y-194157200D02*
X235600000Y-194204819D01*
X235600000Y-194204819D02*
X235695238Y-194204819D01*
X235695238Y-194204819D02*
X235838095Y-194157200D01*
X235838095Y-194157200D02*
X235885714Y-194109580D01*
X235885714Y-194109580D02*
X235885714Y-193776247D01*
X235885714Y-193776247D02*
X235695238Y-193776247D01*
X236314286Y-194204819D02*
X236314286Y-193204819D01*
X236314286Y-193204819D02*
X236885714Y-194204819D01*
X236885714Y-194204819D02*
X236885714Y-193204819D01*
X237361905Y-194204819D02*
X237361905Y-193204819D01*
X237361905Y-193204819D02*
X237600000Y-193204819D01*
X237600000Y-193204819D02*
X237742857Y-193252438D01*
X237742857Y-193252438D02*
X237838095Y-193347676D01*
X237838095Y-193347676D02*
X237885714Y-193442914D01*
X237885714Y-193442914D02*
X237933333Y-193633390D01*
X237933333Y-193633390D02*
X237933333Y-193776247D01*
X237933333Y-193776247D02*
X237885714Y-193966723D01*
X237885714Y-193966723D02*
X237838095Y-194061961D01*
X237838095Y-194061961D02*
X237742857Y-194157200D01*
X237742857Y-194157200D02*
X237600000Y-194204819D01*
X237600000Y-194204819D02*
X237361905Y-194204819D01*
X234611905Y-114704819D02*
X234611905Y-113704819D01*
X234611905Y-113704819D02*
X234850000Y-113704819D01*
X234850000Y-113704819D02*
X234992857Y-113752438D01*
X234992857Y-113752438D02*
X235088095Y-113847676D01*
X235088095Y-113847676D02*
X235135714Y-113942914D01*
X235135714Y-113942914D02*
X235183333Y-114133390D01*
X235183333Y-114133390D02*
X235183333Y-114276247D01*
X235183333Y-114276247D02*
X235135714Y-114466723D01*
X235135714Y-114466723D02*
X235088095Y-114561961D01*
X235088095Y-114561961D02*
X234992857Y-114657200D01*
X234992857Y-114657200D02*
X234850000Y-114704819D01*
X234850000Y-114704819D02*
X234611905Y-114704819D01*
X235564286Y-113800057D02*
X235611905Y-113752438D01*
X235611905Y-113752438D02*
X235707143Y-113704819D01*
X235707143Y-113704819D02*
X235945238Y-113704819D01*
X235945238Y-113704819D02*
X236040476Y-113752438D01*
X236040476Y-113752438D02*
X236088095Y-113800057D01*
X236088095Y-113800057D02*
X236135714Y-113895295D01*
X236135714Y-113895295D02*
X236135714Y-113990533D01*
X236135714Y-113990533D02*
X236088095Y-114133390D01*
X236088095Y-114133390D02*
X235516667Y-114704819D01*
X235516667Y-114704819D02*
X236135714Y-114704819D01*
X229538095Y-193004819D02*
X229538095Y-193814342D01*
X229538095Y-193814342D02*
X229585714Y-193909580D01*
X229585714Y-193909580D02*
X229633333Y-193957200D01*
X229633333Y-193957200D02*
X229728571Y-194004819D01*
X229728571Y-194004819D02*
X229919047Y-194004819D01*
X229919047Y-194004819D02*
X230014285Y-193957200D01*
X230014285Y-193957200D02*
X230061904Y-193909580D01*
X230061904Y-193909580D02*
X230109523Y-193814342D01*
X230109523Y-193814342D02*
X230109523Y-193004819D01*
X230490476Y-193004819D02*
X231109523Y-193004819D01*
X231109523Y-193004819D02*
X230776190Y-193385771D01*
X230776190Y-193385771D02*
X230919047Y-193385771D01*
X230919047Y-193385771D02*
X231014285Y-193433390D01*
X231014285Y-193433390D02*
X231061904Y-193481009D01*
X231061904Y-193481009D02*
X231109523Y-193576247D01*
X231109523Y-193576247D02*
X231109523Y-193814342D01*
X231109523Y-193814342D02*
X231061904Y-193909580D01*
X231061904Y-193909580D02*
X231014285Y-193957200D01*
X231014285Y-193957200D02*
X230919047Y-194004819D01*
X230919047Y-194004819D02*
X230633333Y-194004819D01*
X230633333Y-194004819D02*
X230538095Y-193957200D01*
X230538095Y-193957200D02*
X230490476Y-193909580D01*
X199966666Y-149554819D02*
X199966666Y-150269104D01*
X199966666Y-150269104D02*
X199919047Y-150411961D01*
X199919047Y-150411961D02*
X199823809Y-150507200D01*
X199823809Y-150507200D02*
X199680952Y-150554819D01*
X199680952Y-150554819D02*
X199585714Y-150554819D01*
X200919047Y-149554819D02*
X200442857Y-149554819D01*
X200442857Y-149554819D02*
X200395238Y-150031009D01*
X200395238Y-150031009D02*
X200442857Y-149983390D01*
X200442857Y-149983390D02*
X200538095Y-149935771D01*
X200538095Y-149935771D02*
X200776190Y-149935771D01*
X200776190Y-149935771D02*
X200871428Y-149983390D01*
X200871428Y-149983390D02*
X200919047Y-150031009D01*
X200919047Y-150031009D02*
X200966666Y-150126247D01*
X200966666Y-150126247D02*
X200966666Y-150364342D01*
X200966666Y-150364342D02*
X200919047Y-150459580D01*
X200919047Y-150459580D02*
X200871428Y-150507200D01*
X200871428Y-150507200D02*
X200776190Y-150554819D01*
X200776190Y-150554819D02*
X200538095Y-150554819D01*
X200538095Y-150554819D02*
X200442857Y-150507200D01*
X200442857Y-150507200D02*
X200395238Y-150459580D01*
X199507142Y-113434819D02*
X199173809Y-112958628D01*
X198935714Y-113434819D02*
X198935714Y-112434819D01*
X198935714Y-112434819D02*
X199316666Y-112434819D01*
X199316666Y-112434819D02*
X199411904Y-112482438D01*
X199411904Y-112482438D02*
X199459523Y-112530057D01*
X199459523Y-112530057D02*
X199507142Y-112625295D01*
X199507142Y-112625295D02*
X199507142Y-112768152D01*
X199507142Y-112768152D02*
X199459523Y-112863390D01*
X199459523Y-112863390D02*
X199411904Y-112911009D01*
X199411904Y-112911009D02*
X199316666Y-112958628D01*
X199316666Y-112958628D02*
X198935714Y-112958628D01*
X200459523Y-113434819D02*
X199888095Y-113434819D01*
X200173809Y-113434819D02*
X200173809Y-112434819D01*
X200173809Y-112434819D02*
X200078571Y-112577676D01*
X200078571Y-112577676D02*
X199983333Y-112672914D01*
X199983333Y-112672914D02*
X199888095Y-112720533D01*
X201316666Y-112768152D02*
X201316666Y-113434819D01*
X201078571Y-112387200D02*
X200840476Y-113101485D01*
X200840476Y-113101485D02*
X201459523Y-113101485D01*
X172626190Y-199204819D02*
X172292857Y-198728628D01*
X172054762Y-199204819D02*
X172054762Y-198204819D01*
X172054762Y-198204819D02*
X172435714Y-198204819D01*
X172435714Y-198204819D02*
X172530952Y-198252438D01*
X172530952Y-198252438D02*
X172578571Y-198300057D01*
X172578571Y-198300057D02*
X172626190Y-198395295D01*
X172626190Y-198395295D02*
X172626190Y-198538152D01*
X172626190Y-198538152D02*
X172578571Y-198633390D01*
X172578571Y-198633390D02*
X172530952Y-198681009D01*
X172530952Y-198681009D02*
X172435714Y-198728628D01*
X172435714Y-198728628D02*
X172054762Y-198728628D01*
X173007143Y-199157200D02*
X173150000Y-199204819D01*
X173150000Y-199204819D02*
X173388095Y-199204819D01*
X173388095Y-199204819D02*
X173483333Y-199157200D01*
X173483333Y-199157200D02*
X173530952Y-199109580D01*
X173530952Y-199109580D02*
X173578571Y-199014342D01*
X173578571Y-199014342D02*
X173578571Y-198919104D01*
X173578571Y-198919104D02*
X173530952Y-198823866D01*
X173530952Y-198823866D02*
X173483333Y-198776247D01*
X173483333Y-198776247D02*
X173388095Y-198728628D01*
X173388095Y-198728628D02*
X173197619Y-198681009D01*
X173197619Y-198681009D02*
X173102381Y-198633390D01*
X173102381Y-198633390D02*
X173054762Y-198585771D01*
X173054762Y-198585771D02*
X173007143Y-198490533D01*
X173007143Y-198490533D02*
X173007143Y-198395295D01*
X173007143Y-198395295D02*
X173054762Y-198300057D01*
X173054762Y-198300057D02*
X173102381Y-198252438D01*
X173102381Y-198252438D02*
X173197619Y-198204819D01*
X173197619Y-198204819D02*
X173435714Y-198204819D01*
X173435714Y-198204819D02*
X173578571Y-198252438D01*
X173864286Y-198204819D02*
X174435714Y-198204819D01*
X174150000Y-199204819D02*
X174150000Y-198204819D01*
X175292857Y-199204819D02*
X174721429Y-199204819D01*
X175007143Y-199204819D02*
X175007143Y-198204819D01*
X175007143Y-198204819D02*
X174911905Y-198347676D01*
X174911905Y-198347676D02*
X174816667Y-198442914D01*
X174816667Y-198442914D02*
X174721429Y-198490533D01*
X199091071Y-118550057D02*
X198995833Y-118502438D01*
X198995833Y-118502438D02*
X198900595Y-118407200D01*
X198900595Y-118407200D02*
X198757738Y-118264342D01*
X198757738Y-118264342D02*
X198662500Y-118216723D01*
X198662500Y-118216723D02*
X198567262Y-118216723D01*
X198614881Y-118454819D02*
X198519643Y-118407200D01*
X198519643Y-118407200D02*
X198424405Y-118311961D01*
X198424405Y-118311961D02*
X198376786Y-118121485D01*
X198376786Y-118121485D02*
X198376786Y-117788152D01*
X198376786Y-117788152D02*
X198424405Y-117597676D01*
X198424405Y-117597676D02*
X198519643Y-117502438D01*
X198519643Y-117502438D02*
X198614881Y-117454819D01*
X198614881Y-117454819D02*
X198805357Y-117454819D01*
X198805357Y-117454819D02*
X198900595Y-117502438D01*
X198900595Y-117502438D02*
X198995833Y-117597676D01*
X198995833Y-117597676D02*
X199043452Y-117788152D01*
X199043452Y-117788152D02*
X199043452Y-118121485D01*
X199043452Y-118121485D02*
X198995833Y-118311961D01*
X198995833Y-118311961D02*
X198900595Y-118407200D01*
X198900595Y-118407200D02*
X198805357Y-118454819D01*
X198805357Y-118454819D02*
X198614881Y-118454819D01*
X199995833Y-118454819D02*
X199424405Y-118454819D01*
X199710119Y-118454819D02*
X199710119Y-117454819D01*
X199710119Y-117454819D02*
X199614881Y-117597676D01*
X199614881Y-117597676D02*
X199519643Y-117692914D01*
X199519643Y-117692914D02*
X199424405Y-117740533D01*
X200614881Y-117454819D02*
X200710119Y-117454819D01*
X200710119Y-117454819D02*
X200805357Y-117502438D01*
X200805357Y-117502438D02*
X200852976Y-117550057D01*
X200852976Y-117550057D02*
X200900595Y-117645295D01*
X200900595Y-117645295D02*
X200948214Y-117835771D01*
X200948214Y-117835771D02*
X200948214Y-118073866D01*
X200948214Y-118073866D02*
X200900595Y-118264342D01*
X200900595Y-118264342D02*
X200852976Y-118359580D01*
X200852976Y-118359580D02*
X200805357Y-118407200D01*
X200805357Y-118407200D02*
X200710119Y-118454819D01*
X200710119Y-118454819D02*
X200614881Y-118454819D01*
X200614881Y-118454819D02*
X200519643Y-118407200D01*
X200519643Y-118407200D02*
X200472024Y-118359580D01*
X200472024Y-118359580D02*
X200424405Y-118264342D01*
X200424405Y-118264342D02*
X200376786Y-118073866D01*
X200376786Y-118073866D02*
X200376786Y-117835771D01*
X200376786Y-117835771D02*
X200424405Y-117645295D01*
X200424405Y-117645295D02*
X200472024Y-117550057D01*
X200472024Y-117550057D02*
X200519643Y-117502438D01*
X200519643Y-117502438D02*
X200614881Y-117454819D01*
X241733333Y-124159580D02*
X241685714Y-124207200D01*
X241685714Y-124207200D02*
X241542857Y-124254819D01*
X241542857Y-124254819D02*
X241447619Y-124254819D01*
X241447619Y-124254819D02*
X241304762Y-124207200D01*
X241304762Y-124207200D02*
X241209524Y-124111961D01*
X241209524Y-124111961D02*
X241161905Y-124016723D01*
X241161905Y-124016723D02*
X241114286Y-123826247D01*
X241114286Y-123826247D02*
X241114286Y-123683390D01*
X241114286Y-123683390D02*
X241161905Y-123492914D01*
X241161905Y-123492914D02*
X241209524Y-123397676D01*
X241209524Y-123397676D02*
X241304762Y-123302438D01*
X241304762Y-123302438D02*
X241447619Y-123254819D01*
X241447619Y-123254819D02*
X241542857Y-123254819D01*
X241542857Y-123254819D02*
X241685714Y-123302438D01*
X241685714Y-123302438D02*
X241733333Y-123350057D01*
X242590476Y-123588152D02*
X242590476Y-124254819D01*
X242352381Y-123207200D02*
X242114286Y-123921485D01*
X242114286Y-123921485D02*
X242733333Y-123921485D01*
X176975302Y-137559249D02*
X176927683Y-137654487D01*
X176927683Y-137654487D02*
X176832445Y-137749725D01*
X176832445Y-137749725D02*
X176689587Y-137892582D01*
X176689587Y-137892582D02*
X176641968Y-137987820D01*
X176641968Y-137987820D02*
X176641968Y-138083058D01*
X176880064Y-138035439D02*
X176832445Y-138130677D01*
X176832445Y-138130677D02*
X176737206Y-138225915D01*
X176737206Y-138225915D02*
X176546730Y-138273534D01*
X176546730Y-138273534D02*
X176213397Y-138273534D01*
X176213397Y-138273534D02*
X176022921Y-138225915D01*
X176022921Y-138225915D02*
X175927683Y-138130677D01*
X175927683Y-138130677D02*
X175880064Y-138035439D01*
X175880064Y-138035439D02*
X175880064Y-137844963D01*
X175880064Y-137844963D02*
X175927683Y-137749725D01*
X175927683Y-137749725D02*
X176022921Y-137654487D01*
X176022921Y-137654487D02*
X176213397Y-137606868D01*
X176213397Y-137606868D02*
X176546730Y-137606868D01*
X176546730Y-137606868D02*
X176737206Y-137654487D01*
X176737206Y-137654487D02*
X176832445Y-137749725D01*
X176832445Y-137749725D02*
X176880064Y-137844963D01*
X176880064Y-137844963D02*
X176880064Y-138035439D01*
X175880064Y-136987820D02*
X175880064Y-136892582D01*
X175880064Y-136892582D02*
X175927683Y-136797344D01*
X175927683Y-136797344D02*
X175975302Y-136749725D01*
X175975302Y-136749725D02*
X176070540Y-136702106D01*
X176070540Y-136702106D02*
X176261016Y-136654487D01*
X176261016Y-136654487D02*
X176499111Y-136654487D01*
X176499111Y-136654487D02*
X176689587Y-136702106D01*
X176689587Y-136702106D02*
X176784825Y-136749725D01*
X176784825Y-136749725D02*
X176832445Y-136797344D01*
X176832445Y-136797344D02*
X176880064Y-136892582D01*
X176880064Y-136892582D02*
X176880064Y-136987820D01*
X176880064Y-136987820D02*
X176832445Y-137083058D01*
X176832445Y-137083058D02*
X176784825Y-137130677D01*
X176784825Y-137130677D02*
X176689587Y-137178296D01*
X176689587Y-137178296D02*
X176499111Y-137225915D01*
X176499111Y-137225915D02*
X176261016Y-137225915D01*
X176261016Y-137225915D02*
X176070540Y-137178296D01*
X176070540Y-137178296D02*
X175975302Y-137130677D01*
X175975302Y-137130677D02*
X175927683Y-137083058D01*
X175927683Y-137083058D02*
X175880064Y-136987820D01*
X176880064Y-132702105D02*
X175880064Y-132702105D01*
X175880064Y-132702105D02*
X175880064Y-132464010D01*
X175880064Y-132464010D02*
X175927683Y-132321153D01*
X175927683Y-132321153D02*
X176022921Y-132225915D01*
X176022921Y-132225915D02*
X176118159Y-132178296D01*
X176118159Y-132178296D02*
X176308635Y-132130677D01*
X176308635Y-132130677D02*
X176451492Y-132130677D01*
X176451492Y-132130677D02*
X176641968Y-132178296D01*
X176641968Y-132178296D02*
X176737206Y-132225915D01*
X176737206Y-132225915D02*
X176832445Y-132321153D01*
X176832445Y-132321153D02*
X176880064Y-132464010D01*
X176880064Y-132464010D02*
X176880064Y-132702105D01*
X175880064Y-131511629D02*
X175880064Y-131416391D01*
X175880064Y-131416391D02*
X175927683Y-131321153D01*
X175927683Y-131321153D02*
X175975302Y-131273534D01*
X175975302Y-131273534D02*
X176070540Y-131225915D01*
X176070540Y-131225915D02*
X176261016Y-131178296D01*
X176261016Y-131178296D02*
X176499111Y-131178296D01*
X176499111Y-131178296D02*
X176689587Y-131225915D01*
X176689587Y-131225915D02*
X176784825Y-131273534D01*
X176784825Y-131273534D02*
X176832445Y-131321153D01*
X176832445Y-131321153D02*
X176880064Y-131416391D01*
X176880064Y-131416391D02*
X176880064Y-131511629D01*
X176880064Y-131511629D02*
X176832445Y-131606867D01*
X176832445Y-131606867D02*
X176784825Y-131654486D01*
X176784825Y-131654486D02*
X176689587Y-131702105D01*
X176689587Y-131702105D02*
X176499111Y-131749724D01*
X176499111Y-131749724D02*
X176261016Y-131749724D01*
X176261016Y-131749724D02*
X176070540Y-131702105D01*
X176070540Y-131702105D02*
X175975302Y-131654486D01*
X175975302Y-131654486D02*
X175927683Y-131606867D01*
X175927683Y-131606867D02*
X175880064Y-131511629D01*
X172316667Y-197457200D02*
X172459524Y-197504819D01*
X172459524Y-197504819D02*
X172697619Y-197504819D01*
X172697619Y-197504819D02*
X172792857Y-197457200D01*
X172792857Y-197457200D02*
X172840476Y-197409580D01*
X172840476Y-197409580D02*
X172888095Y-197314342D01*
X172888095Y-197314342D02*
X172888095Y-197219104D01*
X172888095Y-197219104D02*
X172840476Y-197123866D01*
X172840476Y-197123866D02*
X172792857Y-197076247D01*
X172792857Y-197076247D02*
X172697619Y-197028628D01*
X172697619Y-197028628D02*
X172507143Y-196981009D01*
X172507143Y-196981009D02*
X172411905Y-196933390D01*
X172411905Y-196933390D02*
X172364286Y-196885771D01*
X172364286Y-196885771D02*
X172316667Y-196790533D01*
X172316667Y-196790533D02*
X172316667Y-196695295D01*
X172316667Y-196695295D02*
X172364286Y-196600057D01*
X172364286Y-196600057D02*
X172411905Y-196552438D01*
X172411905Y-196552438D02*
X172507143Y-196504819D01*
X172507143Y-196504819D02*
X172745238Y-196504819D01*
X172745238Y-196504819D02*
X172888095Y-196552438D01*
X173221429Y-196504819D02*
X173459524Y-197504819D01*
X173459524Y-197504819D02*
X173650000Y-196790533D01*
X173650000Y-196790533D02*
X173840476Y-197504819D01*
X173840476Y-197504819D02*
X174078572Y-196504819D01*
X174364286Y-196504819D02*
X174983333Y-196504819D01*
X174983333Y-196504819D02*
X174650000Y-196885771D01*
X174650000Y-196885771D02*
X174792857Y-196885771D01*
X174792857Y-196885771D02*
X174888095Y-196933390D01*
X174888095Y-196933390D02*
X174935714Y-196981009D01*
X174935714Y-196981009D02*
X174983333Y-197076247D01*
X174983333Y-197076247D02*
X174983333Y-197314342D01*
X174983333Y-197314342D02*
X174935714Y-197409580D01*
X174935714Y-197409580D02*
X174888095Y-197457200D01*
X174888095Y-197457200D02*
X174792857Y-197504819D01*
X174792857Y-197504819D02*
X174507143Y-197504819D01*
X174507143Y-197504819D02*
X174411905Y-197457200D01*
X174411905Y-197457200D02*
X174364286Y-197409580D01*
X216764286Y-169904819D02*
X216764286Y-168904819D01*
X216764286Y-168904819D02*
X217097619Y-169619104D01*
X217097619Y-169619104D02*
X217430952Y-168904819D01*
X217430952Y-168904819D02*
X217430952Y-169904819D01*
X217669048Y-170000057D02*
X218430952Y-170000057D01*
X218669048Y-169904819D02*
X218669048Y-168904819D01*
X218669048Y-168904819D02*
X219002381Y-169619104D01*
X219002381Y-169619104D02*
X219335714Y-168904819D01*
X219335714Y-168904819D02*
X219335714Y-169904819D01*
X219811905Y-169904819D02*
X219811905Y-168904819D01*
X219811905Y-169381009D02*
X220383333Y-169381009D01*
X220383333Y-169904819D02*
X220383333Y-168904819D01*
X220811905Y-169000057D02*
X220859524Y-168952438D01*
X220859524Y-168952438D02*
X220954762Y-168904819D01*
X220954762Y-168904819D02*
X221192857Y-168904819D01*
X221192857Y-168904819D02*
X221288095Y-168952438D01*
X221288095Y-168952438D02*
X221335714Y-169000057D01*
X221335714Y-169000057D02*
X221383333Y-169095295D01*
X221383333Y-169095295D02*
X221383333Y-169190533D01*
X221383333Y-169190533D02*
X221335714Y-169333390D01*
X221335714Y-169333390D02*
X220764286Y-169904819D01*
X220764286Y-169904819D02*
X221383333Y-169904819D01*
X195266666Y-149554819D02*
X195266666Y-150269104D01*
X195266666Y-150269104D02*
X195219047Y-150411961D01*
X195219047Y-150411961D02*
X195123809Y-150507200D01*
X195123809Y-150507200D02*
X194980952Y-150554819D01*
X194980952Y-150554819D02*
X194885714Y-150554819D01*
X195695238Y-149650057D02*
X195742857Y-149602438D01*
X195742857Y-149602438D02*
X195838095Y-149554819D01*
X195838095Y-149554819D02*
X196076190Y-149554819D01*
X196076190Y-149554819D02*
X196171428Y-149602438D01*
X196171428Y-149602438D02*
X196219047Y-149650057D01*
X196219047Y-149650057D02*
X196266666Y-149745295D01*
X196266666Y-149745295D02*
X196266666Y-149840533D01*
X196266666Y-149840533D02*
X196219047Y-149983390D01*
X196219047Y-149983390D02*
X195647619Y-150554819D01*
X195647619Y-150554819D02*
X196266666Y-150554819D01*
X230831009Y-163533333D02*
X230831009Y-163866666D01*
X231354819Y-163866666D02*
X230354819Y-163866666D01*
X230354819Y-163866666D02*
X230354819Y-163390476D01*
X230831009Y-162676190D02*
X230878628Y-162533333D01*
X230878628Y-162533333D02*
X230926247Y-162485714D01*
X230926247Y-162485714D02*
X231021485Y-162438095D01*
X231021485Y-162438095D02*
X231164342Y-162438095D01*
X231164342Y-162438095D02*
X231259580Y-162485714D01*
X231259580Y-162485714D02*
X231307200Y-162533333D01*
X231307200Y-162533333D02*
X231354819Y-162628571D01*
X231354819Y-162628571D02*
X231354819Y-163009523D01*
X231354819Y-163009523D02*
X230354819Y-163009523D01*
X230354819Y-163009523D02*
X230354819Y-162676190D01*
X230354819Y-162676190D02*
X230402438Y-162580952D01*
X230402438Y-162580952D02*
X230450057Y-162533333D01*
X230450057Y-162533333D02*
X230545295Y-162485714D01*
X230545295Y-162485714D02*
X230640533Y-162485714D01*
X230640533Y-162485714D02*
X230735771Y-162533333D01*
X230735771Y-162533333D02*
X230783390Y-162580952D01*
X230783390Y-162580952D02*
X230831009Y-162676190D01*
X230831009Y-162676190D02*
X230831009Y-163009523D01*
X230688152Y-161580952D02*
X231354819Y-161580952D01*
X230307200Y-161819047D02*
X231021485Y-162057142D01*
X231021485Y-162057142D02*
X231021485Y-161438095D01*
X233366666Y-148454819D02*
X233366666Y-149169104D01*
X233366666Y-149169104D02*
X233319047Y-149311961D01*
X233319047Y-149311961D02*
X233223809Y-149407200D01*
X233223809Y-149407200D02*
X233080952Y-149454819D01*
X233080952Y-149454819D02*
X232985714Y-149454819D01*
X234366666Y-149454819D02*
X233795238Y-149454819D01*
X234080952Y-149454819D02*
X234080952Y-148454819D01*
X234080952Y-148454819D02*
X233985714Y-148597676D01*
X233985714Y-148597676D02*
X233890476Y-148692914D01*
X233890476Y-148692914D02*
X233795238Y-148740533D01*
X236815476Y-148459819D02*
X236815476Y-149174104D01*
X236815476Y-149174104D02*
X236767857Y-149316961D01*
X236767857Y-149316961D02*
X236672619Y-149412200D01*
X236672619Y-149412200D02*
X236529762Y-149459819D01*
X236529762Y-149459819D02*
X236434524Y-149459819D01*
X237815476Y-149459819D02*
X237244048Y-149459819D01*
X237529762Y-149459819D02*
X237529762Y-148459819D01*
X237529762Y-148459819D02*
X237434524Y-148602676D01*
X237434524Y-148602676D02*
X237339286Y-148697914D01*
X237339286Y-148697914D02*
X237244048Y-148745533D01*
X238434524Y-148459819D02*
X238529762Y-148459819D01*
X238529762Y-148459819D02*
X238625000Y-148507438D01*
X238625000Y-148507438D02*
X238672619Y-148555057D01*
X238672619Y-148555057D02*
X238720238Y-148650295D01*
X238720238Y-148650295D02*
X238767857Y-148840771D01*
X238767857Y-148840771D02*
X238767857Y-149078866D01*
X238767857Y-149078866D02*
X238720238Y-149269342D01*
X238720238Y-149269342D02*
X238672619Y-149364580D01*
X238672619Y-149364580D02*
X238625000Y-149412200D01*
X238625000Y-149412200D02*
X238529762Y-149459819D01*
X238529762Y-149459819D02*
X238434524Y-149459819D01*
X238434524Y-149459819D02*
X238339286Y-149412200D01*
X238339286Y-149412200D02*
X238291667Y-149364580D01*
X238291667Y-149364580D02*
X238244048Y-149269342D01*
X238244048Y-149269342D02*
X238196429Y-149078866D01*
X238196429Y-149078866D02*
X238196429Y-148840771D01*
X238196429Y-148840771D02*
X238244048Y-148650295D01*
X238244048Y-148650295D02*
X238291667Y-148555057D01*
X238291667Y-148555057D02*
X238339286Y-148507438D01*
X238339286Y-148507438D02*
X238434524Y-148459819D01*
X203219047Y-193431009D02*
X203361904Y-193478628D01*
X203361904Y-193478628D02*
X203409523Y-193526247D01*
X203409523Y-193526247D02*
X203457142Y-193621485D01*
X203457142Y-193621485D02*
X203457142Y-193764342D01*
X203457142Y-193764342D02*
X203409523Y-193859580D01*
X203409523Y-193859580D02*
X203361904Y-193907200D01*
X203361904Y-193907200D02*
X203266666Y-193954819D01*
X203266666Y-193954819D02*
X202885714Y-193954819D01*
X202885714Y-193954819D02*
X202885714Y-192954819D01*
X202885714Y-192954819D02*
X203219047Y-192954819D01*
X203219047Y-192954819D02*
X203314285Y-193002438D01*
X203314285Y-193002438D02*
X203361904Y-193050057D01*
X203361904Y-193050057D02*
X203409523Y-193145295D01*
X203409523Y-193145295D02*
X203409523Y-193240533D01*
X203409523Y-193240533D02*
X203361904Y-193335771D01*
X203361904Y-193335771D02*
X203314285Y-193383390D01*
X203314285Y-193383390D02*
X203219047Y-193431009D01*
X203219047Y-193431009D02*
X202885714Y-193431009D01*
X203790476Y-192954819D02*
X204457142Y-192954819D01*
X204457142Y-192954819D02*
X203790476Y-193954819D01*
X203790476Y-193954819D02*
X204457142Y-193954819D01*
X205361904Y-193954819D02*
X204790476Y-193954819D01*
X205076190Y-193954819D02*
X205076190Y-192954819D01*
X205076190Y-192954819D02*
X204980952Y-193097676D01*
X204980952Y-193097676D02*
X204885714Y-193192914D01*
X204885714Y-193192914D02*
X204790476Y-193240533D01*
X207219048Y-199173866D02*
X207980953Y-199173866D01*
X207600000Y-199554819D02*
X207600000Y-198792914D01*
X249933333Y-119904819D02*
X249600000Y-119428628D01*
X249361905Y-119904819D02*
X249361905Y-118904819D01*
X249361905Y-118904819D02*
X249742857Y-118904819D01*
X249742857Y-118904819D02*
X249838095Y-118952438D01*
X249838095Y-118952438D02*
X249885714Y-119000057D01*
X249885714Y-119000057D02*
X249933333Y-119095295D01*
X249933333Y-119095295D02*
X249933333Y-119238152D01*
X249933333Y-119238152D02*
X249885714Y-119333390D01*
X249885714Y-119333390D02*
X249838095Y-119381009D01*
X249838095Y-119381009D02*
X249742857Y-119428628D01*
X249742857Y-119428628D02*
X249361905Y-119428628D01*
X250266667Y-118904819D02*
X250885714Y-118904819D01*
X250885714Y-118904819D02*
X250552381Y-119285771D01*
X250552381Y-119285771D02*
X250695238Y-119285771D01*
X250695238Y-119285771D02*
X250790476Y-119333390D01*
X250790476Y-119333390D02*
X250838095Y-119381009D01*
X250838095Y-119381009D02*
X250885714Y-119476247D01*
X250885714Y-119476247D02*
X250885714Y-119714342D01*
X250885714Y-119714342D02*
X250838095Y-119809580D01*
X250838095Y-119809580D02*
X250790476Y-119857200D01*
X250790476Y-119857200D02*
X250695238Y-119904819D01*
X250695238Y-119904819D02*
X250409524Y-119904819D01*
X250409524Y-119904819D02*
X250314286Y-119857200D01*
X250314286Y-119857200D02*
X250266667Y-119809580D01*
X182261905Y-154604819D02*
X182261905Y-153604819D01*
X182261905Y-153604819D02*
X182500000Y-153604819D01*
X182500000Y-153604819D02*
X182642857Y-153652438D01*
X182642857Y-153652438D02*
X182738095Y-153747676D01*
X182738095Y-153747676D02*
X182785714Y-153842914D01*
X182785714Y-153842914D02*
X182833333Y-154033390D01*
X182833333Y-154033390D02*
X182833333Y-154176247D01*
X182833333Y-154176247D02*
X182785714Y-154366723D01*
X182785714Y-154366723D02*
X182738095Y-154461961D01*
X182738095Y-154461961D02*
X182642857Y-154557200D01*
X182642857Y-154557200D02*
X182500000Y-154604819D01*
X182500000Y-154604819D02*
X182261905Y-154604819D01*
X183738095Y-153604819D02*
X183261905Y-153604819D01*
X183261905Y-153604819D02*
X183214286Y-154081009D01*
X183214286Y-154081009D02*
X183261905Y-154033390D01*
X183261905Y-154033390D02*
X183357143Y-153985771D01*
X183357143Y-153985771D02*
X183595238Y-153985771D01*
X183595238Y-153985771D02*
X183690476Y-154033390D01*
X183690476Y-154033390D02*
X183738095Y-154081009D01*
X183738095Y-154081009D02*
X183785714Y-154176247D01*
X183785714Y-154176247D02*
X183785714Y-154414342D01*
X183785714Y-154414342D02*
X183738095Y-154509580D01*
X183738095Y-154509580D02*
X183690476Y-154557200D01*
X183690476Y-154557200D02*
X183595238Y-154604819D01*
X183595238Y-154604819D02*
X183357143Y-154604819D01*
X183357143Y-154604819D02*
X183261905Y-154557200D01*
X183261905Y-154557200D02*
X183214286Y-154509580D01*
X231257142Y-202954819D02*
X230780952Y-202954819D01*
X230780952Y-202954819D02*
X230733333Y-203431009D01*
X230733333Y-203431009D02*
X230780952Y-203383390D01*
X230780952Y-203383390D02*
X230876190Y-203335771D01*
X230876190Y-203335771D02*
X231114285Y-203335771D01*
X231114285Y-203335771D02*
X231209523Y-203383390D01*
X231209523Y-203383390D02*
X231257142Y-203431009D01*
X231257142Y-203431009D02*
X231304761Y-203526247D01*
X231304761Y-203526247D02*
X231304761Y-203764342D01*
X231304761Y-203764342D02*
X231257142Y-203859580D01*
X231257142Y-203859580D02*
X231209523Y-203907200D01*
X231209523Y-203907200D02*
X231114285Y-203954819D01*
X231114285Y-203954819D02*
X230876190Y-203954819D01*
X230876190Y-203954819D02*
X230780952Y-203907200D01*
X230780952Y-203907200D02*
X230733333Y-203859580D01*
X231638095Y-203288152D02*
X231876190Y-203954819D01*
X231876190Y-203954819D02*
X232114285Y-203288152D01*
X179645180Y-149690476D02*
X180645180Y-149690476D01*
X180645180Y-149690476D02*
X179930895Y-150023809D01*
X179930895Y-150023809D02*
X180645180Y-150357142D01*
X180645180Y-150357142D02*
X179645180Y-150357142D01*
X180549942Y-150785714D02*
X180597561Y-150833333D01*
X180597561Y-150833333D02*
X180645180Y-150928571D01*
X180645180Y-150928571D02*
X180645180Y-151166666D01*
X180645180Y-151166666D02*
X180597561Y-151261904D01*
X180597561Y-151261904D02*
X180549942Y-151309523D01*
X180549942Y-151309523D02*
X180454704Y-151357142D01*
X180454704Y-151357142D02*
X180359466Y-151357142D01*
X180359466Y-151357142D02*
X180216609Y-151309523D01*
X180216609Y-151309523D02*
X179645180Y-150738095D01*
X179645180Y-150738095D02*
X179645180Y-151357142D01*
X182261905Y-159204819D02*
X182261905Y-158204819D01*
X182261905Y-158204819D02*
X182500000Y-158204819D01*
X182500000Y-158204819D02*
X182642857Y-158252438D01*
X182642857Y-158252438D02*
X182738095Y-158347676D01*
X182738095Y-158347676D02*
X182785714Y-158442914D01*
X182785714Y-158442914D02*
X182833333Y-158633390D01*
X182833333Y-158633390D02*
X182833333Y-158776247D01*
X182833333Y-158776247D02*
X182785714Y-158966723D01*
X182785714Y-158966723D02*
X182738095Y-159061961D01*
X182738095Y-159061961D02*
X182642857Y-159157200D01*
X182642857Y-159157200D02*
X182500000Y-159204819D01*
X182500000Y-159204819D02*
X182261905Y-159204819D01*
X183690476Y-158538152D02*
X183690476Y-159204819D01*
X183452381Y-158157200D02*
X183214286Y-158871485D01*
X183214286Y-158871485D02*
X183833333Y-158871485D01*
X257278571Y-128650057D02*
X257183333Y-128602438D01*
X257183333Y-128602438D02*
X257088095Y-128507200D01*
X257088095Y-128507200D02*
X256945238Y-128364342D01*
X256945238Y-128364342D02*
X256850000Y-128316723D01*
X256850000Y-128316723D02*
X256754762Y-128316723D01*
X256802381Y-128554819D02*
X256707143Y-128507200D01*
X256707143Y-128507200D02*
X256611905Y-128411961D01*
X256611905Y-128411961D02*
X256564286Y-128221485D01*
X256564286Y-128221485D02*
X256564286Y-127888152D01*
X256564286Y-127888152D02*
X256611905Y-127697676D01*
X256611905Y-127697676D02*
X256707143Y-127602438D01*
X256707143Y-127602438D02*
X256802381Y-127554819D01*
X256802381Y-127554819D02*
X256992857Y-127554819D01*
X256992857Y-127554819D02*
X257088095Y-127602438D01*
X257088095Y-127602438D02*
X257183333Y-127697676D01*
X257183333Y-127697676D02*
X257230952Y-127888152D01*
X257230952Y-127888152D02*
X257230952Y-128221485D01*
X257230952Y-128221485D02*
X257183333Y-128411961D01*
X257183333Y-128411961D02*
X257088095Y-128507200D01*
X257088095Y-128507200D02*
X256992857Y-128554819D01*
X256992857Y-128554819D02*
X256802381Y-128554819D01*
X258183333Y-128554819D02*
X257611905Y-128554819D01*
X257897619Y-128554819D02*
X257897619Y-127554819D01*
X257897619Y-127554819D02*
X257802381Y-127697676D01*
X257802381Y-127697676D02*
X257707143Y-127792914D01*
X257707143Y-127792914D02*
X257611905Y-127840533D01*
X258564286Y-127650057D02*
X258611905Y-127602438D01*
X258611905Y-127602438D02*
X258707143Y-127554819D01*
X258707143Y-127554819D02*
X258945238Y-127554819D01*
X258945238Y-127554819D02*
X259040476Y-127602438D01*
X259040476Y-127602438D02*
X259088095Y-127650057D01*
X259088095Y-127650057D02*
X259135714Y-127745295D01*
X259135714Y-127745295D02*
X259135714Y-127840533D01*
X259135714Y-127840533D02*
X259088095Y-127983390D01*
X259088095Y-127983390D02*
X258516667Y-128554819D01*
X258516667Y-128554819D02*
X259135714Y-128554819D01*
X171967261Y-125350057D02*
X171872023Y-125302438D01*
X171872023Y-125302438D02*
X171776785Y-125207200D01*
X171776785Y-125207200D02*
X171633928Y-125064342D01*
X171633928Y-125064342D02*
X171538690Y-125016723D01*
X171538690Y-125016723D02*
X171443452Y-125016723D01*
X171491071Y-125254819D02*
X171395833Y-125207200D01*
X171395833Y-125207200D02*
X171300595Y-125111961D01*
X171300595Y-125111961D02*
X171252976Y-124921485D01*
X171252976Y-124921485D02*
X171252976Y-124588152D01*
X171252976Y-124588152D02*
X171300595Y-124397676D01*
X171300595Y-124397676D02*
X171395833Y-124302438D01*
X171395833Y-124302438D02*
X171491071Y-124254819D01*
X171491071Y-124254819D02*
X171681547Y-124254819D01*
X171681547Y-124254819D02*
X171776785Y-124302438D01*
X171776785Y-124302438D02*
X171872023Y-124397676D01*
X171872023Y-124397676D02*
X171919642Y-124588152D01*
X171919642Y-124588152D02*
X171919642Y-124921485D01*
X171919642Y-124921485D02*
X171872023Y-125111961D01*
X171872023Y-125111961D02*
X171776785Y-125207200D01*
X171776785Y-125207200D02*
X171681547Y-125254819D01*
X171681547Y-125254819D02*
X171491071Y-125254819D01*
X172395833Y-125254819D02*
X172586309Y-125254819D01*
X172586309Y-125254819D02*
X172681547Y-125207200D01*
X172681547Y-125207200D02*
X172729166Y-125159580D01*
X172729166Y-125159580D02*
X172824404Y-125016723D01*
X172824404Y-125016723D02*
X172872023Y-124826247D01*
X172872023Y-124826247D02*
X172872023Y-124445295D01*
X172872023Y-124445295D02*
X172824404Y-124350057D01*
X172824404Y-124350057D02*
X172776785Y-124302438D01*
X172776785Y-124302438D02*
X172681547Y-124254819D01*
X172681547Y-124254819D02*
X172491071Y-124254819D01*
X172491071Y-124254819D02*
X172395833Y-124302438D01*
X172395833Y-124302438D02*
X172348214Y-124350057D01*
X172348214Y-124350057D02*
X172300595Y-124445295D01*
X172300595Y-124445295D02*
X172300595Y-124683390D01*
X172300595Y-124683390D02*
X172348214Y-124778628D01*
X172348214Y-124778628D02*
X172395833Y-124826247D01*
X172395833Y-124826247D02*
X172491071Y-124873866D01*
X172491071Y-124873866D02*
X172681547Y-124873866D01*
X172681547Y-124873866D02*
X172776785Y-124826247D01*
X172776785Y-124826247D02*
X172824404Y-124778628D01*
X172824404Y-124778628D02*
X172872023Y-124683390D01*
X242359580Y-152766666D02*
X242407200Y-152814285D01*
X242407200Y-152814285D02*
X242454819Y-152957142D01*
X242454819Y-152957142D02*
X242454819Y-153052380D01*
X242454819Y-153052380D02*
X242407200Y-153195237D01*
X242407200Y-153195237D02*
X242311961Y-153290475D01*
X242311961Y-153290475D02*
X242216723Y-153338094D01*
X242216723Y-153338094D02*
X242026247Y-153385713D01*
X242026247Y-153385713D02*
X241883390Y-153385713D01*
X241883390Y-153385713D02*
X241692914Y-153338094D01*
X241692914Y-153338094D02*
X241597676Y-153290475D01*
X241597676Y-153290475D02*
X241502438Y-153195237D01*
X241502438Y-153195237D02*
X241454819Y-153052380D01*
X241454819Y-153052380D02*
X241454819Y-152957142D01*
X241454819Y-152957142D02*
X241502438Y-152814285D01*
X241502438Y-152814285D02*
X241550057Y-152766666D01*
X241454819Y-151909523D02*
X241454819Y-152099999D01*
X241454819Y-152099999D02*
X241502438Y-152195237D01*
X241502438Y-152195237D02*
X241550057Y-152242856D01*
X241550057Y-152242856D02*
X241692914Y-152338094D01*
X241692914Y-152338094D02*
X241883390Y-152385713D01*
X241883390Y-152385713D02*
X242264342Y-152385713D01*
X242264342Y-152385713D02*
X242359580Y-152338094D01*
X242359580Y-152338094D02*
X242407200Y-152290475D01*
X242407200Y-152290475D02*
X242454819Y-152195237D01*
X242454819Y-152195237D02*
X242454819Y-152004761D01*
X242454819Y-152004761D02*
X242407200Y-151909523D01*
X242407200Y-151909523D02*
X242359580Y-151861904D01*
X242359580Y-151861904D02*
X242264342Y-151814285D01*
X242264342Y-151814285D02*
X242026247Y-151814285D01*
X242026247Y-151814285D02*
X241931009Y-151861904D01*
X241931009Y-151861904D02*
X241883390Y-151909523D01*
X241883390Y-151909523D02*
X241835771Y-152004761D01*
X241835771Y-152004761D02*
X241835771Y-152195237D01*
X241835771Y-152195237D02*
X241883390Y-152290475D01*
X241883390Y-152290475D02*
X241931009Y-152338094D01*
X241931009Y-152338094D02*
X242026247Y-152385713D01*
X193254819Y-135595238D02*
X193969104Y-135595238D01*
X193969104Y-135595238D02*
X194111961Y-135642857D01*
X194111961Y-135642857D02*
X194207200Y-135738095D01*
X194207200Y-135738095D02*
X194254819Y-135880952D01*
X194254819Y-135880952D02*
X194254819Y-135976190D01*
X194254819Y-135119047D02*
X193254819Y-135119047D01*
X193254819Y-135119047D02*
X193254819Y-134738095D01*
X193254819Y-134738095D02*
X193302438Y-134642857D01*
X193302438Y-134642857D02*
X193350057Y-134595238D01*
X193350057Y-134595238D02*
X193445295Y-134547619D01*
X193445295Y-134547619D02*
X193588152Y-134547619D01*
X193588152Y-134547619D02*
X193683390Y-134595238D01*
X193683390Y-134595238D02*
X193731009Y-134642857D01*
X193731009Y-134642857D02*
X193778628Y-134738095D01*
X193778628Y-134738095D02*
X193778628Y-135119047D01*
X194350057Y-134357143D02*
X194350057Y-133595238D01*
X194254819Y-132785714D02*
X193778628Y-133119047D01*
X194254819Y-133357142D02*
X193254819Y-133357142D01*
X193254819Y-133357142D02*
X193254819Y-132976190D01*
X193254819Y-132976190D02*
X193302438Y-132880952D01*
X193302438Y-132880952D02*
X193350057Y-132833333D01*
X193350057Y-132833333D02*
X193445295Y-132785714D01*
X193445295Y-132785714D02*
X193588152Y-132785714D01*
X193588152Y-132785714D02*
X193683390Y-132833333D01*
X193683390Y-132833333D02*
X193731009Y-132880952D01*
X193731009Y-132880952D02*
X193778628Y-132976190D01*
X193778628Y-132976190D02*
X193778628Y-133357142D01*
X194207200Y-132404761D02*
X194254819Y-132261904D01*
X194254819Y-132261904D02*
X194254819Y-132023809D01*
X194254819Y-132023809D02*
X194207200Y-131928571D01*
X194207200Y-131928571D02*
X194159580Y-131880952D01*
X194159580Y-131880952D02*
X194064342Y-131833333D01*
X194064342Y-131833333D02*
X193969104Y-131833333D01*
X193969104Y-131833333D02*
X193873866Y-131880952D01*
X193873866Y-131880952D02*
X193826247Y-131928571D01*
X193826247Y-131928571D02*
X193778628Y-132023809D01*
X193778628Y-132023809D02*
X193731009Y-132214285D01*
X193731009Y-132214285D02*
X193683390Y-132309523D01*
X193683390Y-132309523D02*
X193635771Y-132357142D01*
X193635771Y-132357142D02*
X193540533Y-132404761D01*
X193540533Y-132404761D02*
X193445295Y-132404761D01*
X193445295Y-132404761D02*
X193350057Y-132357142D01*
X193350057Y-132357142D02*
X193302438Y-132309523D01*
X193302438Y-132309523D02*
X193254819Y-132214285D01*
X193254819Y-132214285D02*
X193254819Y-131976190D01*
X193254819Y-131976190D02*
X193302438Y-131833333D01*
X193254819Y-131547618D02*
X193254819Y-130976190D01*
X194254819Y-131261904D02*
X193254819Y-131261904D01*
X238538095Y-125704819D02*
X238538095Y-126514342D01*
X238538095Y-126514342D02*
X238585714Y-126609580D01*
X238585714Y-126609580D02*
X238633333Y-126657200D01*
X238633333Y-126657200D02*
X238728571Y-126704819D01*
X238728571Y-126704819D02*
X238919047Y-126704819D01*
X238919047Y-126704819D02*
X239014285Y-126657200D01*
X239014285Y-126657200D02*
X239061904Y-126609580D01*
X239061904Y-126609580D02*
X239109523Y-126514342D01*
X239109523Y-126514342D02*
X239109523Y-125704819D01*
X239538095Y-125800057D02*
X239585714Y-125752438D01*
X239585714Y-125752438D02*
X239680952Y-125704819D01*
X239680952Y-125704819D02*
X239919047Y-125704819D01*
X239919047Y-125704819D02*
X240014285Y-125752438D01*
X240014285Y-125752438D02*
X240061904Y-125800057D01*
X240061904Y-125800057D02*
X240109523Y-125895295D01*
X240109523Y-125895295D02*
X240109523Y-125990533D01*
X240109523Y-125990533D02*
X240061904Y-126133390D01*
X240061904Y-126133390D02*
X239490476Y-126704819D01*
X239490476Y-126704819D02*
X240109523Y-126704819D01*
X204207142Y-188659580D02*
X204159523Y-188707200D01*
X204159523Y-188707200D02*
X204016666Y-188754819D01*
X204016666Y-188754819D02*
X203921428Y-188754819D01*
X203921428Y-188754819D02*
X203778571Y-188707200D01*
X203778571Y-188707200D02*
X203683333Y-188611961D01*
X203683333Y-188611961D02*
X203635714Y-188516723D01*
X203635714Y-188516723D02*
X203588095Y-188326247D01*
X203588095Y-188326247D02*
X203588095Y-188183390D01*
X203588095Y-188183390D02*
X203635714Y-187992914D01*
X203635714Y-187992914D02*
X203683333Y-187897676D01*
X203683333Y-187897676D02*
X203778571Y-187802438D01*
X203778571Y-187802438D02*
X203921428Y-187754819D01*
X203921428Y-187754819D02*
X204016666Y-187754819D01*
X204016666Y-187754819D02*
X204159523Y-187802438D01*
X204159523Y-187802438D02*
X204207142Y-187850057D01*
X205159523Y-188754819D02*
X204588095Y-188754819D01*
X204873809Y-188754819D02*
X204873809Y-187754819D01*
X204873809Y-187754819D02*
X204778571Y-187897676D01*
X204778571Y-187897676D02*
X204683333Y-187992914D01*
X204683333Y-187992914D02*
X204588095Y-188040533D01*
X206016666Y-187754819D02*
X205826190Y-187754819D01*
X205826190Y-187754819D02*
X205730952Y-187802438D01*
X205730952Y-187802438D02*
X205683333Y-187850057D01*
X205683333Y-187850057D02*
X205588095Y-187992914D01*
X205588095Y-187992914D02*
X205540476Y-188183390D01*
X205540476Y-188183390D02*
X205540476Y-188564342D01*
X205540476Y-188564342D02*
X205588095Y-188659580D01*
X205588095Y-188659580D02*
X205635714Y-188707200D01*
X205635714Y-188707200D02*
X205730952Y-188754819D01*
X205730952Y-188754819D02*
X205921428Y-188754819D01*
X205921428Y-188754819D02*
X206016666Y-188707200D01*
X206016666Y-188707200D02*
X206064285Y-188659580D01*
X206064285Y-188659580D02*
X206111904Y-188564342D01*
X206111904Y-188564342D02*
X206111904Y-188326247D01*
X206111904Y-188326247D02*
X206064285Y-188231009D01*
X206064285Y-188231009D02*
X206016666Y-188183390D01*
X206016666Y-188183390D02*
X205921428Y-188135771D01*
X205921428Y-188135771D02*
X205730952Y-188135771D01*
X205730952Y-188135771D02*
X205635714Y-188183390D01*
X205635714Y-188183390D02*
X205588095Y-188231009D01*
X205588095Y-188231009D02*
X205540476Y-188326247D01*
X172316667Y-195857200D02*
X172459524Y-195904819D01*
X172459524Y-195904819D02*
X172697619Y-195904819D01*
X172697619Y-195904819D02*
X172792857Y-195857200D01*
X172792857Y-195857200D02*
X172840476Y-195809580D01*
X172840476Y-195809580D02*
X172888095Y-195714342D01*
X172888095Y-195714342D02*
X172888095Y-195619104D01*
X172888095Y-195619104D02*
X172840476Y-195523866D01*
X172840476Y-195523866D02*
X172792857Y-195476247D01*
X172792857Y-195476247D02*
X172697619Y-195428628D01*
X172697619Y-195428628D02*
X172507143Y-195381009D01*
X172507143Y-195381009D02*
X172411905Y-195333390D01*
X172411905Y-195333390D02*
X172364286Y-195285771D01*
X172364286Y-195285771D02*
X172316667Y-195190533D01*
X172316667Y-195190533D02*
X172316667Y-195095295D01*
X172316667Y-195095295D02*
X172364286Y-195000057D01*
X172364286Y-195000057D02*
X172411905Y-194952438D01*
X172411905Y-194952438D02*
X172507143Y-194904819D01*
X172507143Y-194904819D02*
X172745238Y-194904819D01*
X172745238Y-194904819D02*
X172888095Y-194952438D01*
X173221429Y-194904819D02*
X173459524Y-195904819D01*
X173459524Y-195904819D02*
X173650000Y-195190533D01*
X173650000Y-195190533D02*
X173840476Y-195904819D01*
X173840476Y-195904819D02*
X174078572Y-194904819D01*
X174411905Y-195000057D02*
X174459524Y-194952438D01*
X174459524Y-194952438D02*
X174554762Y-194904819D01*
X174554762Y-194904819D02*
X174792857Y-194904819D01*
X174792857Y-194904819D02*
X174888095Y-194952438D01*
X174888095Y-194952438D02*
X174935714Y-195000057D01*
X174935714Y-195000057D02*
X174983333Y-195095295D01*
X174983333Y-195095295D02*
X174983333Y-195190533D01*
X174983333Y-195190533D02*
X174935714Y-195333390D01*
X174935714Y-195333390D02*
X174364286Y-195904819D01*
X174364286Y-195904819D02*
X174983333Y-195904819D01*
X182133333Y-116734819D02*
X181800000Y-116258628D01*
X181561905Y-116734819D02*
X181561905Y-115734819D01*
X181561905Y-115734819D02*
X181942857Y-115734819D01*
X181942857Y-115734819D02*
X182038095Y-115782438D01*
X182038095Y-115782438D02*
X182085714Y-115830057D01*
X182085714Y-115830057D02*
X182133333Y-115925295D01*
X182133333Y-115925295D02*
X182133333Y-116068152D01*
X182133333Y-116068152D02*
X182085714Y-116163390D01*
X182085714Y-116163390D02*
X182038095Y-116211009D01*
X182038095Y-116211009D02*
X181942857Y-116258628D01*
X181942857Y-116258628D02*
X181561905Y-116258628D01*
X182990476Y-115734819D02*
X182800000Y-115734819D01*
X182800000Y-115734819D02*
X182704762Y-115782438D01*
X182704762Y-115782438D02*
X182657143Y-115830057D01*
X182657143Y-115830057D02*
X182561905Y-115972914D01*
X182561905Y-115972914D02*
X182514286Y-116163390D01*
X182514286Y-116163390D02*
X182514286Y-116544342D01*
X182514286Y-116544342D02*
X182561905Y-116639580D01*
X182561905Y-116639580D02*
X182609524Y-116687200D01*
X182609524Y-116687200D02*
X182704762Y-116734819D01*
X182704762Y-116734819D02*
X182895238Y-116734819D01*
X182895238Y-116734819D02*
X182990476Y-116687200D01*
X182990476Y-116687200D02*
X183038095Y-116639580D01*
X183038095Y-116639580D02*
X183085714Y-116544342D01*
X183085714Y-116544342D02*
X183085714Y-116306247D01*
X183085714Y-116306247D02*
X183038095Y-116211009D01*
X183038095Y-116211009D02*
X182990476Y-116163390D01*
X182990476Y-116163390D02*
X182895238Y-116115771D01*
X182895238Y-116115771D02*
X182704762Y-116115771D01*
X182704762Y-116115771D02*
X182609524Y-116163390D01*
X182609524Y-116163390D02*
X182561905Y-116211009D01*
X182561905Y-116211009D02*
X182514286Y-116306247D01*
X172316667Y-194257200D02*
X172459524Y-194304819D01*
X172459524Y-194304819D02*
X172697619Y-194304819D01*
X172697619Y-194304819D02*
X172792857Y-194257200D01*
X172792857Y-194257200D02*
X172840476Y-194209580D01*
X172840476Y-194209580D02*
X172888095Y-194114342D01*
X172888095Y-194114342D02*
X172888095Y-194019104D01*
X172888095Y-194019104D02*
X172840476Y-193923866D01*
X172840476Y-193923866D02*
X172792857Y-193876247D01*
X172792857Y-193876247D02*
X172697619Y-193828628D01*
X172697619Y-193828628D02*
X172507143Y-193781009D01*
X172507143Y-193781009D02*
X172411905Y-193733390D01*
X172411905Y-193733390D02*
X172364286Y-193685771D01*
X172364286Y-193685771D02*
X172316667Y-193590533D01*
X172316667Y-193590533D02*
X172316667Y-193495295D01*
X172316667Y-193495295D02*
X172364286Y-193400057D01*
X172364286Y-193400057D02*
X172411905Y-193352438D01*
X172411905Y-193352438D02*
X172507143Y-193304819D01*
X172507143Y-193304819D02*
X172745238Y-193304819D01*
X172745238Y-193304819D02*
X172888095Y-193352438D01*
X173221429Y-193304819D02*
X173459524Y-194304819D01*
X173459524Y-194304819D02*
X173650000Y-193590533D01*
X173650000Y-193590533D02*
X173840476Y-194304819D01*
X173840476Y-194304819D02*
X174078572Y-193304819D01*
X174983333Y-194304819D02*
X174411905Y-194304819D01*
X174697619Y-194304819D02*
X174697619Y-193304819D01*
X174697619Y-193304819D02*
X174602381Y-193447676D01*
X174602381Y-193447676D02*
X174507143Y-193542914D01*
X174507143Y-193542914D02*
X174411905Y-193590533D01*
X235538095Y-202954819D02*
X236157142Y-202954819D01*
X236157142Y-202954819D02*
X235823809Y-203335771D01*
X235823809Y-203335771D02*
X235966666Y-203335771D01*
X235966666Y-203335771D02*
X236061904Y-203383390D01*
X236061904Y-203383390D02*
X236109523Y-203431009D01*
X236109523Y-203431009D02*
X236157142Y-203526247D01*
X236157142Y-203526247D02*
X236157142Y-203764342D01*
X236157142Y-203764342D02*
X236109523Y-203859580D01*
X236109523Y-203859580D02*
X236061904Y-203907200D01*
X236061904Y-203907200D02*
X235966666Y-203954819D01*
X235966666Y-203954819D02*
X235680952Y-203954819D01*
X235680952Y-203954819D02*
X235585714Y-203907200D01*
X235585714Y-203907200D02*
X235538095Y-203859580D01*
X236442857Y-202954819D02*
X236776190Y-203954819D01*
X236776190Y-203954819D02*
X237109523Y-202954819D01*
X242359580Y-158366666D02*
X242407200Y-158414285D01*
X242407200Y-158414285D02*
X242454819Y-158557142D01*
X242454819Y-158557142D02*
X242454819Y-158652380D01*
X242454819Y-158652380D02*
X242407200Y-158795237D01*
X242407200Y-158795237D02*
X242311961Y-158890475D01*
X242311961Y-158890475D02*
X242216723Y-158938094D01*
X242216723Y-158938094D02*
X242026247Y-158985713D01*
X242026247Y-158985713D02*
X241883390Y-158985713D01*
X241883390Y-158985713D02*
X241692914Y-158938094D01*
X241692914Y-158938094D02*
X241597676Y-158890475D01*
X241597676Y-158890475D02*
X241502438Y-158795237D01*
X241502438Y-158795237D02*
X241454819Y-158652380D01*
X241454819Y-158652380D02*
X241454819Y-158557142D01*
X241454819Y-158557142D02*
X241502438Y-158414285D01*
X241502438Y-158414285D02*
X241550057Y-158366666D01*
X241883390Y-157795237D02*
X241835771Y-157890475D01*
X241835771Y-157890475D02*
X241788152Y-157938094D01*
X241788152Y-157938094D02*
X241692914Y-157985713D01*
X241692914Y-157985713D02*
X241645295Y-157985713D01*
X241645295Y-157985713D02*
X241550057Y-157938094D01*
X241550057Y-157938094D02*
X241502438Y-157890475D01*
X241502438Y-157890475D02*
X241454819Y-157795237D01*
X241454819Y-157795237D02*
X241454819Y-157604761D01*
X241454819Y-157604761D02*
X241502438Y-157509523D01*
X241502438Y-157509523D02*
X241550057Y-157461904D01*
X241550057Y-157461904D02*
X241645295Y-157414285D01*
X241645295Y-157414285D02*
X241692914Y-157414285D01*
X241692914Y-157414285D02*
X241788152Y-157461904D01*
X241788152Y-157461904D02*
X241835771Y-157509523D01*
X241835771Y-157509523D02*
X241883390Y-157604761D01*
X241883390Y-157604761D02*
X241883390Y-157795237D01*
X241883390Y-157795237D02*
X241931009Y-157890475D01*
X241931009Y-157890475D02*
X241978628Y-157938094D01*
X241978628Y-157938094D02*
X242073866Y-157985713D01*
X242073866Y-157985713D02*
X242264342Y-157985713D01*
X242264342Y-157985713D02*
X242359580Y-157938094D01*
X242359580Y-157938094D02*
X242407200Y-157890475D01*
X242407200Y-157890475D02*
X242454819Y-157795237D01*
X242454819Y-157795237D02*
X242454819Y-157604761D01*
X242454819Y-157604761D02*
X242407200Y-157509523D01*
X242407200Y-157509523D02*
X242359580Y-157461904D01*
X242359580Y-157461904D02*
X242264342Y-157414285D01*
X242264342Y-157414285D02*
X242073866Y-157414285D01*
X242073866Y-157414285D02*
X241978628Y-157461904D01*
X241978628Y-157461904D02*
X241931009Y-157509523D01*
X241931009Y-157509523D02*
X241883390Y-157604761D01*
X180283333Y-127554819D02*
X179950000Y-127078628D01*
X179711905Y-127554819D02*
X179711905Y-126554819D01*
X179711905Y-126554819D02*
X180092857Y-126554819D01*
X180092857Y-126554819D02*
X180188095Y-126602438D01*
X180188095Y-126602438D02*
X180235714Y-126650057D01*
X180235714Y-126650057D02*
X180283333Y-126745295D01*
X180283333Y-126745295D02*
X180283333Y-126888152D01*
X180283333Y-126888152D02*
X180235714Y-126983390D01*
X180235714Y-126983390D02*
X180188095Y-127031009D01*
X180188095Y-127031009D02*
X180092857Y-127078628D01*
X180092857Y-127078628D02*
X179711905Y-127078628D01*
X181235714Y-127554819D02*
X180664286Y-127554819D01*
X180950000Y-127554819D02*
X180950000Y-126554819D01*
X180950000Y-126554819D02*
X180854762Y-126697676D01*
X180854762Y-126697676D02*
X180759524Y-126792914D01*
X180759524Y-126792914D02*
X180664286Y-126840533D01*
X233833333Y-123259580D02*
X233785714Y-123307200D01*
X233785714Y-123307200D02*
X233642857Y-123354819D01*
X233642857Y-123354819D02*
X233547619Y-123354819D01*
X233547619Y-123354819D02*
X233404762Y-123307200D01*
X233404762Y-123307200D02*
X233309524Y-123211961D01*
X233309524Y-123211961D02*
X233261905Y-123116723D01*
X233261905Y-123116723D02*
X233214286Y-122926247D01*
X233214286Y-122926247D02*
X233214286Y-122783390D01*
X233214286Y-122783390D02*
X233261905Y-122592914D01*
X233261905Y-122592914D02*
X233309524Y-122497676D01*
X233309524Y-122497676D02*
X233404762Y-122402438D01*
X233404762Y-122402438D02*
X233547619Y-122354819D01*
X233547619Y-122354819D02*
X233642857Y-122354819D01*
X233642857Y-122354819D02*
X233785714Y-122402438D01*
X233785714Y-122402438D02*
X233833333Y-122450057D01*
X234166667Y-122354819D02*
X234785714Y-122354819D01*
X234785714Y-122354819D02*
X234452381Y-122735771D01*
X234452381Y-122735771D02*
X234595238Y-122735771D01*
X234595238Y-122735771D02*
X234690476Y-122783390D01*
X234690476Y-122783390D02*
X234738095Y-122831009D01*
X234738095Y-122831009D02*
X234785714Y-122926247D01*
X234785714Y-122926247D02*
X234785714Y-123164342D01*
X234785714Y-123164342D02*
X234738095Y-123259580D01*
X234738095Y-123259580D02*
X234690476Y-123307200D01*
X234690476Y-123307200D02*
X234595238Y-123354819D01*
X234595238Y-123354819D02*
X234309524Y-123354819D01*
X234309524Y-123354819D02*
X234214286Y-123307200D01*
X234214286Y-123307200D02*
X234166667Y-123259580D01*
X251854819Y-157859523D02*
X250854819Y-157859523D01*
X250854819Y-157859523D02*
X251569104Y-157526190D01*
X251569104Y-157526190D02*
X250854819Y-157192857D01*
X250854819Y-157192857D02*
X251854819Y-157192857D01*
X251854819Y-156192857D02*
X251854819Y-156764285D01*
X251854819Y-156478571D02*
X250854819Y-156478571D01*
X250854819Y-156478571D02*
X250997676Y-156573809D01*
X250997676Y-156573809D02*
X251092914Y-156669047D01*
X251092914Y-156669047D02*
X251140533Y-156764285D01*
X251557142Y-122054819D02*
X251223809Y-121578628D01*
X250985714Y-122054819D02*
X250985714Y-121054819D01*
X250985714Y-121054819D02*
X251366666Y-121054819D01*
X251366666Y-121054819D02*
X251461904Y-121102438D01*
X251461904Y-121102438D02*
X251509523Y-121150057D01*
X251509523Y-121150057D02*
X251557142Y-121245295D01*
X251557142Y-121245295D02*
X251557142Y-121388152D01*
X251557142Y-121388152D02*
X251509523Y-121483390D01*
X251509523Y-121483390D02*
X251461904Y-121531009D01*
X251461904Y-121531009D02*
X251366666Y-121578628D01*
X251366666Y-121578628D02*
X250985714Y-121578628D01*
X252509523Y-122054819D02*
X251938095Y-122054819D01*
X252223809Y-122054819D02*
X252223809Y-121054819D01*
X252223809Y-121054819D02*
X252128571Y-121197676D01*
X252128571Y-121197676D02*
X252033333Y-121292914D01*
X252033333Y-121292914D02*
X251938095Y-121340533D01*
X253366666Y-121054819D02*
X253176190Y-121054819D01*
X253176190Y-121054819D02*
X253080952Y-121102438D01*
X253080952Y-121102438D02*
X253033333Y-121150057D01*
X253033333Y-121150057D02*
X252938095Y-121292914D01*
X252938095Y-121292914D02*
X252890476Y-121483390D01*
X252890476Y-121483390D02*
X252890476Y-121864342D01*
X252890476Y-121864342D02*
X252938095Y-121959580D01*
X252938095Y-121959580D02*
X252985714Y-122007200D01*
X252985714Y-122007200D02*
X253080952Y-122054819D01*
X253080952Y-122054819D02*
X253271428Y-122054819D01*
X253271428Y-122054819D02*
X253366666Y-122007200D01*
X253366666Y-122007200D02*
X253414285Y-121959580D01*
X253414285Y-121959580D02*
X253461904Y-121864342D01*
X253461904Y-121864342D02*
X253461904Y-121626247D01*
X253461904Y-121626247D02*
X253414285Y-121531009D01*
X253414285Y-121531009D02*
X253366666Y-121483390D01*
X253366666Y-121483390D02*
X253271428Y-121435771D01*
X253271428Y-121435771D02*
X253080952Y-121435771D01*
X253080952Y-121435771D02*
X252985714Y-121483390D01*
X252985714Y-121483390D02*
X252938095Y-121531009D01*
X252938095Y-121531009D02*
X252890476Y-121626247D01*
X188009819Y-138823333D02*
X188724104Y-138823333D01*
X188724104Y-138823333D02*
X188866961Y-138870952D01*
X188866961Y-138870952D02*
X188962200Y-138966190D01*
X188962200Y-138966190D02*
X189009819Y-139109047D01*
X189009819Y-139109047D02*
X189009819Y-139204285D01*
X188343152Y-137918571D02*
X189009819Y-137918571D01*
X187962200Y-138156666D02*
X188676485Y-138394761D01*
X188676485Y-138394761D02*
X188676485Y-137775714D01*
X255431009Y-203735714D02*
X255478628Y-203592857D01*
X255478628Y-203592857D02*
X255526247Y-203545238D01*
X255526247Y-203545238D02*
X255621485Y-203497619D01*
X255621485Y-203497619D02*
X255764342Y-203497619D01*
X255764342Y-203497619D02*
X255859580Y-203545238D01*
X255859580Y-203545238D02*
X255907200Y-203592857D01*
X255907200Y-203592857D02*
X255954819Y-203688095D01*
X255954819Y-203688095D02*
X255954819Y-204069047D01*
X255954819Y-204069047D02*
X254954819Y-204069047D01*
X254954819Y-204069047D02*
X254954819Y-203735714D01*
X254954819Y-203735714D02*
X255002438Y-203640476D01*
X255002438Y-203640476D02*
X255050057Y-203592857D01*
X255050057Y-203592857D02*
X255145295Y-203545238D01*
X255145295Y-203545238D02*
X255240533Y-203545238D01*
X255240533Y-203545238D02*
X255335771Y-203592857D01*
X255335771Y-203592857D02*
X255383390Y-203640476D01*
X255383390Y-203640476D02*
X255431009Y-203735714D01*
X255431009Y-203735714D02*
X255431009Y-204069047D01*
X254954819Y-203211904D02*
X254954819Y-202640476D01*
X255954819Y-202926190D02*
X254954819Y-202926190D01*
X255954819Y-201783333D02*
X255954819Y-202354761D01*
X255954819Y-202069047D02*
X254954819Y-202069047D01*
X254954819Y-202069047D02*
X255097676Y-202164285D01*
X255097676Y-202164285D02*
X255192914Y-202259523D01*
X255192914Y-202259523D02*
X255240533Y-202354761D01*
X184366666Y-116854819D02*
X184366666Y-117569104D01*
X184366666Y-117569104D02*
X184319047Y-117711961D01*
X184319047Y-117711961D02*
X184223809Y-117807200D01*
X184223809Y-117807200D02*
X184080952Y-117854819D01*
X184080952Y-117854819D02*
X183985714Y-117854819D01*
X184842857Y-117854819D02*
X184842857Y-116854819D01*
X184842857Y-116854819D02*
X185223809Y-116854819D01*
X185223809Y-116854819D02*
X185319047Y-116902438D01*
X185319047Y-116902438D02*
X185366666Y-116950057D01*
X185366666Y-116950057D02*
X185414285Y-117045295D01*
X185414285Y-117045295D02*
X185414285Y-117188152D01*
X185414285Y-117188152D02*
X185366666Y-117283390D01*
X185366666Y-117283390D02*
X185319047Y-117331009D01*
X185319047Y-117331009D02*
X185223809Y-117378628D01*
X185223809Y-117378628D02*
X184842857Y-117378628D01*
X186271428Y-117188152D02*
X186271428Y-117854819D01*
X186033333Y-116807200D02*
X185795238Y-117521485D01*
X185795238Y-117521485D02*
X186414285Y-117521485D01*
X229507142Y-113234819D02*
X229173809Y-112758628D01*
X228935714Y-113234819D02*
X228935714Y-112234819D01*
X228935714Y-112234819D02*
X229316666Y-112234819D01*
X229316666Y-112234819D02*
X229411904Y-112282438D01*
X229411904Y-112282438D02*
X229459523Y-112330057D01*
X229459523Y-112330057D02*
X229507142Y-112425295D01*
X229507142Y-112425295D02*
X229507142Y-112568152D01*
X229507142Y-112568152D02*
X229459523Y-112663390D01*
X229459523Y-112663390D02*
X229411904Y-112711009D01*
X229411904Y-112711009D02*
X229316666Y-112758628D01*
X229316666Y-112758628D02*
X228935714Y-112758628D01*
X230459523Y-113234819D02*
X229888095Y-113234819D01*
X230173809Y-113234819D02*
X230173809Y-112234819D01*
X230173809Y-112234819D02*
X230078571Y-112377676D01*
X230078571Y-112377676D02*
X229983333Y-112472914D01*
X229983333Y-112472914D02*
X229888095Y-112520533D01*
X231364285Y-112234819D02*
X230888095Y-112234819D01*
X230888095Y-112234819D02*
X230840476Y-112711009D01*
X230840476Y-112711009D02*
X230888095Y-112663390D01*
X230888095Y-112663390D02*
X230983333Y-112615771D01*
X230983333Y-112615771D02*
X231221428Y-112615771D01*
X231221428Y-112615771D02*
X231316666Y-112663390D01*
X231316666Y-112663390D02*
X231364285Y-112711009D01*
X231364285Y-112711009D02*
X231411904Y-112806247D01*
X231411904Y-112806247D02*
X231411904Y-113044342D01*
X231411904Y-113044342D02*
X231364285Y-113139580D01*
X231364285Y-113139580D02*
X231316666Y-113187200D01*
X231316666Y-113187200D02*
X231221428Y-113234819D01*
X231221428Y-113234819D02*
X230983333Y-113234819D01*
X230983333Y-113234819D02*
X230888095Y-113187200D01*
X230888095Y-113187200D02*
X230840476Y-113139580D01*
X239114285Y-202854819D02*
X239447618Y-203854819D01*
X239447618Y-203854819D02*
X239780951Y-202854819D01*
X239876190Y-203950057D02*
X240638094Y-203950057D01*
X240876190Y-203331009D02*
X241209523Y-203331009D01*
X241352380Y-203854819D02*
X240876190Y-203854819D01*
X240876190Y-203854819D02*
X240876190Y-202854819D01*
X240876190Y-202854819D02*
X241352380Y-202854819D01*
X241685714Y-202854819D02*
X242352380Y-203854819D01*
X242352380Y-202854819D02*
X241685714Y-203854819D01*
X242590476Y-202854819D02*
X243161904Y-202854819D01*
X242876190Y-203854819D02*
X242876190Y-202854819D01*
X243257143Y-203950057D02*
X244019047Y-203950057D01*
X244114286Y-202854819D02*
X244685714Y-202854819D01*
X244400000Y-203854819D02*
X244400000Y-202854819D01*
X245019048Y-203854819D02*
X245019048Y-202854819D01*
X245019048Y-202854819D02*
X245400000Y-202854819D01*
X245400000Y-202854819D02*
X245495238Y-202902438D01*
X245495238Y-202902438D02*
X245542857Y-202950057D01*
X245542857Y-202950057D02*
X245590476Y-203045295D01*
X245590476Y-203045295D02*
X245590476Y-203188152D01*
X245590476Y-203188152D02*
X245542857Y-203283390D01*
X245542857Y-203283390D02*
X245495238Y-203331009D01*
X245495238Y-203331009D02*
X245400000Y-203378628D01*
X245400000Y-203378628D02*
X245019048Y-203378628D01*
X253583333Y-126104819D02*
X253250000Y-125628628D01*
X253011905Y-126104819D02*
X253011905Y-125104819D01*
X253011905Y-125104819D02*
X253392857Y-125104819D01*
X253392857Y-125104819D02*
X253488095Y-125152438D01*
X253488095Y-125152438D02*
X253535714Y-125200057D01*
X253535714Y-125200057D02*
X253583333Y-125295295D01*
X253583333Y-125295295D02*
X253583333Y-125438152D01*
X253583333Y-125438152D02*
X253535714Y-125533390D01*
X253535714Y-125533390D02*
X253488095Y-125581009D01*
X253488095Y-125581009D02*
X253392857Y-125628628D01*
X253392857Y-125628628D02*
X253011905Y-125628628D01*
X254440476Y-125438152D02*
X254440476Y-126104819D01*
X254202381Y-125057200D02*
X253964286Y-125771485D01*
X253964286Y-125771485D02*
X254583333Y-125771485D01*
X188557894Y-119680064D02*
X188557894Y-118680064D01*
X188557894Y-118680064D02*
X188795989Y-118680064D01*
X188795989Y-118680064D02*
X188938846Y-118727683D01*
X188938846Y-118727683D02*
X189034084Y-118822921D01*
X189034084Y-118822921D02*
X189081703Y-118918159D01*
X189081703Y-118918159D02*
X189129322Y-119108635D01*
X189129322Y-119108635D02*
X189129322Y-119251492D01*
X189129322Y-119251492D02*
X189081703Y-119441968D01*
X189081703Y-119441968D02*
X189034084Y-119537206D01*
X189034084Y-119537206D02*
X188938846Y-119632445D01*
X188938846Y-119632445D02*
X188795989Y-119680064D01*
X188795989Y-119680064D02*
X188557894Y-119680064D01*
X190081703Y-119680064D02*
X189510275Y-119680064D01*
X189795989Y-119680064D02*
X189795989Y-118680064D01*
X189795989Y-118680064D02*
X189700751Y-118822921D01*
X189700751Y-118822921D02*
X189605513Y-118918159D01*
X189605513Y-118918159D02*
X189510275Y-118965778D01*
X209651786Y-169854819D02*
X209651786Y-168854819D01*
X209651786Y-168854819D02*
X209985119Y-169569104D01*
X209985119Y-169569104D02*
X210318452Y-168854819D01*
X210318452Y-168854819D02*
X210318452Y-169854819D01*
X210556548Y-169950057D02*
X211318452Y-169950057D01*
X211556548Y-169854819D02*
X211556548Y-168854819D01*
X211556548Y-168854819D02*
X211889881Y-169569104D01*
X211889881Y-169569104D02*
X212223214Y-168854819D01*
X212223214Y-168854819D02*
X212223214Y-169854819D01*
X212699405Y-169854819D02*
X212699405Y-168854819D01*
X212699405Y-169331009D02*
X213270833Y-169331009D01*
X213270833Y-169854819D02*
X213270833Y-168854819D01*
X214270833Y-169854819D02*
X213699405Y-169854819D01*
X213985119Y-169854819D02*
X213985119Y-168854819D01*
X213985119Y-168854819D02*
X213889881Y-168997676D01*
X213889881Y-168997676D02*
X213794643Y-169092914D01*
X213794643Y-169092914D02*
X213699405Y-169140533D01*
X188704819Y-135709523D02*
X189419104Y-135709523D01*
X189419104Y-135709523D02*
X189561961Y-135757142D01*
X189561961Y-135757142D02*
X189657200Y-135852380D01*
X189657200Y-135852380D02*
X189704819Y-135995237D01*
X189704819Y-135995237D02*
X189704819Y-136090475D01*
X189704819Y-135233332D02*
X188704819Y-135233332D01*
X188704819Y-135233332D02*
X188704819Y-134852380D01*
X188704819Y-134852380D02*
X188752438Y-134757142D01*
X188752438Y-134757142D02*
X188800057Y-134709523D01*
X188800057Y-134709523D02*
X188895295Y-134661904D01*
X188895295Y-134661904D02*
X189038152Y-134661904D01*
X189038152Y-134661904D02*
X189133390Y-134709523D01*
X189133390Y-134709523D02*
X189181009Y-134757142D01*
X189181009Y-134757142D02*
X189228628Y-134852380D01*
X189228628Y-134852380D02*
X189228628Y-135233332D01*
X189800057Y-134471428D02*
X189800057Y-133709523D01*
X189657200Y-133519046D02*
X189704819Y-133376189D01*
X189704819Y-133376189D02*
X189704819Y-133138094D01*
X189704819Y-133138094D02*
X189657200Y-133042856D01*
X189657200Y-133042856D02*
X189609580Y-132995237D01*
X189609580Y-132995237D02*
X189514342Y-132947618D01*
X189514342Y-132947618D02*
X189419104Y-132947618D01*
X189419104Y-132947618D02*
X189323866Y-132995237D01*
X189323866Y-132995237D02*
X189276247Y-133042856D01*
X189276247Y-133042856D02*
X189228628Y-133138094D01*
X189228628Y-133138094D02*
X189181009Y-133328570D01*
X189181009Y-133328570D02*
X189133390Y-133423808D01*
X189133390Y-133423808D02*
X189085771Y-133471427D01*
X189085771Y-133471427D02*
X188990533Y-133519046D01*
X188990533Y-133519046D02*
X188895295Y-133519046D01*
X188895295Y-133519046D02*
X188800057Y-133471427D01*
X188800057Y-133471427D02*
X188752438Y-133423808D01*
X188752438Y-133423808D02*
X188704819Y-133328570D01*
X188704819Y-133328570D02*
X188704819Y-133090475D01*
X188704819Y-133090475D02*
X188752438Y-132947618D01*
X188704819Y-132614284D02*
X189704819Y-132376189D01*
X189704819Y-132376189D02*
X188990533Y-132185713D01*
X188990533Y-132185713D02*
X189704819Y-131995237D01*
X189704819Y-131995237D02*
X188704819Y-131757142D01*
X188704819Y-131185713D02*
X188704819Y-130995237D01*
X188704819Y-130995237D02*
X188752438Y-130899999D01*
X188752438Y-130899999D02*
X188847676Y-130804761D01*
X188847676Y-130804761D02*
X189038152Y-130757142D01*
X189038152Y-130757142D02*
X189371485Y-130757142D01*
X189371485Y-130757142D02*
X189561961Y-130804761D01*
X189561961Y-130804761D02*
X189657200Y-130899999D01*
X189657200Y-130899999D02*
X189704819Y-130995237D01*
X189704819Y-130995237D02*
X189704819Y-131185713D01*
X189704819Y-131185713D02*
X189657200Y-131280951D01*
X189657200Y-131280951D02*
X189561961Y-131376189D01*
X189561961Y-131376189D02*
X189371485Y-131423808D01*
X189371485Y-131423808D02*
X189038152Y-131423808D01*
X189038152Y-131423808D02*
X188847676Y-131376189D01*
X188847676Y-131376189D02*
X188752438Y-131280951D01*
X188752438Y-131280951D02*
X188704819Y-131185713D01*
X260754819Y-138738094D02*
X259754819Y-138738094D01*
X259754819Y-138738094D02*
X259754819Y-138499999D01*
X259754819Y-138499999D02*
X259802438Y-138357142D01*
X259802438Y-138357142D02*
X259897676Y-138261904D01*
X259897676Y-138261904D02*
X259992914Y-138214285D01*
X259992914Y-138214285D02*
X260183390Y-138166666D01*
X260183390Y-138166666D02*
X260326247Y-138166666D01*
X260326247Y-138166666D02*
X260516723Y-138214285D01*
X260516723Y-138214285D02*
X260611961Y-138261904D01*
X260611961Y-138261904D02*
X260707200Y-138357142D01*
X260707200Y-138357142D02*
X260754819Y-138499999D01*
X260754819Y-138499999D02*
X260754819Y-138738094D01*
X259754819Y-137833332D02*
X259754819Y-137214285D01*
X259754819Y-137214285D02*
X260135771Y-137547618D01*
X260135771Y-137547618D02*
X260135771Y-137404761D01*
X260135771Y-137404761D02*
X260183390Y-137309523D01*
X260183390Y-137309523D02*
X260231009Y-137261904D01*
X260231009Y-137261904D02*
X260326247Y-137214285D01*
X260326247Y-137214285D02*
X260564342Y-137214285D01*
X260564342Y-137214285D02*
X260659580Y-137261904D01*
X260659580Y-137261904D02*
X260707200Y-137309523D01*
X260707200Y-137309523D02*
X260754819Y-137404761D01*
X260754819Y-137404761D02*
X260754819Y-137690475D01*
X260754819Y-137690475D02*
X260707200Y-137785713D01*
X260707200Y-137785713D02*
X260659580Y-137833332D01*
X240304761Y-114850057D02*
X240209523Y-114802438D01*
X240209523Y-114802438D02*
X240114285Y-114707200D01*
X240114285Y-114707200D02*
X239971428Y-114564342D01*
X239971428Y-114564342D02*
X239876190Y-114516723D01*
X239876190Y-114516723D02*
X239780952Y-114516723D01*
X239828571Y-114754819D02*
X239733333Y-114707200D01*
X239733333Y-114707200D02*
X239638095Y-114611961D01*
X239638095Y-114611961D02*
X239590476Y-114421485D01*
X239590476Y-114421485D02*
X239590476Y-114088152D01*
X239590476Y-114088152D02*
X239638095Y-113897676D01*
X239638095Y-113897676D02*
X239733333Y-113802438D01*
X239733333Y-113802438D02*
X239828571Y-113754819D01*
X239828571Y-113754819D02*
X240019047Y-113754819D01*
X240019047Y-113754819D02*
X240114285Y-113802438D01*
X240114285Y-113802438D02*
X240209523Y-113897676D01*
X240209523Y-113897676D02*
X240257142Y-114088152D01*
X240257142Y-114088152D02*
X240257142Y-114421485D01*
X240257142Y-114421485D02*
X240209523Y-114611961D01*
X240209523Y-114611961D02*
X240114285Y-114707200D01*
X240114285Y-114707200D02*
X240019047Y-114754819D01*
X240019047Y-114754819D02*
X239828571Y-114754819D01*
X240638095Y-113850057D02*
X240685714Y-113802438D01*
X240685714Y-113802438D02*
X240780952Y-113754819D01*
X240780952Y-113754819D02*
X241019047Y-113754819D01*
X241019047Y-113754819D02*
X241114285Y-113802438D01*
X241114285Y-113802438D02*
X241161904Y-113850057D01*
X241161904Y-113850057D02*
X241209523Y-113945295D01*
X241209523Y-113945295D02*
X241209523Y-114040533D01*
X241209523Y-114040533D02*
X241161904Y-114183390D01*
X241161904Y-114183390D02*
X240590476Y-114754819D01*
X240590476Y-114754819D02*
X241209523Y-114754819D01*
X259700057Y-131352827D02*
X259652438Y-131448065D01*
X259652438Y-131448065D02*
X259557200Y-131543303D01*
X259557200Y-131543303D02*
X259414342Y-131686160D01*
X259414342Y-131686160D02*
X259366723Y-131781398D01*
X259366723Y-131781398D02*
X259366723Y-131876636D01*
X259604819Y-131829017D02*
X259557200Y-131924255D01*
X259557200Y-131924255D02*
X259461961Y-132019493D01*
X259461961Y-132019493D02*
X259271485Y-132067112D01*
X259271485Y-132067112D02*
X258938152Y-132067112D01*
X258938152Y-132067112D02*
X258747676Y-132019493D01*
X258747676Y-132019493D02*
X258652438Y-131924255D01*
X258652438Y-131924255D02*
X258604819Y-131829017D01*
X258604819Y-131829017D02*
X258604819Y-131638541D01*
X258604819Y-131638541D02*
X258652438Y-131543303D01*
X258652438Y-131543303D02*
X258747676Y-131448065D01*
X258747676Y-131448065D02*
X258938152Y-131400446D01*
X258938152Y-131400446D02*
X259271485Y-131400446D01*
X259271485Y-131400446D02*
X259461961Y-131448065D01*
X259461961Y-131448065D02*
X259557200Y-131543303D01*
X259557200Y-131543303D02*
X259604819Y-131638541D01*
X259604819Y-131638541D02*
X259604819Y-131829017D01*
X258604819Y-131067112D02*
X258604819Y-130448065D01*
X258604819Y-130448065D02*
X258985771Y-130781398D01*
X258985771Y-130781398D02*
X258985771Y-130638541D01*
X258985771Y-130638541D02*
X259033390Y-130543303D01*
X259033390Y-130543303D02*
X259081009Y-130495684D01*
X259081009Y-130495684D02*
X259176247Y-130448065D01*
X259176247Y-130448065D02*
X259414342Y-130448065D01*
X259414342Y-130448065D02*
X259509580Y-130495684D01*
X259509580Y-130495684D02*
X259557200Y-130543303D01*
X259557200Y-130543303D02*
X259604819Y-130638541D01*
X259604819Y-130638541D02*
X259604819Y-130924255D01*
X259604819Y-130924255D02*
X259557200Y-131019493D01*
X259557200Y-131019493D02*
X259509580Y-131067112D01*
X183207142Y-126954819D02*
X182873809Y-126478628D01*
X182635714Y-126954819D02*
X182635714Y-125954819D01*
X182635714Y-125954819D02*
X183016666Y-125954819D01*
X183016666Y-125954819D02*
X183111904Y-126002438D01*
X183111904Y-126002438D02*
X183159523Y-126050057D01*
X183159523Y-126050057D02*
X183207142Y-126145295D01*
X183207142Y-126145295D02*
X183207142Y-126288152D01*
X183207142Y-126288152D02*
X183159523Y-126383390D01*
X183159523Y-126383390D02*
X183111904Y-126431009D01*
X183111904Y-126431009D02*
X183016666Y-126478628D01*
X183016666Y-126478628D02*
X182635714Y-126478628D01*
X184159523Y-126954819D02*
X183588095Y-126954819D01*
X183873809Y-126954819D02*
X183873809Y-125954819D01*
X183873809Y-125954819D02*
X183778571Y-126097676D01*
X183778571Y-126097676D02*
X183683333Y-126192914D01*
X183683333Y-126192914D02*
X183588095Y-126240533D01*
X184492857Y-125954819D02*
X185111904Y-125954819D01*
X185111904Y-125954819D02*
X184778571Y-126335771D01*
X184778571Y-126335771D02*
X184921428Y-126335771D01*
X184921428Y-126335771D02*
X185016666Y-126383390D01*
X185016666Y-126383390D02*
X185064285Y-126431009D01*
X185064285Y-126431009D02*
X185111904Y-126526247D01*
X185111904Y-126526247D02*
X185111904Y-126764342D01*
X185111904Y-126764342D02*
X185064285Y-126859580D01*
X185064285Y-126859580D02*
X185016666Y-126907200D01*
X185016666Y-126907200D02*
X184921428Y-126954819D01*
X184921428Y-126954819D02*
X184635714Y-126954819D01*
X184635714Y-126954819D02*
X184540476Y-126907200D01*
X184540476Y-126907200D02*
X184492857Y-126859580D01*
D11*
X229962500Y-118540000D02*
X229312500Y-118540000D01*
X229962500Y-118540000D02*
X230612500Y-118540000D01*
X229962500Y-121660000D02*
X229312500Y-121660000D01*
X229962500Y-121660000D02*
X230612500Y-121660000D01*
X228800000Y-118590000D02*
X228560000Y-118260000D01*
X229040000Y-118260000D01*
X228800000Y-118590000D01*
G36*
X228800000Y-118590000D02*
G01*
X228560000Y-118260000D01*
X229040000Y-118260000D01*
X228800000Y-118590000D01*
G37*
X185000000Y-148360000D02*
X187860000Y-148360000D01*
X187860000Y-146440000D02*
X185000000Y-146440000D01*
X187860000Y-148360000D02*
X187860000Y-146440000D01*
X230970000Y-188170000D02*
X237430000Y-188170000D01*
X230970000Y-188210000D02*
X237430000Y-188210000D01*
X230970000Y-188250000D02*
X237430000Y-188250000D01*
X230972000Y-188130000D02*
X237428000Y-188130000D01*
X230973000Y-188090000D02*
X237427000Y-188090000D01*
X230976000Y-188050000D02*
X237424000Y-188050000D01*
X230978000Y-188010000D02*
X233160000Y-188010000D01*
X230982000Y-187970000D02*
X233160000Y-187970000D01*
X230985000Y-187930000D02*
X233160000Y-187930000D01*
X230989000Y-187890000D02*
X233160000Y-187890000D01*
X230994000Y-187850000D02*
X233160000Y-187850000D01*
X230999000Y-187810000D02*
X233160000Y-187810000D01*
X231005000Y-187770000D02*
X233160000Y-187770000D01*
X231011000Y-187730000D02*
X233160000Y-187730000D01*
X231018000Y-187690000D02*
X233160000Y-187690000D01*
X231025000Y-187650000D02*
X233160000Y-187650000D01*
X231033000Y-187610000D02*
X233160000Y-187610000D01*
X231041000Y-187570000D02*
X233160000Y-187570000D01*
X231050000Y-187529000D02*
X233160000Y-187529000D01*
X231059000Y-187489000D02*
X233160000Y-187489000D01*
X231069000Y-187449000D02*
X233160000Y-187449000D01*
X231079000Y-187409000D02*
X233160000Y-187409000D01*
X231090000Y-187369000D02*
X233160000Y-187369000D01*
X231102000Y-187329000D02*
X233160000Y-187329000D01*
X231114000Y-187289000D02*
X233160000Y-187289000D01*
X231126000Y-187249000D02*
X233160000Y-187249000D01*
X231139000Y-187209000D02*
X233160000Y-187209000D01*
X231153000Y-187169000D02*
X233160000Y-187169000D01*
X231167000Y-187129000D02*
X233160000Y-187129000D01*
X231182000Y-187089000D02*
X233160000Y-187089000D01*
X231198000Y-187049000D02*
X233160000Y-187049000D01*
X231214000Y-187009000D02*
X233160000Y-187009000D01*
X231230000Y-186969000D02*
X233160000Y-186969000D01*
X231248000Y-186929000D02*
X233160000Y-186929000D01*
X231266000Y-186889000D02*
X233160000Y-186889000D01*
X231284000Y-186849000D02*
X233160000Y-186849000D01*
X231304000Y-186809000D02*
X233160000Y-186809000D01*
X231324000Y-186769000D02*
X233160000Y-186769000D01*
X231344000Y-186729000D02*
X233160000Y-186729000D01*
X231366000Y-186689000D02*
X233160000Y-186689000D01*
X231388000Y-186649000D02*
X233160000Y-186649000D01*
X231410000Y-186609000D02*
X233160000Y-186609000D01*
X231434000Y-186569000D02*
X233160000Y-186569000D01*
X231458000Y-186529000D02*
X233160000Y-186529000D01*
X231484000Y-186489000D02*
X233160000Y-186489000D01*
X231510000Y-186449000D02*
X233160000Y-186449000D01*
X231536000Y-186409000D02*
X233160000Y-186409000D01*
X231564000Y-186369000D02*
X233160000Y-186369000D01*
X231593000Y-186329000D02*
X233160000Y-186329000D01*
X231622000Y-186289000D02*
X233160000Y-186289000D01*
X231652000Y-186249000D02*
X233160000Y-186249000D01*
X231684000Y-186209000D02*
X233160000Y-186209000D01*
X231716000Y-186169000D02*
X233160000Y-186169000D01*
X231750000Y-186129000D02*
X233160000Y-186129000D01*
X231784000Y-186089000D02*
X233160000Y-186089000D01*
X231820000Y-186049000D02*
X233160000Y-186049000D01*
X231857000Y-186009000D02*
X233160000Y-186009000D01*
X231895000Y-185969000D02*
X233160000Y-185969000D01*
X231935000Y-185929000D02*
X236465000Y-185929000D01*
X231976000Y-185889000D02*
X236424000Y-185889000D01*
X232018000Y-185849000D02*
X236382000Y-185849000D01*
X232046000Y-191435241D02*
X232676000Y-191435241D01*
X232063000Y-185809000D02*
X236337000Y-185809000D01*
X232108000Y-185769000D02*
X236292000Y-185769000D01*
X232156000Y-185729000D02*
X236244000Y-185729000D01*
X232205000Y-185689000D02*
X236195000Y-185689000D01*
X232256000Y-185649000D02*
X236144000Y-185649000D01*
X232310000Y-185609000D02*
X236090000Y-185609000D01*
X232361000Y-191750241D02*
X232361000Y-191120241D01*
X232366000Y-185569000D02*
X236034000Y-185569000D01*
X232424000Y-185529000D02*
X235976000Y-185529000D01*
X232486000Y-185489000D02*
X235914000Y-185489000D01*
X232550000Y-185449000D02*
X235850000Y-185449000D01*
X232619000Y-185409000D02*
X235781000Y-185409000D01*
X232691000Y-185369000D02*
X235709000Y-185369000D01*
X232768000Y-185329000D02*
X235632000Y-185329000D01*
X232850000Y-185289000D02*
X235550000Y-185289000D01*
X232938000Y-185249000D02*
X235462000Y-185249000D01*
X233035000Y-185209000D02*
X235365000Y-185209000D01*
X233141000Y-185169000D02*
X235259000Y-185169000D01*
X233260000Y-185129000D02*
X235140000Y-185129000D01*
X233398000Y-185089000D02*
X235002000Y-185089000D01*
X233567000Y-185049000D02*
X234833000Y-185049000D01*
X233798000Y-185009000D02*
X234602000Y-185009000D01*
X235240000Y-185969000D02*
X236505000Y-185969000D01*
X235240000Y-186009000D02*
X236543000Y-186009000D01*
X235240000Y-186049000D02*
X236580000Y-186049000D01*
X235240000Y-186089000D02*
X236616000Y-186089000D01*
X235240000Y-186129000D02*
X236650000Y-186129000D01*
X235240000Y-186169000D02*
X236684000Y-186169000D01*
X235240000Y-186209000D02*
X236716000Y-186209000D01*
X235240000Y-186249000D02*
X236748000Y-186249000D01*
X235240000Y-186289000D02*
X236778000Y-186289000D01*
X235240000Y-186329000D02*
X236807000Y-186329000D01*
X235240000Y-186369000D02*
X236836000Y-186369000D01*
X235240000Y-186409000D02*
X236864000Y-186409000D01*
X235240000Y-186449000D02*
X236890000Y-186449000D01*
X235240000Y-186489000D02*
X236916000Y-186489000D01*
X235240000Y-186529000D02*
X236942000Y-186529000D01*
X235240000Y-186569000D02*
X236966000Y-186569000D01*
X235240000Y-186609000D02*
X236990000Y-186609000D01*
X235240000Y-186649000D02*
X237012000Y-186649000D01*
X235240000Y-186689000D02*
X237034000Y-186689000D01*
X235240000Y-186729000D02*
X237056000Y-186729000D01*
X235240000Y-186769000D02*
X237076000Y-186769000D01*
X235240000Y-186809000D02*
X237096000Y-186809000D01*
X235240000Y-186849000D02*
X237116000Y-186849000D01*
X235240000Y-186889000D02*
X237134000Y-186889000D01*
X235240000Y-186929000D02*
X237152000Y-186929000D01*
X235240000Y-186969000D02*
X237170000Y-186969000D01*
X235240000Y-187009000D02*
X237186000Y-187009000D01*
X235240000Y-187049000D02*
X237202000Y-187049000D01*
X235240000Y-187089000D02*
X237218000Y-187089000D01*
X235240000Y-187129000D02*
X237233000Y-187129000D01*
X235240000Y-187169000D02*
X237247000Y-187169000D01*
X235240000Y-187209000D02*
X237261000Y-187209000D01*
X235240000Y-187249000D02*
X237274000Y-187249000D01*
X235240000Y-187289000D02*
X237286000Y-187289000D01*
X235240000Y-187329000D02*
X237298000Y-187329000D01*
X235240000Y-187369000D02*
X237310000Y-187369000D01*
X235240000Y-187409000D02*
X237321000Y-187409000D01*
X235240000Y-187449000D02*
X237331000Y-187449000D01*
X235240000Y-187489000D02*
X237341000Y-187489000D01*
X235240000Y-187529000D02*
X237350000Y-187529000D01*
X235240000Y-187570000D02*
X237359000Y-187570000D01*
X235240000Y-187610000D02*
X237367000Y-187610000D01*
X235240000Y-187650000D02*
X237375000Y-187650000D01*
X235240000Y-187690000D02*
X237382000Y-187690000D01*
X235240000Y-187730000D02*
X237389000Y-187730000D01*
X235240000Y-187770000D02*
X237395000Y-187770000D01*
X235240000Y-187810000D02*
X237401000Y-187810000D01*
X235240000Y-187850000D02*
X237406000Y-187850000D01*
X235240000Y-187890000D02*
X237411000Y-187890000D01*
X235240000Y-187930000D02*
X237415000Y-187930000D01*
X235240000Y-187970000D02*
X237418000Y-187970000D01*
X235240000Y-188010000D02*
X237422000Y-188010000D01*
X237470000Y-188250000D02*
G75*
G02*
X230930000Y-188250000I-3270000J0D01*
G01*
X230930000Y-188250000D02*
G75*
G02*
X237470000Y-188250000I3270000J0D01*
G01*
X204225000Y-114925000D02*
X226975000Y-114925000D01*
X204225000Y-168075000D02*
X204225000Y-114925000D01*
X206710000Y-116100000D02*
X209250000Y-116100000D01*
X206710000Y-166900000D02*
X206710000Y-116100000D01*
X209250000Y-116100000D02*
X209250000Y-166900000D01*
X209250000Y-166900000D02*
X206710000Y-166900000D01*
X210460000Y-119850000D02*
X210460000Y-122510000D01*
X210460000Y-122510000D02*
X220740000Y-122510000D01*
X220740000Y-119850000D02*
X210460000Y-119850000D01*
X220740000Y-122510000D02*
X220740000Y-119850000D01*
X221890000Y-116040000D02*
X224550000Y-116040000D01*
X221890000Y-164360000D02*
X221890000Y-116040000D01*
X224550000Y-116040000D02*
X224550000Y-164360000D01*
X224550000Y-164360000D02*
X221890000Y-164360000D01*
X224550000Y-165630000D02*
X224550000Y-166960000D01*
X224550000Y-166960000D02*
X223220000Y-166960000D01*
X226975000Y-114925000D02*
X226975000Y-168075000D01*
X226975000Y-168075000D02*
X204225000Y-168075000D01*
X192410000Y-116265000D02*
X192810000Y-116265000D01*
X192410000Y-117385000D02*
X192410000Y-116265000D01*
X192800000Y-117395000D02*
X193300000Y-117395000D01*
X192810000Y-116265000D02*
X192810000Y-117385000D01*
X192810000Y-117385000D02*
X192410000Y-117385000D01*
X192810000Y-117385000D02*
X192810000Y-113525000D01*
X193100000Y-117395000D02*
X193100000Y-120065000D01*
X193100000Y-120055000D02*
X193100000Y-120055000D01*
X193100000Y-120065000D02*
X193100000Y-117395000D01*
X195450000Y-117385000D02*
X195930000Y-117385000D01*
X195640000Y-117385000D02*
X195640000Y-117385000D01*
X195640000Y-117385000D02*
X195640000Y-120055000D01*
X195640000Y-120055000D02*
X195640000Y-117385000D01*
X195640000Y-120055000D02*
X195640000Y-120055000D01*
X195930000Y-117385000D02*
X195930000Y-113525000D01*
X192810000Y-113525000D02*
G75*
G02*
X195930000Y-113525000I1560000J0D01*
G01*
X244772000Y-194098000D02*
X244772000Y-200702000D01*
X244772000Y-200702000D02*
X257980000Y-200702000D01*
X251376000Y-194098000D02*
X244772000Y-194098000D01*
X257980000Y-194098000D02*
X251376000Y-194098000D01*
X257980000Y-197400000D02*
X257980000Y-194098000D01*
X257980000Y-200702000D02*
X257980000Y-197400000D01*
X176072936Y-123690000D02*
X177527064Y-123690000D01*
X176072936Y-125510000D02*
X177527064Y-125510000D01*
X181572936Y-120490000D02*
X183027064Y-120490000D01*
X181572936Y-122310000D02*
X183027064Y-122310000D01*
X245972936Y-116690000D02*
X247427064Y-116690000D01*
X245972936Y-118510000D02*
X247427064Y-118510000D01*
X245972936Y-122490000D02*
X247427064Y-122490000D01*
X245972936Y-124310000D02*
X247427064Y-124310000D01*
X199100000Y-132100000D02*
X201100000Y-132100000D01*
X199100000Y-134900000D02*
X199100000Y-132100000D01*
X201100000Y-132100000D02*
X201100000Y-134900000D01*
X201100000Y-134900000D02*
X199100000Y-134900000D01*
X230377500Y-152945276D02*
X230377500Y-153454724D01*
X231422500Y-152945276D02*
X231422500Y-153454724D01*
X235270000Y-194980000D02*
X235270000Y-194920000D01*
X237930000Y-194920000D02*
X235270000Y-194920000D01*
X237930000Y-194980000D02*
X235270000Y-194980000D01*
X237930000Y-194980000D02*
X237930000Y-194920000D01*
X237930000Y-196250000D02*
X237930000Y-197580000D01*
X237930000Y-197580000D02*
X236600000Y-197580000D01*
X233370000Y-115730000D02*
X233770000Y-115730000D01*
X233370000Y-116850000D02*
X233370000Y-115730000D01*
X233760000Y-116860000D02*
X234260000Y-116860000D01*
X233770000Y-115730000D02*
X233770000Y-116850000D01*
X233770000Y-116850000D02*
X233370000Y-116850000D01*
X233770000Y-116850000D02*
X233770000Y-112990000D01*
X234060000Y-116860000D02*
X234060000Y-119530000D01*
X234060000Y-119520000D02*
X234060000Y-119520000D01*
X234060000Y-119530000D02*
X234060000Y-116860000D01*
X236410000Y-116850000D02*
X236890000Y-116850000D01*
X236600000Y-116850000D02*
X236600000Y-116850000D01*
X236600000Y-116850000D02*
X236600000Y-119520000D01*
X236600000Y-119520000D02*
X236600000Y-116850000D01*
X236600000Y-119520000D02*
X236600000Y-119520000D01*
X236890000Y-116850000D02*
X236890000Y-112990000D01*
X233770000Y-112990000D02*
G75*
G02*
X236890000Y-112990000I1560000J0D01*
G01*
X218456000Y-193046000D02*
X220266000Y-193046000D01*
X218456000Y-194546000D02*
X218456000Y-193046000D01*
X220266000Y-193046000D02*
X220266000Y-191946000D01*
X227046000Y-193046000D02*
X227046000Y-187921000D01*
X228856000Y-193046000D02*
X227046000Y-193046000D01*
X228856000Y-194546000D02*
X228856000Y-193046000D01*
X198870000Y-161430000D02*
X198870000Y-151210000D01*
X201530000Y-151210000D02*
X198870000Y-151210000D01*
X201530000Y-161430000D02*
X198870000Y-161430000D01*
X201530000Y-161430000D02*
X201530000Y-151210000D01*
X201530000Y-162700000D02*
X201530000Y-164030000D01*
X201530000Y-164030000D02*
X200200000Y-164030000D01*
X199422936Y-113890000D02*
X200877064Y-113890000D01*
X199422936Y-115710000D02*
X200877064Y-115710000D01*
X191380000Y-202130000D02*
X191380000Y-195630000D01*
X193980000Y-195630000D02*
X193980000Y-202130000D01*
X199662500Y-118840000D02*
X199012500Y-118840000D01*
X199662500Y-118840000D02*
X200312500Y-118840000D01*
X199662500Y-121960000D02*
X199012500Y-121960000D01*
X199662500Y-121960000D02*
X200312500Y-121960000D01*
X198500000Y-118890000D02*
X198260000Y-118560000D01*
X198740000Y-118560000D01*
X198500000Y-118890000D01*
G36*
X198500000Y-118890000D02*
G01*
X198260000Y-118560000D01*
X198740000Y-118560000D01*
X198500000Y-118890000D01*
G37*
X237688748Y-122890000D02*
X239111252Y-122890000D01*
X237688748Y-124710000D02*
X239111252Y-124710000D01*
X173465000Y-138990000D02*
X174585000Y-138990000D01*
X173465000Y-139390000D02*
X173465000Y-138990000D01*
X174585000Y-135870000D02*
X170725000Y-135870000D01*
X174585000Y-136160000D02*
X174585000Y-136160000D01*
X174585000Y-136160000D02*
X177255000Y-136160000D01*
X174585000Y-136350000D02*
X174585000Y-135870000D01*
X174585000Y-138990000D02*
X170725000Y-138990000D01*
X174585000Y-138990000D02*
X174585000Y-139390000D01*
X174585000Y-139390000D02*
X173465000Y-139390000D01*
X174595000Y-138700000D02*
X177265000Y-138700000D01*
X174595000Y-139000000D02*
X174595000Y-138500000D01*
X177255000Y-136160000D02*
X174585000Y-136160000D01*
X177255000Y-136160000D02*
X177255000Y-136160000D01*
X177255000Y-138700000D02*
X177255000Y-138700000D01*
X177265000Y-138700000D02*
X174595000Y-138700000D01*
X170725000Y-138990000D02*
G75*
G02*
X170725000Y-135870000I0J1560000D01*
G01*
X173465000Y-133490000D02*
X174585000Y-133490000D01*
X173465000Y-133890000D02*
X173465000Y-133490000D01*
X174585000Y-130370000D02*
X170725000Y-130370000D01*
X174585000Y-130660000D02*
X174585000Y-130660000D01*
X174585000Y-130660000D02*
X177255000Y-130660000D01*
X174585000Y-130850000D02*
X174585000Y-130370000D01*
X174585000Y-133490000D02*
X170725000Y-133490000D01*
X174585000Y-133490000D02*
X174585000Y-133890000D01*
X174585000Y-133890000D02*
X173465000Y-133890000D01*
X174595000Y-133200000D02*
X177265000Y-133200000D01*
X174595000Y-133500000D02*
X174595000Y-133000000D01*
X177255000Y-130660000D02*
X174585000Y-130660000D01*
X177255000Y-130660000D02*
X177255000Y-130660000D01*
X177255000Y-133200000D02*
X177255000Y-133200000D01*
X177265000Y-133200000D02*
X174595000Y-133200000D01*
X170725000Y-133490000D02*
G75*
G02*
X170725000Y-130370000I0J1560000D01*
G01*
X186330000Y-202130000D02*
X186330000Y-195630000D01*
X188930000Y-195630000D02*
X188930000Y-202130000D01*
D10*
X216750000Y-170200000D02*
X247750000Y-170200000D01*
X216750000Y-176200000D02*
X216750000Y-170200000D01*
X216750000Y-176200000D02*
X216750000Y-182200000D01*
X216750000Y-182200000D02*
X247750000Y-182200000D01*
X236250000Y-176200000D02*
X236250000Y-168700000D01*
X236250000Y-176200000D02*
X236250000Y-183700000D01*
X239250000Y-170200000D02*
X239250000Y-162900000D01*
X239250000Y-182200000D02*
X239250000Y-189500000D01*
X247750000Y-162900000D02*
X239250000Y-162900000D01*
X247750000Y-168700000D02*
X236250000Y-168700000D01*
X247750000Y-170200000D02*
X247750000Y-174700000D01*
X247750000Y-176200000D02*
X247750000Y-162900000D01*
X247750000Y-176200000D02*
X247750000Y-189500000D01*
X247750000Y-182200000D02*
X247750000Y-177700000D01*
X247750000Y-183700000D02*
X236250000Y-183700000D01*
X247750000Y-189500000D02*
X239250000Y-189500000D01*
D11*
X194270000Y-151195000D02*
X195600000Y-151195000D01*
X194270000Y-152525000D02*
X194270000Y-151195000D01*
X194270000Y-153795000D02*
X194270000Y-164015000D01*
X194270000Y-153795000D02*
X196930000Y-153795000D01*
X194270000Y-164015000D02*
X196930000Y-164015000D01*
X196930000Y-153795000D02*
X196930000Y-164015000D01*
X230377500Y-159345276D02*
X230377500Y-159854724D01*
X231422500Y-159345276D02*
X231422500Y-159854724D01*
X232370000Y-150420000D02*
X233700000Y-150420000D01*
X232370000Y-151750000D02*
X232370000Y-150420000D01*
X232370000Y-153020000D02*
X232370000Y-165780000D01*
X232370000Y-153020000D02*
X235030000Y-153020000D01*
X232370000Y-165780000D02*
X235030000Y-165780000D01*
X235030000Y-153020000D02*
X235030000Y-165780000D01*
X236295000Y-153045000D02*
X236295000Y-165805000D01*
X236295000Y-153045000D02*
X238955000Y-153045000D01*
X236295000Y-165805000D02*
X238955000Y-165805000D01*
X237625000Y-150445000D02*
X238955000Y-150445000D01*
X238955000Y-150445000D02*
X238955000Y-151775000D01*
X238955000Y-153045000D02*
X238955000Y-165805000D01*
X208720000Y-199000000D02*
G75*
G02*
X199480000Y-199000000I-4620000J0D01*
G01*
X199480000Y-199000000D02*
G75*
G02*
X208720000Y-199000000I4620000J0D01*
G01*
X247427064Y-119590000D02*
X245972936Y-119590000D01*
X247427064Y-121410000D02*
X245972936Y-121410000D01*
X182000000Y-153460000D02*
X184860000Y-153460000D01*
X184860000Y-151540000D02*
X182000000Y-151540000D01*
X184860000Y-153460000D02*
X184860000Y-151540000D01*
X230170000Y-199670000D02*
X231500000Y-199670000D01*
X230170000Y-201000000D02*
X230170000Y-199670000D01*
X230170000Y-202270000D02*
X230170000Y-202330000D01*
X230170000Y-202270000D02*
X232830000Y-202270000D01*
X230170000Y-202330000D02*
X232830000Y-202330000D01*
X232830000Y-202270000D02*
X232830000Y-202330000D01*
X170373300Y-142020000D02*
X171703300Y-142020000D01*
X170373300Y-143350000D02*
X170373300Y-142020000D01*
X170373300Y-144620000D02*
X170373300Y-157380000D01*
X170373300Y-144620000D02*
X173033300Y-144620000D01*
X170373300Y-157380000D02*
X173033300Y-157380000D01*
X173033300Y-144620000D02*
X173033300Y-157380000D01*
X174567500Y-152636600D02*
X174567500Y-146756600D01*
X176537500Y-145586600D02*
X177687500Y-145586600D01*
X176537500Y-153806600D02*
X177687500Y-153806600D01*
X177687500Y-145586600D02*
X177687500Y-146636600D01*
X177687500Y-152756600D02*
X178677500Y-152756600D01*
X177687500Y-153806600D02*
X177687500Y-152756600D01*
X182000000Y-158060000D02*
X184860000Y-158060000D01*
X184860000Y-156140000D02*
X182000000Y-156140000D01*
X184860000Y-158060000D02*
X184860000Y-156140000D01*
X257862500Y-124140000D02*
X257212500Y-124140000D01*
X257862500Y-124140000D02*
X258512500Y-124140000D01*
X257862500Y-127260000D02*
X257212500Y-127260000D01*
X257862500Y-127260000D02*
X258512500Y-127260000D01*
X256700000Y-124190000D02*
X256460000Y-123860000D01*
X256940000Y-123860000D01*
X256700000Y-124190000D01*
G36*
X256700000Y-124190000D02*
G01*
X256460000Y-123860000D01*
X256940000Y-123860000D01*
X256700000Y-124190000D01*
G37*
X172062500Y-125640000D02*
X171412500Y-125640000D01*
X172062500Y-125640000D02*
X172712500Y-125640000D01*
X172062500Y-128760000D02*
X171412500Y-128760000D01*
X172062500Y-128760000D02*
X172712500Y-128760000D01*
X170900000Y-125690000D02*
X170660000Y-125360000D01*
X171140000Y-125360000D01*
X170900000Y-125690000D01*
G36*
X170900000Y-125690000D02*
G01*
X170660000Y-125360000D01*
X171140000Y-125360000D01*
X170900000Y-125690000D01*
G37*
X239990000Y-152453733D02*
X239990000Y-152746267D01*
X241010000Y-152453733D02*
X241010000Y-152746267D01*
X194600000Y-132100000D02*
X196600000Y-132100000D01*
X194600000Y-134900000D02*
X194600000Y-132100000D01*
X196600000Y-132100000D02*
X196600000Y-134900000D01*
X196600000Y-134900000D02*
X194600000Y-134900000D01*
X230760000Y-125895000D02*
X230760000Y-146335000D01*
X230760000Y-146335000D02*
X236060000Y-146335000D01*
X232410000Y-125895000D02*
X230760000Y-125895000D01*
X236060000Y-125895000D02*
X234410000Y-125895000D01*
X236060000Y-146335000D02*
X236060000Y-125895000D01*
X234410000Y-125895000D02*
G75*
G02*
X232410000Y-125895000I-1000000J0D01*
G01*
X206620000Y-188170000D02*
X213080000Y-188170000D01*
X206620000Y-188210000D02*
X213080000Y-188210000D01*
X206620000Y-188250000D02*
X213080000Y-188250000D01*
X206622000Y-188130000D02*
X213078000Y-188130000D01*
X206623000Y-188090000D02*
X213077000Y-188090000D01*
X206626000Y-188050000D02*
X213074000Y-188050000D01*
X206628000Y-188010000D02*
X208810000Y-188010000D01*
X206632000Y-187970000D02*
X208810000Y-187970000D01*
X206635000Y-187930000D02*
X208810000Y-187930000D01*
X206639000Y-187890000D02*
X208810000Y-187890000D01*
X206644000Y-187850000D02*
X208810000Y-187850000D01*
X206649000Y-187810000D02*
X208810000Y-187810000D01*
X206655000Y-187770000D02*
X208810000Y-187770000D01*
X206661000Y-187730000D02*
X208810000Y-187730000D01*
X206668000Y-187690000D02*
X208810000Y-187690000D01*
X206675000Y-187650000D02*
X208810000Y-187650000D01*
X206683000Y-187610000D02*
X208810000Y-187610000D01*
X206691000Y-187570000D02*
X208810000Y-187570000D01*
X206700000Y-187529000D02*
X208810000Y-187529000D01*
X206709000Y-187489000D02*
X208810000Y-187489000D01*
X206719000Y-187449000D02*
X208810000Y-187449000D01*
X206729000Y-187409000D02*
X208810000Y-187409000D01*
X206740000Y-187369000D02*
X208810000Y-187369000D01*
X206752000Y-187329000D02*
X208810000Y-187329000D01*
X206764000Y-187289000D02*
X208810000Y-187289000D01*
X206776000Y-187249000D02*
X208810000Y-187249000D01*
X206789000Y-187209000D02*
X208810000Y-187209000D01*
X206803000Y-187169000D02*
X208810000Y-187169000D01*
X206817000Y-187129000D02*
X208810000Y-187129000D01*
X206832000Y-187089000D02*
X208810000Y-187089000D01*
X206848000Y-187049000D02*
X208810000Y-187049000D01*
X206864000Y-187009000D02*
X208810000Y-187009000D01*
X206880000Y-186969000D02*
X208810000Y-186969000D01*
X206898000Y-186929000D02*
X208810000Y-186929000D01*
X206916000Y-186889000D02*
X208810000Y-186889000D01*
X206934000Y-186849000D02*
X208810000Y-186849000D01*
X206954000Y-186809000D02*
X208810000Y-186809000D01*
X206974000Y-186769000D02*
X208810000Y-186769000D01*
X206994000Y-186729000D02*
X208810000Y-186729000D01*
X207016000Y-186689000D02*
X208810000Y-186689000D01*
X207038000Y-186649000D02*
X208810000Y-186649000D01*
X207060000Y-186609000D02*
X208810000Y-186609000D01*
X207084000Y-186569000D02*
X208810000Y-186569000D01*
X207108000Y-186529000D02*
X208810000Y-186529000D01*
X207134000Y-186489000D02*
X208810000Y-186489000D01*
X207160000Y-186449000D02*
X208810000Y-186449000D01*
X207186000Y-186409000D02*
X208810000Y-186409000D01*
X207214000Y-186369000D02*
X208810000Y-186369000D01*
X207243000Y-186329000D02*
X208810000Y-186329000D01*
X207272000Y-186289000D02*
X208810000Y-186289000D01*
X207302000Y-186249000D02*
X208810000Y-186249000D01*
X207334000Y-186209000D02*
X208810000Y-186209000D01*
X207366000Y-186169000D02*
X208810000Y-186169000D01*
X207400000Y-186129000D02*
X208810000Y-186129000D01*
X207434000Y-186089000D02*
X208810000Y-186089000D01*
X207470000Y-186049000D02*
X208810000Y-186049000D01*
X207507000Y-186009000D02*
X208810000Y-186009000D01*
X207545000Y-185969000D02*
X208810000Y-185969000D01*
X207585000Y-185929000D02*
X212115000Y-185929000D01*
X207626000Y-185889000D02*
X212074000Y-185889000D01*
X207668000Y-185849000D02*
X212032000Y-185849000D01*
X207696000Y-191435241D02*
X208326000Y-191435241D01*
X207713000Y-185809000D02*
X211987000Y-185809000D01*
X207758000Y-185769000D02*
X211942000Y-185769000D01*
X207806000Y-185729000D02*
X211894000Y-185729000D01*
X207855000Y-185689000D02*
X211845000Y-185689000D01*
X207906000Y-185649000D02*
X211794000Y-185649000D01*
X207960000Y-185609000D02*
X211740000Y-185609000D01*
X208011000Y-191750241D02*
X208011000Y-191120241D01*
X208016000Y-185569000D02*
X211684000Y-185569000D01*
X208074000Y-185529000D02*
X211626000Y-185529000D01*
X208136000Y-185489000D02*
X211564000Y-185489000D01*
X208200000Y-185449000D02*
X211500000Y-185449000D01*
X208269000Y-185409000D02*
X211431000Y-185409000D01*
X208341000Y-185369000D02*
X211359000Y-185369000D01*
X208418000Y-185329000D02*
X211282000Y-185329000D01*
X208500000Y-185289000D02*
X211200000Y-185289000D01*
X208588000Y-185249000D02*
X211112000Y-185249000D01*
X208685000Y-185209000D02*
X211015000Y-185209000D01*
X208791000Y-185169000D02*
X210909000Y-185169000D01*
X208910000Y-185129000D02*
X210790000Y-185129000D01*
X209048000Y-185089000D02*
X210652000Y-185089000D01*
X209217000Y-185049000D02*
X210483000Y-185049000D01*
X209448000Y-185009000D02*
X210252000Y-185009000D01*
X210890000Y-185969000D02*
X212155000Y-185969000D01*
X210890000Y-186009000D02*
X212193000Y-186009000D01*
X210890000Y-186049000D02*
X212230000Y-186049000D01*
X210890000Y-186089000D02*
X212266000Y-186089000D01*
X210890000Y-186129000D02*
X212300000Y-186129000D01*
X210890000Y-186169000D02*
X212334000Y-186169000D01*
X210890000Y-186209000D02*
X212366000Y-186209000D01*
X210890000Y-186249000D02*
X212398000Y-186249000D01*
X210890000Y-186289000D02*
X212428000Y-186289000D01*
X210890000Y-186329000D02*
X212457000Y-186329000D01*
X210890000Y-186369000D02*
X212486000Y-186369000D01*
X210890000Y-186409000D02*
X212514000Y-186409000D01*
X210890000Y-186449000D02*
X212540000Y-186449000D01*
X210890000Y-186489000D02*
X212566000Y-186489000D01*
X210890000Y-186529000D02*
X212592000Y-186529000D01*
X210890000Y-186569000D02*
X212616000Y-186569000D01*
X210890000Y-186609000D02*
X212640000Y-186609000D01*
X210890000Y-186649000D02*
X212662000Y-186649000D01*
X210890000Y-186689000D02*
X212684000Y-186689000D01*
X210890000Y-186729000D02*
X212706000Y-186729000D01*
X210890000Y-186769000D02*
X212726000Y-186769000D01*
X210890000Y-186809000D02*
X212746000Y-186809000D01*
X210890000Y-186849000D02*
X212766000Y-186849000D01*
X210890000Y-186889000D02*
X212784000Y-186889000D01*
X210890000Y-186929000D02*
X212802000Y-186929000D01*
X210890000Y-186969000D02*
X212820000Y-186969000D01*
X210890000Y-187009000D02*
X212836000Y-187009000D01*
X210890000Y-187049000D02*
X212852000Y-187049000D01*
X210890000Y-187089000D02*
X212868000Y-187089000D01*
X210890000Y-187129000D02*
X212883000Y-187129000D01*
X210890000Y-187169000D02*
X212897000Y-187169000D01*
X210890000Y-187209000D02*
X212911000Y-187209000D01*
X210890000Y-187249000D02*
X212924000Y-187249000D01*
X210890000Y-187289000D02*
X212936000Y-187289000D01*
X210890000Y-187329000D02*
X212948000Y-187329000D01*
X210890000Y-187369000D02*
X212960000Y-187369000D01*
X210890000Y-187409000D02*
X212971000Y-187409000D01*
X210890000Y-187449000D02*
X212981000Y-187449000D01*
X210890000Y-187489000D02*
X212991000Y-187489000D01*
X210890000Y-187529000D02*
X213000000Y-187529000D01*
X210890000Y-187570000D02*
X213009000Y-187570000D01*
X210890000Y-187610000D02*
X213017000Y-187610000D01*
X210890000Y-187650000D02*
X213025000Y-187650000D01*
X210890000Y-187690000D02*
X213032000Y-187690000D01*
X210890000Y-187730000D02*
X213039000Y-187730000D01*
X210890000Y-187770000D02*
X213045000Y-187770000D01*
X210890000Y-187810000D02*
X213051000Y-187810000D01*
X210890000Y-187850000D02*
X213056000Y-187850000D01*
X210890000Y-187890000D02*
X213061000Y-187890000D01*
X210890000Y-187930000D02*
X213065000Y-187930000D01*
X210890000Y-187970000D02*
X213068000Y-187970000D01*
X210890000Y-188010000D02*
X213072000Y-188010000D01*
X213120000Y-188250000D02*
G75*
G02*
X206580000Y-188250000I-3270000J0D01*
G01*
X206580000Y-188250000D02*
G75*
G02*
X213120000Y-188250000I3270000J0D01*
G01*
X181280000Y-202130000D02*
X181280000Y-195630000D01*
X183880000Y-195630000D02*
X183880000Y-202130000D01*
X181572936Y-117190000D02*
X183027064Y-117190000D01*
X181572936Y-119010000D02*
X183027064Y-119010000D01*
X176230000Y-202130000D02*
X176230000Y-195630000D01*
X178830000Y-195630000D02*
X178830000Y-202130000D01*
X235270000Y-199630000D02*
X235270000Y-199570000D01*
X237930000Y-199570000D02*
X235270000Y-199570000D01*
X237930000Y-199630000D02*
X235270000Y-199630000D01*
X237930000Y-199630000D02*
X237930000Y-199570000D01*
X237930000Y-200900000D02*
X237930000Y-202230000D01*
X237930000Y-202230000D02*
X236600000Y-202230000D01*
X239990000Y-158053733D02*
X239990000Y-158346267D01*
X241010000Y-158053733D02*
X241010000Y-158346267D01*
X176072936Y-126790000D02*
X177527064Y-126790000D01*
X176072936Y-128610000D02*
X177527064Y-128610000D01*
X231311252Y-122890000D02*
X229888748Y-122890000D01*
X231311252Y-124710000D02*
X229888748Y-124710000D01*
X253612500Y-145690000D02*
X253612500Y-146740000D01*
X253612500Y-146740000D02*
X252622500Y-146740000D01*
X253612500Y-153910000D02*
X253612500Y-152860000D01*
X254762500Y-145690000D02*
X253612500Y-145690000D01*
X254762500Y-153910000D02*
X253612500Y-153910000D01*
X256732500Y-146860000D02*
X256732500Y-152740000D01*
X258266700Y-154876600D02*
X258266700Y-142116600D01*
X260926700Y-142116600D02*
X258266700Y-142116600D01*
X260926700Y-154876600D02*
X258266700Y-154876600D01*
X260926700Y-154876600D02*
X260926700Y-142116600D01*
X260926700Y-156146600D02*
X260926700Y-157476600D01*
X260926700Y-157476600D02*
X259596700Y-157476600D01*
X251472936Y-122490000D02*
X252927064Y-122490000D01*
X251472936Y-124310000D02*
X252927064Y-124310000D01*
X189490000Y-140255000D02*
X189490000Y-139125000D01*
X189555000Y-136725000D02*
X196025000Y-136725000D01*
X189555000Y-137547470D02*
X189555000Y-136725000D01*
X189555000Y-138365000D02*
X189555000Y-138162530D01*
X189686529Y-138365000D02*
X189555000Y-138365000D01*
X190250000Y-140255000D02*
X189490000Y-140255000D01*
X190956529Y-138365000D02*
X190813471Y-138365000D01*
X191010000Y-138561529D02*
X191010000Y-138418471D01*
X191010000Y-140255000D02*
X191010000Y-139688471D01*
X191010000Y-140255000D02*
X196025000Y-140255000D01*
X196025000Y-137547470D02*
X196025000Y-136725000D01*
X196025000Y-138817470D02*
X196025000Y-138162530D01*
X196025000Y-140255000D02*
X196025000Y-139432530D01*
X249130000Y-201620000D02*
X249130000Y-204280000D01*
X251730000Y-201620000D02*
X249130000Y-201620000D01*
X251730000Y-201620000D02*
X251730000Y-204280000D01*
X251730000Y-204280000D02*
X249130000Y-204280000D01*
X254330000Y-202950000D02*
X254330000Y-204280000D01*
X254330000Y-204280000D02*
X253000000Y-204280000D01*
X183800000Y-114600000D02*
X186600000Y-114600000D01*
X183800000Y-116600000D02*
X183800000Y-114600000D01*
X186600000Y-114600000D02*
X186600000Y-116600000D01*
X186600000Y-116600000D02*
X183800000Y-116600000D01*
X229422936Y-113690000D02*
X230877064Y-113690000D01*
X229422936Y-115510000D02*
X230877064Y-115510000D01*
X240570000Y-199470000D02*
X241900000Y-199470000D01*
X240570000Y-200800000D02*
X240570000Y-199470000D01*
X240570000Y-202070000D02*
X240570000Y-202130000D01*
X240570000Y-202070000D02*
X243230000Y-202070000D01*
X240570000Y-202130000D02*
X243230000Y-202130000D01*
X243230000Y-202070000D02*
X243230000Y-202130000D01*
X251472936Y-126490000D02*
X252927064Y-126490000D01*
X251472936Y-128310000D02*
X252927064Y-128310000D01*
X187370000Y-116265000D02*
X187770000Y-116265000D01*
X187370000Y-117385000D02*
X187370000Y-116265000D01*
X187760000Y-117395000D02*
X188260000Y-117395000D01*
X187770000Y-116265000D02*
X187770000Y-117385000D01*
X187770000Y-117385000D02*
X187370000Y-117385000D01*
X187770000Y-117385000D02*
X187770000Y-113525000D01*
X188060000Y-117395000D02*
X188060000Y-120065000D01*
X188060000Y-120055000D02*
X188060000Y-120055000D01*
X188060000Y-120065000D02*
X188060000Y-117395000D01*
X190410000Y-117385000D02*
X190890000Y-117385000D01*
X190600000Y-117385000D02*
X190600000Y-117385000D01*
X190600000Y-117385000D02*
X190600000Y-120055000D01*
X190600000Y-120055000D02*
X190600000Y-117385000D01*
X190600000Y-120055000D02*
X190600000Y-120055000D01*
X190890000Y-117385000D02*
X190890000Y-113525000D01*
X187770000Y-113525000D02*
G75*
G02*
X190890000Y-113525000I1560000J0D01*
G01*
D10*
X183350000Y-162900000D02*
X191850000Y-162900000D01*
X183350000Y-168700000D02*
X194850000Y-168700000D01*
X183350000Y-170200000D02*
X183350000Y-174700000D01*
X183350000Y-176200000D02*
X183350000Y-162900000D01*
X183350000Y-176200000D02*
X183350000Y-189500000D01*
X183350000Y-182200000D02*
X183350000Y-177700000D01*
X183350000Y-183700000D02*
X194850000Y-183700000D01*
X183350000Y-189500000D02*
X191850000Y-189500000D01*
X191850000Y-170200000D02*
X191850000Y-162900000D01*
X191850000Y-182200000D02*
X191850000Y-189500000D01*
X194850000Y-176200000D02*
X194850000Y-168700000D01*
X194850000Y-176200000D02*
X194850000Y-183700000D01*
X214350000Y-170200000D02*
X183350000Y-170200000D01*
X214350000Y-176200000D02*
X214350000Y-170200000D01*
X214350000Y-176200000D02*
X214350000Y-182200000D01*
X214350000Y-182200000D02*
X183350000Y-182200000D01*
D11*
X190050000Y-132000000D02*
X192050000Y-132000000D01*
X190050000Y-134800000D02*
X190050000Y-132000000D01*
X192050000Y-132000000D02*
X192050000Y-134800000D01*
X192050000Y-134800000D02*
X190050000Y-134800000D01*
X253437500Y-136724226D02*
X256107500Y-136724226D01*
X253447500Y-136724226D02*
X253447500Y-136724226D01*
X253447500Y-139264226D02*
X253447500Y-139264226D01*
X253447500Y-139264226D02*
X256117500Y-139264226D01*
X256107500Y-136424226D02*
X256107500Y-136924226D01*
X256107500Y-136724226D02*
X253437500Y-136724226D01*
X256117500Y-136034226D02*
X257237500Y-136034226D01*
X256117500Y-136434226D02*
X256117500Y-136034226D01*
X256117500Y-136434226D02*
X259977500Y-136434226D01*
X256117500Y-139074226D02*
X256117500Y-139554226D01*
X256117500Y-139264226D02*
X253447500Y-139264226D01*
X256117500Y-139264226D02*
X256117500Y-139264226D01*
X256117500Y-139554226D02*
X259977500Y-139554226D01*
X257237500Y-136034226D02*
X257237500Y-136434226D01*
X257237500Y-136434226D02*
X256117500Y-136434226D01*
X259977500Y-136434226D02*
G75*
G02*
X259977500Y-139554226I0J-1560000D01*
G01*
X238470000Y-115730000D02*
X238870000Y-115730000D01*
X238470000Y-116850000D02*
X238470000Y-115730000D01*
X238860000Y-116860000D02*
X239360000Y-116860000D01*
X238870000Y-115730000D02*
X238870000Y-116850000D01*
X238870000Y-116850000D02*
X238470000Y-116850000D01*
X238870000Y-116850000D02*
X238870000Y-112990000D01*
X239160000Y-116860000D02*
X239160000Y-119530000D01*
X239160000Y-119520000D02*
X239160000Y-119520000D01*
X239160000Y-119530000D02*
X239160000Y-116860000D01*
X241510000Y-116850000D02*
X241990000Y-116850000D01*
X241700000Y-116850000D02*
X241700000Y-116850000D01*
X241700000Y-116850000D02*
X241700000Y-119520000D01*
X241700000Y-119520000D02*
X241700000Y-116850000D01*
X241700000Y-119520000D02*
X241700000Y-119520000D01*
X241990000Y-116850000D02*
X241990000Y-112990000D01*
X238870000Y-112990000D02*
G75*
G02*
X241990000Y-112990000I1560000J0D01*
G01*
X253295882Y-130021600D02*
X255965882Y-130021600D01*
X253305882Y-130021600D02*
X253305882Y-130021600D01*
X253305882Y-132561600D02*
X253305882Y-132561600D01*
X253305882Y-132561600D02*
X255975882Y-132561600D01*
X255965882Y-129721600D02*
X255965882Y-130221600D01*
X255965882Y-130021600D02*
X253295882Y-130021600D01*
X255975882Y-129331600D02*
X257095882Y-129331600D01*
X255975882Y-129731600D02*
X255975882Y-129331600D01*
X255975882Y-129731600D02*
X259835882Y-129731600D01*
X255975882Y-132371600D02*
X255975882Y-132851600D01*
X255975882Y-132561600D02*
X253305882Y-132561600D01*
X255975882Y-132561600D02*
X255975882Y-132561600D01*
X255975882Y-132851600D02*
X259835882Y-132851600D01*
X257095882Y-129331600D02*
X257095882Y-129731600D01*
X257095882Y-129731600D02*
X255975882Y-129731600D01*
X259835882Y-129731600D02*
G75*
G02*
X259835882Y-132851600I0J-1560000D01*
G01*
X181572936Y-123690000D02*
X183027064Y-123690000D01*
X181572936Y-125510000D02*
X183027064Y-125510000D01*
%LPC*%
D12*
X229025000Y-119150000D03*
X229025000Y-121050000D03*
X230900000Y-120100000D03*
D13*
X187025000Y-147400000D03*
X184975000Y-147400000D03*
D14*
X234200000Y-189500000D03*
D15*
X234200000Y-187000000D03*
D16*
X223220000Y-165630000D03*
D17*
X223220000Y-163090000D03*
X223220000Y-160550000D03*
X223220000Y-158010000D03*
X223220000Y-155470000D03*
X223220000Y-152930000D03*
X223220000Y-150390000D03*
X223220000Y-147850000D03*
X223220000Y-145310000D03*
X223220000Y-142770000D03*
X223220000Y-140230000D03*
X223220000Y-137690000D03*
X223220000Y-135150000D03*
X223220000Y-132610000D03*
X223220000Y-130070000D03*
X223220000Y-127530000D03*
X223220000Y-124990000D03*
X223220000Y-122450000D03*
X223220000Y-119910000D03*
X223220000Y-117370000D03*
X207980000Y-117370000D03*
X207980000Y-119910000D03*
X207980000Y-122450000D03*
X207980000Y-124990000D03*
X207980000Y-127530000D03*
X207980000Y-130070000D03*
X207980000Y-132610000D03*
X207980000Y-135150000D03*
X207980000Y-137690000D03*
X207980000Y-140230000D03*
X207980000Y-142770000D03*
X207980000Y-145310000D03*
X207980000Y-147850000D03*
X207980000Y-150390000D03*
X207980000Y-152930000D03*
X207980000Y-155470000D03*
X207980000Y-158010000D03*
X207980000Y-160550000D03*
X207980000Y-163090000D03*
X207980000Y-165630000D03*
D18*
X194370000Y-117325000D03*
D19*
X195640000Y-121135000D03*
D20*
X193100000Y-121135000D03*
D21*
X256202000Y-197400000D03*
X251376000Y-197400000D03*
X246550000Y-197400000D03*
D22*
X175250000Y-124600000D03*
X178350000Y-124600000D03*
X180750000Y-121400000D03*
X183850000Y-121400000D03*
X245150000Y-117600000D03*
X248250000Y-117600000D03*
X245150000Y-123400000D03*
X248250000Y-123400000D03*
D23*
X215300000Y-109000000D03*
D24*
X200100000Y-134150000D03*
X200100000Y-132850000D03*
D25*
X230900000Y-152287500D03*
X230900000Y-154112500D03*
D16*
X236600000Y-196250000D03*
D18*
X235330000Y-116790000D03*
D19*
X236600000Y-120600000D03*
D20*
X234060000Y-120600000D03*
D26*
X226196000Y-190221000D03*
X223656000Y-190221000D03*
D27*
X228228000Y-196250000D03*
X226196000Y-196250000D03*
X224164000Y-196250000D03*
X222132000Y-196250000D03*
X220100000Y-196250000D03*
X228228000Y-198282000D03*
X226196000Y-198282000D03*
X224164000Y-198282000D03*
X222132000Y-198282000D03*
X220100000Y-198282000D03*
D28*
X223656000Y-199371000D03*
D27*
X228228000Y-200314000D03*
X226196000Y-200314000D03*
X224164000Y-200314000D03*
X222132000Y-200314000D03*
X220100000Y-200314000D03*
X228228000Y-202346000D03*
X226196000Y-202346000D03*
X224164000Y-202346000D03*
X222132000Y-202346000D03*
X220100000Y-202346000D03*
D26*
X221116000Y-190221000D03*
D23*
X214850000Y-194376000D03*
D16*
X200200000Y-162700000D03*
D29*
X200200000Y-160160000D03*
X200200000Y-157620000D03*
X200200000Y-155080000D03*
X200200000Y-152540000D03*
D22*
X198600000Y-114800000D03*
X201700000Y-114800000D03*
D30*
X192680000Y-203160000D03*
X192680000Y-194600000D03*
D12*
X198725000Y-119450000D03*
X198725000Y-121350000D03*
X200600000Y-120400000D03*
D31*
X236837500Y-123800000D03*
X239962500Y-123800000D03*
D18*
X174525000Y-137430000D03*
D32*
X178335000Y-136160000D03*
D20*
X178335000Y-138700000D03*
D18*
X174525000Y-131930000D03*
D32*
X178335000Y-130660000D03*
D20*
X178335000Y-133200000D03*
D30*
X187630000Y-203160000D03*
X187630000Y-194600000D03*
D33*
X243500000Y-185200000D03*
X243500000Y-167200000D03*
D34*
X195600000Y-152525000D03*
D29*
X195600000Y-155065000D03*
X195600000Y-157605000D03*
X195600000Y-160145000D03*
X195600000Y-162685000D03*
D25*
X230900000Y-158687500D03*
X230900000Y-160512500D03*
D34*
X233700000Y-151750000D03*
D29*
X233700000Y-154290000D03*
X233700000Y-156830000D03*
X233700000Y-159370000D03*
X233700000Y-161910000D03*
X233700000Y-164450000D03*
D34*
X237625000Y-151775000D03*
D29*
X237625000Y-154315000D03*
X237625000Y-156855000D03*
X237625000Y-159395000D03*
X237625000Y-161935000D03*
X237625000Y-164475000D03*
D35*
X206100000Y-199000000D03*
D15*
X202100000Y-199000000D03*
D36*
X248250000Y-120500000D03*
X245150000Y-120500000D03*
D13*
X184025000Y-152500000D03*
X181975000Y-152500000D03*
D34*
X231500000Y-201000000D03*
X171703300Y-143350000D03*
D37*
X177902500Y-147196600D03*
D29*
X171703300Y-145890000D03*
D37*
X177902500Y-148196600D03*
D29*
X171703300Y-148430000D03*
D37*
X177902500Y-149196600D03*
X177902500Y-150196600D03*
D29*
X171703300Y-150970000D03*
D37*
X177902500Y-151196600D03*
D29*
X171703300Y-153510000D03*
D37*
X177902500Y-152196600D03*
D29*
X171703300Y-156050000D03*
D38*
X175377500Y-145896600D03*
X175377500Y-153496600D03*
D13*
X184025000Y-157100000D03*
X181975000Y-157100000D03*
D12*
X256925000Y-124750000D03*
X256925000Y-126650000D03*
X258800000Y-125700000D03*
X171125000Y-126250000D03*
X171125000Y-128150000D03*
X173000000Y-127200000D03*
D39*
X240500000Y-151737500D03*
X240500000Y-153462500D03*
D24*
X195600000Y-134150000D03*
X195600000Y-132850000D03*
D40*
X229600000Y-127225000D03*
D41*
X229600000Y-129765000D03*
X229600000Y-132305000D03*
X229600000Y-134845000D03*
X229600000Y-137385000D03*
X229600000Y-139925000D03*
X229600000Y-142465000D03*
X229600000Y-145005000D03*
X237220000Y-145005000D03*
X237220000Y-142465000D03*
X237220000Y-139925000D03*
X237220000Y-137385000D03*
X237220000Y-134845000D03*
X237220000Y-132305000D03*
X237220000Y-129765000D03*
X237220000Y-127225000D03*
D14*
X209850000Y-189500000D03*
D15*
X209850000Y-187000000D03*
D30*
X182580000Y-203160000D03*
X182580000Y-194600000D03*
D22*
X180750000Y-118100000D03*
X183850000Y-118100000D03*
D30*
X177530000Y-203160000D03*
X177530000Y-194600000D03*
D16*
X236600000Y-200900000D03*
D39*
X240500000Y-157337500D03*
X240500000Y-159062500D03*
D22*
X175250000Y-127700000D03*
X178350000Y-127700000D03*
D42*
X232162500Y-123800000D03*
X229037500Y-123800000D03*
D16*
X259596700Y-156146600D03*
D43*
X253397500Y-152300000D03*
D29*
X259596700Y-153606600D03*
D43*
X253397500Y-151300000D03*
D29*
X259596700Y-151066600D03*
D43*
X253397500Y-150300000D03*
X253397500Y-149300000D03*
D29*
X259596700Y-148526600D03*
D43*
X253397500Y-148300000D03*
D29*
X259596700Y-145986600D03*
D43*
X253397500Y-147300000D03*
D29*
X259596700Y-143446600D03*
D44*
X255922500Y-153600000D03*
X255922500Y-146000000D03*
D22*
X250650000Y-123400000D03*
X253750000Y-123400000D03*
D45*
X190250000Y-139125000D03*
D46*
X190250000Y-137855000D03*
X191520000Y-139125000D03*
X191520000Y-137855000D03*
X192790000Y-139125000D03*
X192790000Y-137855000D03*
X194060000Y-139125000D03*
X194060000Y-137855000D03*
X195330000Y-139125000D03*
X195330000Y-137855000D03*
D47*
X253000000Y-202950000D03*
D29*
X250460000Y-202950000D03*
D48*
X185850000Y-115600000D03*
X184550000Y-115600000D03*
D23*
X214850000Y-202250000D03*
D22*
X228600000Y-114600000D03*
X231700000Y-114600000D03*
D34*
X241900000Y-200800000D03*
D22*
X250650000Y-127400000D03*
X253750000Y-127400000D03*
D18*
X189330000Y-117325000D03*
D19*
X190600000Y-121135000D03*
D20*
X188060000Y-121135000D03*
D33*
X187600000Y-167200000D03*
X187600000Y-185200000D03*
D24*
X191050000Y-134050000D03*
X191050000Y-132750000D03*
D23*
X215300000Y-116874000D03*
D18*
X256177500Y-137994226D03*
D49*
X252367500Y-139264226D03*
D20*
X252367500Y-136724226D03*
D18*
X240430000Y-116790000D03*
D19*
X241700000Y-120600000D03*
D20*
X239160000Y-120600000D03*
D18*
X256035882Y-131291600D03*
D49*
X252225882Y-132561600D03*
D20*
X252225882Y-130021600D03*
D22*
X180750000Y-124600000D03*
X183850000Y-124600000D03*
%LPD*%
M02*
